<svg width="289" height="25" viewBox="0 0 289 25" fill="none" xmlns="http://www.w3.org/2000/svg">
<rect y="12" width="120" height="2" fill="url(#paint0_linear_22_308)"/>
<rect x="169" y="12" width="120" height="2" fill="url(#paint1_linear_22_308)"/>
<path d="M136.84 0.278969C134.571 1.01426 132.765 2.67393 131.672 4.98485C131.021 6.32939 131 6.51846 131 8.91342C131.021 11.1403 131.084 11.6025 131.588 12.884C133.206 17.0017 136.756 20.6571 142.134 23.8504L144.109 25.0059L145.181 24.4596C149.235 22.4008 153.647 18.6193 155.454 15.6571C158.353 10.8672 158.227 5.97225 155.139 2.52687C153.101 0.278969 149.782 -0.582376 146.861 0.405018C146.126 0.65712 145.244 1.05628 144.929 1.26636L144.34 1.68653L142.744 0.90922C141.378 0.215942 140.937 0.110901 139.445 0.0478764C138.374 0.00585938 137.387 0.0898914 136.84 0.278969ZM141.252 2.29577C141.861 2.52687 142.786 3.05208 143.269 3.47225L144.151 4.22855L144.929 3.6193C147.639 1.45544 150.853 1.30838 153.143 3.28317C155.265 5.08989 156.105 7.88401 155.454 10.9092L155.223 11.9596L151.84 11.9176L148.479 11.8546L147.513 7.6109C146.987 5.27897 146.483 3.32519 146.399 3.24115C146.315 3.15712 145.874 4.3546 145.391 5.90922C144.908 7.44283 144.172 9.81678 143.731 11.1823L142.954 13.6823L141.63 10.5941C140.895 8.91342 140.202 7.6109 140.118 7.69493C140.034 7.77897 139.529 8.80838 139.025 9.96384L138.08 12.0647L135.664 12.1277L133.269 12.1907L133.017 11.2454C132.639 9.69073 132.723 7.50586 133.248 6.14031C133.815 4.6067 135.622 2.71594 136.987 2.23275C138.311 1.77057 139.908 1.79157 141.252 2.29577ZM150.601 13.8084C152.576 13.8294 154.214 13.9134 154.214 13.9764C154.214 14.0605 153.794 14.6907 153.29 15.426C151.651 17.6949 148.668 20.2159 144.95 22.4218L144.193 22.884L142.387 21.7496C139.992 20.258 138.416 18.9975 136.861 17.3798C135.559 16.0563 134.256 14.3546 134.256 14.0185C134.256 13.9344 135.433 13.8504 136.84 13.8504H139.445L139.782 12.968C139.971 12.4849 140.16 12.1277 140.223 12.1907C140.265 12.2327 140.937 13.7243 141.714 15.468C142.492 17.2327 143.185 18.6823 143.269 18.6823C143.353 18.6823 143.773 17.5269 144.193 16.0983C144.634 14.6907 145.244 12.737 145.559 11.7496L146.105 9.96384L146.546 11.8546L146.966 13.7454L150.601 13.8084Z" fill="white"/>
<defs>
<linearGradient id="paint0_linear_22_308" x1="120" y1="11.9999" x2="0" y2="12" gradientUnits="userSpaceOnUse">
<stop stop-color="white"/>
<stop offset="1" stop-color="white" stop-opacity="0"/>
</linearGradient>
<linearGradient id="paint1_linear_22_308" x1="169" y1="12" x2="289" y2="12" gradientUnits="userSpaceOnUse">
<stop stop-color="white"/>
<stop offset="1" stop-color="white" stop-opacity="0"/>
</linearGradient>
</defs>
</svg>
