<svg width="142" height="10" viewBox="0 0 142 10" fill="none" xmlns="http://www.w3.org/2000/svg">
<path d="M130.585 6.70071C125.597 6.6596 120.607 6.68308 115.619 6.55977C111.619 6.46222 107.621 6.08285 103.615 6.00874C100.153 5.94498 96.6674 5.92799 93.2254 6.26367C85.996 6.96155 78.7988 8.02374 71.564 8.6746C68.0813 8.98646 64.682 8.38889 61.3009 7.01054C55.7863 4.7632 50.04 5.77862 44.3982 6.88299C41.1058 7.52523 37.8414 8.30277 34.5493 8.90391C31.6262 9.43764 29.0337 8.8937 26.6824 6.76637C24.3137 4.62129 21.2329 5.12435 18.467 5.75332C14.4471 6.65967 10.5117 7.94838 6.55394 9.12534C4.07372 9.86235 1.84364 9.34488 0.352783 7.13658C-0.138401 6.41031 -0.0039658 5.0022 0.325306 4.08305C0.463018 3.69665 2.0683 3.37518 2.6389 3.69109C4.46135 4.69843 6.06945 4.03644 7.77557 3.54553C12.7943 2.10134 17.8255 0.551568 23.1265 1.04737C24.8448 1.20832 26.795 1.62368 28.1204 2.61517C30.8119 4.63374 33.5989 4.2809 36.4981 3.80569C41.4941 2.98372 46.468 2.00892 51.4805 1.32213C55.2105 0.812666 58.868 1.30667 62.4359 2.72766C66.9075 4.50254 71.6193 4.09512 76.25 3.59896C83.9893 2.77023 91.6915 1.46558 99.4462 0.901208C103.73 0.590079 108.086 1.47737 112.419 1.62463C118.208 1.81913 124.005 1.78469 129.8 1.91465C132.789 1.98038 135.794 2.06974 138.757 2.43472C139.586 2.5355 140.789 3.5436 140.958 4.32593C141.302 5.90239 139.88 6.00224 138.698 6.05709C136 6.19339 133.302 6.34143 130.605 6.48948C130.604 6.55994 130.598 6.63035 130.591 6.69488L130.585 6.70071Z" fill="#FFCA1D"/>
</svg>
