<svg width="282" height="36" viewBox="0 0 282 36" fill="none" xmlns="http://www.w3.org/2000/svg">
<path d="M251.771 20.2953C242.569 20.2194 233.367 20.2284 224.166 20.0447C216.789 19.8991 209.414 19.3837 202.025 19.2689C195.639 19.17 189.21 19.1324 182.863 19.5579C169.533 20.4421 156.263 21.8046 142.922 22.6271C136.5 23.0212 130.228 22.222 123.986 20.3982C113.805 17.4245 103.211 18.732 92.8107 20.1567C86.741 20.9851 80.7238 21.9913 74.6546 22.7658C69.2657 23.4535 64.4818 22.7282 60.1357 19.926C55.7575 17.1003 50.0777 17.747 44.979 18.5604C37.5688 19.7323 30.3163 21.4064 23.0218 22.9337C18.4506 23.8901 14.3352 23.2012 11.5759 20.2964C10.6668 19.3411 10.9085 17.4936 11.5118 16.2887C11.7641 15.7822 14.7234 15.3674 15.7772 15.7845C19.1429 17.1145 22.1059 16.2528 25.2505 15.6159C34.5004 13.7425 43.7731 11.7306 53.5523 12.4046C56.7222 12.6233 60.3208 13.177 62.7697 14.4841C67.7426 17.1451 72.8814 16.6943 78.2265 16.0833C87.4374 15.0264 96.6068 13.7689 105.849 12.8895C112.726 12.2372 119.474 12.9016 126.06 14.7822C134.316 17.1312 143.004 16.6171 151.543 15.9862C165.813 14.9325 180.013 13.254 194.313 12.5473C202.213 12.1577 210.251 13.3413 218.243 13.5536C228.921 13.8343 239.612 13.8145 250.302 14.0104C255.813 14.1098 261.357 14.2403 266.823 14.7322C268.354 14.8682 270.576 16.1965 270.891 17.224C271.532 19.2945 268.909 19.4193 266.73 19.4861C261.755 19.6532 256.78 19.8356 251.805 20.0181C251.805 20.1106 251.793 20.203 251.782 20.2876L251.771 20.2953Z" fill="#FFCA1D"/>
</svg>
