<svg width="114" height="170" viewBox="0 0 114 170" fill="none" xmlns="http://www.w3.org/2000/svg">
<path d="M0 9.62703V14.8617L25.8926 0H16.7726L0 9.62703Z" fill="black" fill-opacity="0.05"/>
<path d="M41.4543 0L0 23.7937V29.0283L50.5743 0H41.4543Z" fill="black" fill-opacity="0.05"/>
<path d="M66.136 0L0 37.9604V43.195L75.256 0H66.136Z" fill="black" fill-opacity="0.05"/>
<path d="M90.8178 0L0 52.127V57.3617L99.9378 0H90.8178Z" fill="black" fill-opacity="0.05"/>
<path d="M114 0.860666L0 66.2937V71.5283L114 6.09531V0.860666Z" fill="black" fill-opacity="0.05"/>
<path d="M114 15.0273L0 80.4604V85.695L114 20.262V15.0273Z" fill="black" fill-opacity="0.05"/>
<path d="M114 29.194L0 94.627V99.8617L114 34.4286V29.194Z" fill="black" fill-opacity="0.05"/>
<path d="M114 43.3607L0 108.794V114.028L114 48.5953V43.3607Z" fill="black" fill-opacity="0.05"/>
<path d="M114 57.5273L0 122.96V128.195L114 62.762V57.5273Z" fill="black" fill-opacity="0.05"/>
<path d="M114 71.694L0 137.127V142.362L114 76.9286V71.694Z" fill="black" fill-opacity="0.05"/>
<path d="M114 85.8607L0 151.294V156.528L114 91.0953V85.8607Z" fill="black" fill-opacity="0.05"/>
<path d="M114 100.027L0 165.46V170H1.21085L114 105.262V100.027Z" fill="black" fill-opacity="0.05"/>
<path d="M114 114.194L16.7726 170H25.8926L114 119.429V114.194Z" fill="black" fill-opacity="0.05"/>
<path d="M114 128.361L41.4543 170H50.5743L114 133.595V128.361Z" fill="black" fill-opacity="0.05"/>
<path d="M114 142.527L66.136 170H75.256L114 147.762V142.527Z" fill="black" fill-opacity="0.05"/>
<path d="M114 156.694L90.8178 170H99.9378L114 161.929V156.694Z" fill="black" fill-opacity="0.05"/>
</svg>
