<svg width="3240" height="800" viewBox="0 0 3240 800" fill="none" xmlns="http://www.w3.org/2000/svg">
<path d="M868 362.432V95.6035H959.086C980.347 95.6035 997.672 101.683 1011.1 113.842C1024.48 126.001 1031.2 142.306 1031.2 162.794C1031.2 190.099 1019.95 209.461 997.426 220.882V221.62C1011.1 225.416 1021.95 233.393 1030.07 245.552C1038.15 257.711 1042.23 271.732 1042.23 287.686C1042.23 310.704 1034.64 328.942 1019.46 342.331C1004.28 355.755 985.161 362.467 962.144 362.467H868V362.432ZM894.18 211.359H959.086C972.51 211.359 983.369 207.072 991.733 198.462C1000.06 189.853 1004.24 178.607 1004.24 164.691C1004.24 151.021 1000.13 140.022 991.908 131.658C983.685 123.295 972.475 119.113 958.348 119.113H894.18V211.359ZM894.18 338.887H962.495C978.695 338.887 991.452 334.213 1000.83 324.831C1010.18 315.483 1014.89 302.832 1014.89 286.878C1014.89 270.924 1010.01 258.167 1000.31 248.539C990.573 238.91 977.852 234.096 962.144 234.096H894.18V338.887Z" fill="#4B4646"/>
<path d="M1094.59 362.432V95.6035H1175.45C1196.71 95.6035 1213.05 98.1336 1224.4 103.194C1250.72 115.845 1263.9 138.125 1263.9 169.998C1263.9 187.955 1259.19 203.663 1249.85 217.052C1240.5 230.476 1228.2 239.332 1213.02 243.619V244.392C1214.99 246.676 1217.38 250.225 1220.15 255.075L1278.31 362.432H1247.95L1187.96 250.085H1120.81V362.432H1094.59ZM1120.81 226.505H1184.2C1200.16 226.505 1212.91 221.374 1222.54 211.148C1232.17 200.887 1236.98 187.428 1236.98 170.736C1236.98 160.123 1234.52 150.67 1229.57 142.447C1224.65 134.224 1217.76 128.109 1208.87 124.033C1201.53 120.765 1189.9 119.113 1173.94 119.113H1120.81V226.505Z" fill="#4B4646"/>
<path d="M1336.4 362.432V95.6035H1362.58V362.432H1336.4V362.432Z" fill="#4B4646"/>
<path d="M1414.59 227.278C1414.59 188.306 1427.17 155.871 1452.37 129.937C1477.53 104.002 1509.61 91.0352 1548.58 91.0352C1588.82 91.0352 1620.94 102.562 1645.01 125.579L1630.96 144.942C1620.59 135.84 1608.04 128.707 1593.35 123.506C1578.66 118.34 1564.01 115.74 1549.32 115.74C1517.45 115.74 1491.58 126.317 1471.73 147.437C1451.84 168.557 1441.93 195.054 1441.93 226.962C1441.93 259.362 1451.91 286.702 1471.91 308.947C1491.9 331.191 1518.08 342.331 1550.48 342.331C1583.9 342.331 1612.58 330.559 1636.61 307.049L1651.79 325.639C1623.72 353.225 1589.66 367 1549.67 367C1509.68 367 1477.18 353.682 1452.12 326.974C1427.1 300.232 1414.59 267.023 1414.59 227.278Z" fill="#4B4646"/>
<path d="M1703.06 362.432V95.6035H1730.54V211.359H1777.95L1853.33 95.6035H1884.82L1800.72 221.62V222.394L1890.4 362.467H1858.14L1777.88 234.939H1730.58V362.467H1703.06V362.432Z" fill="#4B4646"/>
<path d="M1940.65 362.432V95.6035H2090.6V119.148H1966.87V216.314H2068.22V239.859H1966.87V338.922H2097.84V362.467H1940.65V362.432Z" fill="#4B4646"/>
<path d="M2153.22 362.432V95.6035H2178.53L2314.84 287.721L2336.94 323.706H2337.72C2336.21 309.017 2335.43 297.034 2335.43 287.651V95.5684H2361.61V362.397H2336.21L2199.93 170.349L2177.89 134.294H2177.16C2178.67 148.983 2179.4 161.002 2179.4 170.349V362.397H2153.22V362.432Z" fill="#4B4646"/>
<path d="M2438.29 362.432V95.6035H2524.07C2564.84 95.6035 2597.34 107.446 2621.62 131.096C2645.91 154.746 2658.06 187.322 2658.06 228.824C2658.06 270.572 2645.91 303.289 2621.62 326.939C2597.31 350.624 2564.8 362.432 2524.07 362.432H2438.29ZM2464.47 338.887H2521.4C2554.82 338.887 2581.39 329.364 2601.1 310.247C2620.85 291.13 2630.69 264.001 2630.69 228.824C2630.69 193.894 2620.82 166.905 2601.1 147.788C2581.39 128.707 2554.82 119.148 2521.4 119.148H2464.47V338.887Z" fill="#4B4646"/>
<path d="M2700.55 226.892C2700.55 188.693 2713.52 156.468 2739.45 130.288C2765.39 104.108 2797.72 91 2836.44 91C2875.41 91 2907.78 104.037 2933.61 130.077C2959.44 156.152 2972.33 188.412 2972.33 226.856C2972.33 266.355 2959.44 299.564 2933.61 326.482C2907.78 353.436 2875.41 366.895 2836.44 366.895C2797.72 366.895 2765.39 353.436 2739.45 326.482C2713.52 299.599 2700.55 266.39 2700.55 226.892ZM2727.89 226.892C2727.89 259.538 2738.19 286.913 2758.82 309.052C2779.44 331.226 2805.31 342.261 2836.44 342.261C2867.58 342.261 2893.44 331.261 2914.07 309.228C2934.7 287.229 2944.99 259.749 2944.99 226.856C2944.99 195.229 2934.66 168.768 2914.07 147.507C2893.44 126.282 2867.58 115.634 2836.44 115.634C2805.31 115.634 2779.44 126.247 2758.82 147.507C2738.19 168.838 2727.89 195.299 2727.89 226.892Z" fill="#4B4646"/>
<path d="M3031.55 362.432V95.6035H3056.85L3193.2 287.721L3215.3 323.706H3216.07C3214.53 309.017 3213.75 297.034 3213.75 287.651V95.5684H3239.97V362.397H3214.53L3078.25 170.349L3056.22 134.294H3055.48C3056.99 148.983 3057.73 161.002 3057.73 170.349V362.397H3031.55V362.432Z" fill="#4B4646"/>
<path d="M440.503 569.359C438.367 569.33 436.201 569.301 434.065 569.242C438.718 568.189 443.284 566.959 447.761 565.584C445.361 566.872 442.962 568.13 440.503 569.359ZM328.973 606.907C325.49 603.19 322.008 599.356 318.584 595.464C325.373 598.8 332.221 601.902 339.128 604.8C335.704 605.531 332.338 606.234 328.973 606.907ZM257.273 616.564C251.741 601.932 246.327 585.982 241.499 569.037C252.415 573.661 263.594 577.963 274.978 581.856C284.87 592.128 295.171 601.844 305.824 611.033C288.791 613.696 272.461 615.452 257.273 616.564ZM166.638 620.544C96.898 609.219 49.166 591.777 49.166 591.777C49.166 591.777 59.5846 540.474 87.3282 473.808C108.575 491.133 133.129 509.336 160.462 526.456V529.763C160.492 542.552 160.902 555.048 161.604 567.223C162.482 556.102 163.799 543.459 165.701 529.705C183.494 540.621 202.371 551.01 222.183 560.404C230.29 580.187 239.45 599.151 249.254 617.12C235.089 617.998 222.096 618.291 210.623 618.291C189.874 618.291 174.217 617.267 166.111 616.564C166.286 617.881 166.462 619.198 166.638 620.544Z" fill="#ED6F29"/>
<path d="M463.389 193.328C459.204 192.567 455.02 191.894 450.805 191.279C453.761 190.606 456.658 189.962 459.585 189.318C460.843 190.635 462.131 191.982 463.389 193.328ZM548.64 218.174C533.246 212.028 517.384 206.556 501.083 202.02C494.733 196.167 488.265 190.548 481.68 185.133C500.352 181.973 518.291 179.924 534.914 178.666C539.655 190.899 544.308 204.127 548.64 218.174ZM312.907 227.89C312.936 227.89 312.965 227.861 312.965 227.861C312.965 227.861 312.936 227.89 312.907 227.89ZM302.254 233.626C305.736 231.607 309.248 229.705 312.877 227.92C309.278 229.705 305.736 231.607 302.254 233.626ZM710.712 315.921C688.499 297.922 662.746 279.046 634.124 261.516C634.007 249.781 633.597 238.25 632.924 227.071C632.163 236.582 631.11 247.264 629.617 258.765C609.746 246.796 588.528 235.529 566.228 225.608C558.941 209.102 550.922 193.269 542.523 178.11C557.741 177.115 571.701 176.764 583.905 176.764C604.624 176.764 620.281 177.788 628.388 178.461C628.095 176.325 627.832 174.217 627.539 172.14C697.63 183.29 746.123 200.82 747.528 201.317V201.493C746.884 204.536 736.553 252.942 710.712 315.921Z" fill="#ED6F29"/>
<path d="M553.818 478.841C558.033 471.144 561.72 463.126 564.822 454.844C564.851 454.785 564.91 454.726 564.939 454.639C561.837 462.979 558.091 471.057 553.818 478.841ZM447.76 565.584C448.082 565.408 448.404 565.233 448.726 565.057C479.455 555.429 506.204 538.133 527.158 515.686C524.992 519.315 522.768 522.856 520.485 526.368C516.856 528.417 513.169 530.407 509.452 532.309C491.6 546.971 470.792 558.472 447.76 565.584ZM442.434 615.013C436.903 613.316 431.372 611.531 425.782 609.628C434.854 606.878 443.868 603.775 452.823 600.322C455.048 600 457.272 599.678 459.496 599.327C453.848 604.77 448.141 610.009 442.434 615.013ZM385.132 659.204C373.017 649.312 360.345 638.192 347.673 625.929C359.496 624.495 371.319 622.622 383.201 620.281C396.897 624.232 410.681 627.48 424.465 630.114C411.032 640.942 397.746 650.629 385.132 659.204ZM192.507 741.762C192.507 741.762 175.914 692.157 166.607 620.544C193.678 624.934 224.055 628.388 256.218 629.558C263.154 641.645 270.324 653.205 277.582 664.267C272.782 654.2 267.602 642.611 262.423 629.763C267.046 629.88 271.67 629.968 276.353 629.968H282.118C296.722 629.909 311.618 629.324 326.66 628.095C343.576 641.177 360.988 653 378.46 663.682C345.214 685.66 317.588 699.415 306.145 704.8C306.964 705.853 307.755 706.936 308.574 707.99C242.581 733.011 192.507 741.762 192.507 741.762Z" fill="#F5A02A"/>
<path d="M445.333 569.388C443.723 569.388 442.114 569.359 440.504 569.359C442.933 568.13 445.333 566.842 447.762 565.555C470.794 558.443 491.602 546.942 509.453 532.28C513.17 530.348 516.858 528.358 520.486 526.339C511.18 540.65 500.996 554.112 490.197 566.754C475.505 568.452 460.522 569.388 445.333 569.388ZM425.784 609.658C420.428 607.814 415.043 605.882 409.688 603.804C424.262 603.483 438.66 602.312 452.825 600.322C443.87 603.775 434.856 606.877 425.784 609.658ZM347.674 625.929C341.411 619.871 335.148 613.521 328.944 606.907C332.31 606.234 335.675 605.531 339.099 604.77C353.586 610.828 368.335 615.979 383.173 620.252C371.35 622.622 359.497 624.495 347.674 625.929ZM256.249 629.558C224.057 628.387 193.679 624.934 166.638 620.515C166.463 619.198 166.287 617.881 166.141 616.535C174.247 617.208 189.904 618.262 210.653 618.262C222.125 618.262 235.119 617.94 249.284 617.091C251.566 621.305 253.878 625.461 256.249 629.558ZM282.149 629.968H276.384C271.701 629.939 267.048 629.88 262.424 629.763C260.697 625.49 259 621.1 257.273 616.564C272.462 615.452 288.792 613.696 305.824 611.033C312.673 616.945 319.609 622.622 326.691 628.095C311.648 629.324 296.752 629.909 282.149 629.968Z" fill="#F29120"/>
<path d="M634.124 261.516C632.631 260.608 631.11 259.672 629.588 258.765C631.08 247.234 632.134 236.582 632.895 227.041C633.568 238.25 634.007 249.78 634.124 261.516Z" fill="#F29120"/>
<path d="M627.539 172.139C599.327 167.662 567.574 164.208 534.007 163.33C528.037 153.205 521.891 143.459 515.716 134.094C519.842 142.728 524.261 152.473 528.71 163.213C524.905 163.155 521.101 163.126 517.267 163.126C497.659 163.126 477.554 164.062 457.243 166.198C442.669 155.575 427.802 145.8 412.906 136.904C447.176 114.047 475.798 99.7951 487.504 94.2932C486.187 92.5666 484.899 90.8692 483.582 89.201C550.805 63.4474 602.049 54.5215 602.049 54.5215C602.049 54.5215 618.145 102.4 627.539 172.139ZM389.084 178.285C380.656 176.412 372.198 174.773 363.77 173.339C378.373 161.282 392.889 150.541 406.643 141.118C416.857 149.371 427.539 158.531 438.309 168.51C421.92 170.881 405.444 174.071 389.084 178.285ZM342.845 191.542C344.132 190.342 345.42 189.172 346.737 188.001C348.522 188.499 350.337 189.025 352.122 189.581C351.156 189.933 350.161 190.284 349.195 190.635C347.118 190.928 344.952 191.25 342.845 191.542ZM312.965 227.861C317.003 225.871 321.071 224.027 325.256 222.33H325.286C321.101 224.027 317.003 225.871 312.965 227.861ZM312.877 227.919C312.906 227.89 312.906 227.89 312.906 227.89C312.906 227.919 312.906 227.919 312.877 227.919ZM212.906 370.091C213.696 363.477 214.867 356.921 216.33 350.483C214.867 356.863 213.755 363.36 212.965 369.944C212.965 370.003 212.936 370.032 212.906 370.091Z" fill="#F5A02A"/>
<path d="M161.575 567.193C160.873 555.048 160.463 542.523 160.434 529.734V526.427C162.16 527.51 163.945 528.592 165.672 529.675C163.77 543.43 162.482 556.073 161.575 567.193Z" fill="#F29120"/>
<path d="M628.359 178.461C620.252 177.788 604.624 176.764 583.875 176.764C571.672 176.764 557.712 177.115 542.494 178.11C539.714 173.105 536.875 168.16 534.007 163.331C567.574 164.209 599.327 167.662 627.539 172.169C627.803 174.218 628.095 176.325 628.359 178.461ZM481.68 185.104C473.662 178.49 465.497 172.169 457.244 166.14C477.554 164.004 497.659 163.067 517.267 163.067C521.101 163.067 524.935 163.097 528.71 163.184C530.788 168.13 532.836 173.281 534.914 178.637C518.321 179.924 500.381 181.973 481.68 185.104ZM349.225 190.635C350.22 190.284 351.186 189.904 352.151 189.582C352.678 189.757 353.234 189.904 353.761 190.05C352.269 190.255 350.747 190.431 349.225 190.635ZM450.805 191.25C442.991 190.109 435.119 189.201 427.188 188.558C414.545 184.519 401.844 181.124 389.084 178.285C405.473 174.071 421.92 170.881 438.338 168.511C445.42 175.095 452.532 182.031 459.585 189.318C456.629 189.933 453.732 190.577 450.805 191.25ZM302.283 233.626C305.122 230.261 308.019 226.954 310.946 223.705C315.716 223.179 320.486 222.71 325.286 222.33C321.101 224.027 317.004 225.871 312.994 227.89C312.965 227.89 312.936 227.92 312.936 227.92C312.907 227.949 312.907 227.949 312.877 227.949C309.248 229.705 305.737 231.607 302.283 233.626Z" fill="#F29120"/>
<path d="M564.939 454.638C566.11 451.507 567.193 448.346 568.188 445.127C568.129 446.619 568.071 448.112 567.983 449.605C566.988 451.273 565.993 452.97 564.939 454.638ZM527.158 515.686C527.187 515.657 527.216 515.598 527.216 515.569C537.547 504.477 546.502 492.127 553.789 478.87C546.502 492.186 537.547 504.565 527.158 515.686ZM536.552 559.087C539.888 555.253 543.195 551.331 546.414 547.351C548.17 546.005 549.926 544.6 551.653 543.225C550.365 547.732 548.99 552.18 547.585 556.57C543.956 557.448 540.269 558.267 536.552 559.087ZM517.237 632.192C501.785 629.675 485.279 626.397 468.159 622.124C481.826 611.823 495.141 600.731 507.901 588.732C518.817 585.66 529.558 582.206 540.093 578.431C532.923 597.893 525.051 615.979 517.237 632.192ZM391.659 800C391.659 800 352.531 765.32 308.633 707.96C334.269 698.244 362.306 686.04 390.781 670.968C402.809 677.963 414.837 684.401 426.66 690.342V690.371C417.471 684.021 407.17 676.587 396.224 668.042C414.574 658.092 433.011 646.941 451.038 634.445C472.227 637.313 493.239 638.864 513.696 639.362C495.902 675.036 478.87 700.761 471.641 711.15C472.9 711.647 474.1 712.174 475.329 712.701C430.64 767.398 391.659 800 391.659 800Z" fill="#FBC265"/>
<path d="M546.414 547.352C548.55 544.689 550.687 541.996 552.765 539.274C552.413 540.591 552.033 541.908 551.653 543.225C549.897 544.601 548.141 545.976 546.414 547.352Z" fill="#F7A632"/>
<path d="M520.514 526.368C522.797 522.856 525.021 519.286 527.186 515.686C537.546 504.565 546.531 492.186 553.847 478.87C558.12 471.085 561.837 463.008 564.968 454.667C565.992 452.999 567.017 451.302 568.012 449.634C567.134 466.578 565.027 483.23 562.042 499.473C548.931 509.072 535.088 518.173 520.514 526.368ZM527.918 560.872C534.239 556.54 540.414 552.034 546.414 547.351C543.195 551.331 539.888 555.253 536.551 559.087C533.683 559.701 530.815 560.316 527.918 560.872ZM468.129 622.124C459.671 620.017 451.096 617.647 442.404 615.013C448.14 610.008 453.818 604.77 459.466 599.326C475.943 596.751 492.097 593.151 507.871 588.732C495.141 600.731 481.825 611.823 468.129 622.124ZM396.224 668.042C392.595 665.203 388.907 662.276 385.161 659.204C397.745 650.629 411.061 640.942 424.465 630.114C433.361 631.811 442.229 633.245 451.038 634.445C433.01 646.941 414.544 658.091 396.224 668.042ZM308.603 707.96C307.783 706.906 306.993 705.823 306.174 704.77C317.617 699.385 345.243 685.63 378.489 663.652C382.586 666.169 386.683 668.569 390.751 670.939C362.305 686.069 334.239 698.244 308.603 707.96Z" fill="#F8AE33"/>
<path d="M490.225 566.784C500.994 554.141 511.208 540.679 520.514 526.369C535.089 518.174 548.96 509.102 562.013 499.444C559.496 513.082 556.364 526.369 552.765 539.275C550.687 541.996 548.551 544.718 546.414 547.352C540.415 552.034 534.269 556.541 527.919 560.872C515.627 563.331 503.043 565.321 490.225 566.784Z" fill="#F7AC2D"/>
<path d="M249.254 617.091C239.45 599.122 230.261 580.158 222.184 560.375C228.505 563.36 234.973 566.257 241.499 569.038C246.328 585.982 251.742 601.932 257.273 616.565C254.58 616.769 251.888 616.945 249.254 617.091Z" fill="#F7A632"/>
<path d="M277.612 664.238C270.354 653.205 263.184 641.616 256.248 629.559C258.297 629.617 260.374 629.676 262.452 629.734C267.632 642.611 272.812 654.171 277.612 664.238Z" fill="#F8AE33"/>
<path d="M262.423 629.734C260.375 629.675 258.297 629.617 256.248 629.529C253.907 625.432 251.566 621.276 249.283 617.091C251.888 616.916 254.58 616.74 257.273 616.564C258.97 621.101 260.697 625.49 262.423 629.734Z" fill="#F7AC2D"/>
<path d="M573.983 361.925C573.925 361.632 573.896 361.34 573.837 361.047C572.988 356.16 571.876 351.419 570.676 346.736C570.676 346.444 570.676 346.18 570.647 345.888C571.935 350.834 572.988 355.896 573.866 361.047C573.896 361.164 573.925 361.311 573.925 361.428C573.954 361.603 573.983 361.779 573.983 361.925ZM575.447 372.783C575.271 371.027 575.066 369.241 574.832 367.456C574.861 367.486 574.861 367.486 574.861 367.486C575.066 369.241 575.242 371.027 575.447 372.783ZM213.228 415.364C213.14 414.72 213.053 414.076 212.994 413.403C213.082 414.076 213.14 414.72 213.228 415.364ZM222.974 454.58C220.925 448.99 219.081 443.283 217.56 437.459C216.213 432.25 215.043 426.924 214.165 421.51C214.135 421.422 214.136 421.363 214.136 421.305C214.136 421.363 214.165 421.422 214.165 421.51C216.067 432.894 219.111 443.751 222.944 454.199C222.974 454.345 222.974 454.462 222.974 454.58Z" fill="#FBC265"/>
<path d="M566.199 225.607C560.404 223.032 554.551 220.574 548.64 218.174C544.308 204.156 539.655 190.898 534.914 178.636C537.46 178.431 539.977 178.256 542.494 178.109C550.922 193.24 558.912 209.101 566.199 225.607Z" fill="#F7A632"/>
<path d="M534.006 163.302C532.25 163.243 530.494 163.214 528.709 163.185C524.231 152.444 519.812 142.699 515.715 134.065C521.89 143.43 528.036 153.205 534.006 163.302Z" fill="#F8AE33"/>
<path d="M534.913 178.637C532.865 173.281 530.787 168.13 528.709 163.185C530.465 163.214 532.25 163.272 534.006 163.302C536.874 168.13 539.713 173.076 542.493 178.081C540.005 178.256 537.459 178.461 534.913 178.637Z" fill="#F7AC2D"/>
<path d="M333.099 169.154C315.159 167.252 297.424 166.228 280.099 165.935C298.361 129.002 316.008 102.341 323.382 91.7764C321.392 90.9277 319.432 90.1375 317.471 89.3181C362.803 33.3919 402.75 0 402.75 0C402.75 0 440.591 33.5089 483.611 89.1425C456.921 99.3562 427.714 112.233 398.156 128.27C387.942 122.505 377.816 117.15 367.778 112.145C375.621 117.53 384.313 123.793 393.502 130.817C373.251 142.054 352.882 154.756 333.099 169.154ZM259.203 213.111C264.822 198.742 270.822 185.221 276.792 172.754C289.786 174.773 303.599 177.378 317.939 180.626C309.101 187.591 300.438 194.879 291.981 202.546C280.86 205.707 269.915 209.219 259.203 213.111ZM246.707 248.405C248.17 243.693 249.721 239.04 251.302 234.475C255.077 233.538 258.881 232.66 262.715 231.812C258.999 235.938 255.311 240.181 251.711 244.483C250.043 245.771 248.375 247.088 246.707 248.405ZM232.191 307.346C240.503 291.337 251.126 276.588 263.74 263.682C275.065 252.063 288.001 241.908 302.253 233.626C302.136 233.772 301.989 233.948 301.843 234.094C271.992 251.624 247.936 277.173 232.191 307.346Z" fill="#FBC265"/>
<path d="M245.566 252.063C245.947 250.834 246.327 249.634 246.708 248.405C248.376 247.088 250.044 245.771 251.741 244.454C249.664 246.971 247.615 249.488 245.566 252.063ZM263.769 263.682C275.095 252.063 288.031 241.908 302.283 233.626C288.031 241.937 275.095 252.092 263.769 263.682Z" fill="#F7A632"/>
<path d="M412.935 136.875C408.018 133.919 403.072 131.08 398.185 128.27C427.714 112.262 456.921 99.3855 483.64 89.1426C484.928 90.84 486.245 92.5374 487.532 94.2348C475.826 99.7367 447.205 114.018 412.935 136.875ZM363.74 173.339C353.497 171.613 343.254 170.237 333.099 169.154C352.853 154.785 373.222 142.054 393.532 130.817C397.805 134.065 402.194 137.518 406.643 141.118C392.888 150.512 378.372 161.282 363.74 173.339ZM291.981 202.575C300.409 194.908 309.101 187.592 317.939 180.626C327.363 182.763 336.991 185.221 346.766 188.001C345.478 189.172 344.19 190.372 342.873 191.542C325.519 194.147 308.545 197.893 291.981 202.575ZM251.741 244.484C255.311 240.152 258.999 235.938 262.744 231.812C265.847 231.138 268.949 230.465 272.08 229.822C265.086 234.504 258.325 239.391 251.741 244.484ZM232.191 307.346C233.069 302.312 234.035 297.337 235.089 292.391C238.776 289.669 242.522 286.977 246.356 284.343C251.624 277.056 257.447 270.149 263.74 263.682C251.155 276.617 240.503 291.337 232.191 307.346Z" fill="#F8AE33"/>
<path d="M235.09 292.391C238.016 278.578 241.587 265.057 245.567 252.063C247.586 249.488 249.635 246.971 251.742 244.484C258.327 239.421 265.087 234.533 272.081 229.851C284.724 227.305 297.718 225.227 310.946 223.734C308.019 226.983 305.122 230.29 302.283 233.655C288.031 241.937 275.096 252.093 263.77 263.711C257.478 270.179 251.654 277.085 246.386 284.372C242.553 286.977 238.777 289.669 235.09 292.391Z" fill="#F7AC2D"/>
<path d="M248.638 501.229C248.58 501.171 248.521 501.141 248.434 501.083C237.869 487.153 229.206 471.554 222.973 454.639C222.973 454.609 222.973 454.609 222.973 454.609C229.265 471.583 237.986 487.24 248.638 501.229Z" fill="#437DC0"/>
<path d="M305.824 611.033C295.201 601.873 284.87 592.128 274.979 581.855C287.738 586.187 300.761 589.991 314.048 593.181C315.54 593.942 317.062 594.703 318.555 595.435C321.979 599.356 325.461 603.161 328.973 606.907C321.159 608.487 313.404 609.862 305.824 611.033Z" fill="#4C73AE"/>
<path d="M378.489 663.652C361.018 652.97 343.576 641.147 326.689 628.065C333.655 627.48 340.649 626.777 347.673 625.929C360.345 638.191 373.017 649.312 385.133 659.203C382.908 660.725 380.684 662.218 378.489 663.652Z" fill="#4B77B0"/>
<path d="M326.69 628.065C319.638 622.593 312.672 616.915 305.824 611.003C313.404 609.833 321.159 608.457 328.973 606.906C335.148 613.52 341.411 619.871 347.674 625.929C340.65 626.807 333.656 627.509 326.69 628.065Z" fill="#4C76AF"/>
<path d="M179.191 249.751C177.231 212.438 179.016 183.699 180.04 171.642H179.982C177.874 171.934 175.767 172.168 173.689 172.49C184.986 101.375 202.867 52.502 202.867 52.502C202.867 52.502 252.384 62.6278 317.471 89.3179C299.443 111.53 280.625 137.255 263.066 165.876C251.36 165.993 239.859 166.403 228.679 167.076C238.191 167.837 248.814 168.861 260.315 170.354C250.131 187.299 240.415 205.209 231.606 223.968C213.344 231.841 195.843 240.562 179.191 249.751ZM185.103 308.838C182.352 290.606 180.625 273.193 179.601 257.155C193.151 251.917 207.872 246.737 223.558 242.025C217.88 255.428 212.7 269.212 208.193 283.318C200.145 291.571 192.449 300.117 185.103 308.838ZM191.951 345.625C190.898 340.854 189.903 336.113 188.995 331.402C191.776 328.738 194.614 326.105 197.482 323.471C196.312 328.855 195.258 334.299 194.322 339.742C193.531 341.674 192.712 343.635 191.951 345.625Z" fill="#437DC0"/>
<path d="M188.996 331.372C187.533 323.734 186.245 316.213 185.104 308.809C192.449 300.117 200.146 291.571 208.194 283.318C204.009 296.429 200.38 309.804 197.454 323.441C194.586 326.075 191.776 328.738 188.996 331.372Z" fill="#4C73AE"/>
<path d="M192.8 349.341C192.507 348.112 192.215 346.854 191.951 345.624C192.712 343.634 193.502 341.674 194.322 339.713C193.766 342.903 193.268 346.093 192.8 349.341Z" fill="#4B77B0"/>
<path d="M216.329 350.483C219.753 335.616 224.992 321.335 231.898 307.931C231.986 307.726 232.103 307.551 232.191 307.346C232.162 307.463 232.162 307.58 232.133 307.697C225.167 321.159 219.841 335.528 216.329 350.483ZM212.993 413.433C211.179 398.8 211.179 384.314 212.817 370.237C212.847 370.179 212.876 370.149 212.905 370.091C211.208 384.197 211.179 398.742 212.993 413.433Z" fill="#437DC0"/>
<path d="M212.818 370.237C215.394 348.2 221.949 327.158 231.87 307.96C224.993 321.334 219.754 335.616 216.33 350.512C214.838 356.95 213.667 363.476 212.906 370.12C212.877 370.149 212.848 370.178 212.818 370.237Z" fill="#4B77B0"/>
<path d="M426.631 690.342C414.808 684.401 402.78 677.963 390.752 670.969C392.566 670.003 394.381 669.008 396.225 668.042C407.141 676.558 417.442 684.021 426.631 690.342Z" fill="#4979B5"/>
<path d="M390.752 670.969C386.655 668.598 382.558 666.169 378.49 663.652C380.685 662.218 382.88 660.726 385.133 659.204C388.909 662.277 392.596 665.204 396.196 668.042C394.381 669.037 392.567 670.003 390.752 670.969Z" fill="#4A78B1"/>
<path d="M280.099 165.935C278.343 165.906 276.617 165.877 274.89 165.877H264.325C263.886 165.877 263.477 165.877 263.038 165.877C280.568 137.255 299.415 111.502 317.442 89.3184C319.403 90.1378 321.364 90.9572 323.354 91.7767C316.008 102.371 298.361 129.032 280.099 165.935ZM231.606 224.027C240.386 205.268 250.102 187.358 260.316 170.413C265.642 171.086 271.144 171.876 276.792 172.783C270.822 185.221 264.852 198.742 259.204 213.14C249.81 216.506 240.62 220.164 231.606 224.027ZM208.223 283.319C212.73 269.213 217.91 255.4 223.558 242.025C232.514 239.333 241.791 236.787 251.302 234.446C249.722 239.04 248.2 243.694 246.707 248.405C233.04 259.321 220.193 271.027 208.223 283.319ZM231.899 307.931C231.987 307.726 232.104 307.551 232.192 307.346C232.104 307.551 232.016 307.756 231.899 307.931ZM194.322 339.713C195.259 334.27 196.312 328.827 197.483 323.442C199.766 321.335 202.107 319.257 204.477 317.179C200.819 324.612 197.454 332.134 194.322 339.713ZM213.228 415.365C209.804 406.761 206.672 398.127 203.863 389.465C206.672 383.026 209.628 376.617 212.818 370.237C211.179 384.314 211.179 398.8 212.994 413.433C213.081 414.077 213.14 414.721 213.228 415.365ZM222.973 454.639C220.925 449.049 219.081 443.313 217.559 437.46C219.081 443.313 220.895 449.02 222.973 454.58C222.973 454.61 222.973 454.61 222.973 454.639Z" fill="#4979B5"/>
<path d="M197.482 323.442C200.438 309.804 204.038 296.43 208.223 283.319C220.222 271.027 233.04 259.292 246.736 248.405C246.356 249.605 245.975 250.834 245.595 252.063C235.791 264.472 226.66 277.612 218.378 291.484C213.344 299.912 208.72 308.487 204.477 317.179C202.106 319.257 199.765 321.364 197.482 323.442Z" fill="#4B77B1"/>
<path d="M203.863 389.464C199.503 376.002 195.815 362.569 192.771 349.312C193.24 346.093 193.766 342.903 194.322 339.684C197.454 332.104 200.819 324.612 204.478 317.149C214.165 308.633 224.378 300.322 235.119 292.361C234.065 297.307 233.099 302.282 232.192 307.345C232.104 307.55 231.987 307.726 231.899 307.931C221.949 327.129 215.394 348.2 212.818 370.207C209.658 376.617 206.673 383.026 203.863 389.464Z" fill="#4A78B1"/>
<path d="M204.447 317.179C208.691 308.487 213.344 299.912 218.348 291.484C226.63 277.583 235.761 264.443 245.565 252.063C241.585 265.057 238.015 278.578 235.088 292.391C224.377 300.322 214.134 308.663 204.447 317.179Z" fill="#4B78B1"/>
<path d="M598.303 469.623C599.269 464.706 600.147 459.731 600.908 454.756C601.757 452.678 602.576 450.571 603.396 448.493C604.508 453 605.561 457.478 606.527 461.955C603.835 464.531 601.084 467.106 598.303 469.623ZM574.335 549.4C579.515 536.524 584.197 523.325 588.265 509.834C596.196 501.727 603.747 493.357 611.005 484.812C614.019 502.283 616.097 519.14 617.443 534.885C604.098 539.948 589.641 544.894 574.335 549.4ZM593.27 750.893H593.094C589.992 750.249 539.919 739.596 475.301 712.702C492.655 691.455 510.829 666.872 527.949 639.567C528.476 639.567 529.003 639.567 529.53 639.567C542.933 639.567 556.044 639.157 568.775 638.426V638.397C557.654 637.519 544.982 636.231 531.227 634.299C543.899 613.638 555.898 591.484 566.375 568.13C584.373 560.521 601.64 552.034 618.116 543.021C621.277 586.538 619.228 620.515 618.116 633.919C619.462 633.743 620.779 633.568 622.096 633.421C610.917 702.166 593.767 749.488 593.27 750.893Z" fill="#437DC0"/>
<path d="M588.264 509.833C592.215 496.693 595.609 483.29 598.302 469.623C601.111 467.077 603.862 464.53 606.555 461.984C608.223 469.681 609.715 477.29 611.032 484.782C603.774 493.357 596.195 501.698 588.264 509.833Z" fill="#4C73AE"/>
<path d="M600.938 454.756C601.464 451.361 601.962 447.937 602.401 444.513C602.752 445.83 603.074 447.176 603.396 448.493C602.606 450.6 601.786 452.678 600.938 454.756Z" fill="#4B77B0"/>
<path d="M570.647 345.917C564.092 320.368 552.298 297.366 536.641 277.787C536.699 277.846 536.787 277.875 536.845 277.933C552.415 297.453 564.121 320.427 570.618 345.859C570.647 345.888 570.647 345.917 570.647 345.917ZM568.218 445.127C568.218 445.039 568.218 444.922 568.247 444.805C575.242 422.066 577.993 397.688 575.476 372.753C577.993 397.834 575.33 422.3 568.218 445.127Z" fill="#437DC0"/>
<path d="M501.112 201.99C488.762 198.536 476.177 195.61 463.388 193.298C462.101 191.952 460.842 190.635 459.555 189.318C467.017 187.737 474.422 186.333 481.679 185.104C488.264 190.547 494.761 196.166 501.112 201.99Z" fill="#4C73AE"/>
<path d="M438.308 168.51C427.538 158.501 416.856 149.37 406.643 141.118C408.779 139.654 410.857 138.249 412.935 136.874C427.801 145.8 442.668 155.545 457.272 166.169C450.95 166.842 444.629 167.603 438.308 168.51Z" fill="#4B77B0"/>
<path d="M459.555 189.318C452.473 182.031 445.362 175.095 438.309 168.51C444.63 167.603 450.951 166.813 457.243 166.14C465.496 172.168 473.661 178.49 481.68 185.074C474.422 186.333 467.018 187.738 459.555 189.318Z" fill="#4C76AF"/>
<path d="M573.925 361.458C573.896 361.341 573.896 361.194 573.867 361.077C573.018 355.927 571.935 350.893 570.648 345.918C570.648 345.889 570.648 345.889 570.648 345.859C571.935 350.834 573.018 355.897 573.867 361.019C573.896 361.194 573.925 361.312 573.925 361.458ZM568.014 449.605C568.072 448.113 568.16 446.62 568.219 445.128C575.33 422.33 578.022 397.835 575.447 372.784C575.271 371.028 575.067 369.272 574.833 367.487C580.803 379.983 586.012 392.684 590.519 405.415C583.993 420.369 576.559 435.207 568.014 449.605ZM591.836 475.388C595.084 468.569 598.128 461.692 600.937 454.785C600.147 459.76 599.269 464.706 598.303 469.652C596.167 471.554 594.031 473.486 591.836 475.388ZM547.586 556.571C548.991 552.181 550.337 547.703 551.625 543.196C564.619 532.719 576.823 521.54 588.265 509.804C584.197 523.325 579.486 536.494 574.335 549.371C565.672 551.947 556.746 554.376 547.586 556.571ZM531.198 634.329C526.662 633.685 521.979 632.983 517.209 632.222C525.052 615.979 532.924 597.923 540.065 578.432C548.991 575.242 557.742 571.789 566.346 568.13C555.869 591.513 543.87 613.667 531.198 634.329ZM475.301 712.702C474.072 712.204 472.872 711.677 471.643 711.151C478.871 700.791 495.904 675.037 513.697 639.362C518.497 639.479 523.238 639.538 527.979 639.567C510.829 666.872 492.655 691.455 475.301 712.702Z" fill="#4979B5"/>
<path d="M551.625 543.195C552.005 541.878 552.386 540.591 552.737 539.245C561.107 528.27 568.979 516.769 576.179 504.653C581.915 495.054 587.095 485.279 591.836 475.358C594.031 473.456 596.196 471.524 598.303 469.593C595.611 483.23 592.245 496.663 588.265 509.803C576.823 521.539 564.619 532.748 551.625 543.195Z" fill="#4B77B1"/>
<path d="M562.014 499.415C564.999 483.172 567.106 466.52 567.984 449.605C576.529 435.206 583.992 420.369 590.518 405.443C595.142 418.496 599.064 431.548 602.4 444.542C601.961 447.966 601.463 451.39 600.937 454.785C598.127 461.692 595.084 468.569 591.864 475.388C582.412 483.641 572.461 491.718 562.014 499.415Z" fill="#4A78B1"/>
<path d="M552.766 539.274C556.365 526.368 559.526 513.052 562.014 499.444C572.461 491.747 582.412 483.67 591.835 475.417C587.094 485.338 581.885 495.113 576.149 504.712C568.979 516.769 561.136 528.3 552.766 539.274Z" fill="#4B78B1"/>
<path d="M393.533 130.817C384.314 123.793 375.652 117.56 367.809 112.146C377.817 117.15 387.972 122.505 398.186 128.271C396.635 129.119 395.084 129.968 393.533 130.817Z" fill="#4979B5"/>
<path d="M406.642 141.118C402.164 137.518 397.804 134.094 393.531 130.817C395.082 129.939 396.633 129.119 398.184 128.271C403.101 131.051 408.018 133.919 412.934 136.875C410.856 138.25 408.749 139.655 406.642 141.118Z" fill="#4A78B1"/>
<path d="M607.052 361.457C605.414 356.658 603.687 351.887 601.872 347.176C601.141 341.966 600.321 336.786 599.414 331.636C603.745 336.113 607.93 340.62 611.998 345.156C610.447 350.541 608.808 355.985 607.052 361.457ZM574.802 367.486C574.714 367.281 574.626 367.076 574.509 366.871C574.275 365.232 574.187 363.594 573.982 361.925C574.304 363.798 574.568 365.642 574.802 367.486ZM626.163 442.405C624.202 428.68 621.685 414.925 618.466 401.229C621.773 388.264 624.495 375.212 626.689 362.189C638.747 376.792 649.487 391.337 658.911 405.063C649.195 417.12 638.279 429.733 626.163 442.405ZM622.066 633.421C626.836 604.068 630.494 570.822 631.343 535.587C643.371 528.621 654.901 521.451 665.905 514.194C655.867 518.964 644.278 524.144 631.46 529.382C631.489 528.065 631.489 526.719 631.518 525.402V516.067C631.401 498.595 630.494 480.743 628.65 462.716C641.351 445.917 652.823 428.651 663.154 411.384C685.981 445.625 700.234 474.217 705.735 485.923H705.765C706.174 485.601 706.584 485.279 707.023 484.957C733.977 554.17 743.283 607.521 743.283 607.521C743.283 607.521 693.678 624.085 622.066 633.421Z" fill="#75BAE7"/>
<path d="M628.65 462.715C627.977 455.984 627.157 449.195 626.191 442.435C638.278 429.733 649.223 417.12 658.91 405.092C660.344 407.228 661.778 409.306 663.154 411.384C652.794 428.65 641.322 445.917 628.65 462.715Z" fill="#7DA6C0"/>
<path d="M618.466 401.229C615.335 387.884 611.56 374.597 607.053 361.428C608.809 355.955 610.447 350.541 611.969 345.127C617.061 350.804 621.978 356.511 626.661 362.189C624.495 375.212 621.773 388.264 618.466 401.229Z" fill="#7CABC4"/>
<path d="M601.872 347.146C598.917 339.479 595.697 331.87 592.215 324.349C594.644 326.748 597.044 329.177 599.385 331.636C600.321 336.757 601.141 341.966 601.872 347.146ZM574.831 367.486C574.568 365.613 574.304 363.769 573.982 361.925C573.953 361.75 573.953 361.604 573.924 361.457C574.275 363.477 574.568 365.467 574.831 367.486Z" fill="#7BB2CE"/>
<path d="M604.331 369.71C603.746 362.13 602.927 354.609 601.873 347.146C603.717 351.887 605.443 356.658 607.082 361.428C606.175 364.179 605.268 366.959 604.331 369.71ZM606.556 461.984C605.56 457.506 604.536 453.029 603.424 448.522C609.453 432.953 614.428 417.149 618.496 401.258C621.715 414.955 624.261 428.709 626.193 442.435C619.93 448.932 613.404 455.516 606.556 461.984ZM617.471 534.884C616.125 519.11 614.047 502.253 611.033 484.782C617.15 477.524 623.032 470.149 628.68 462.686C630.524 480.714 631.402 498.566 631.519 516.037V525.373C631.519 526.69 631.49 528.036 631.49 529.353C626.954 531.197 622.271 533.07 617.471 534.884ZM618.086 633.919C619.198 620.544 621.247 586.538 618.086 543.02C622.564 540.591 626.983 538.103 631.343 535.587C630.495 570.822 626.836 604.068 622.066 633.421C620.749 633.597 619.432 633.772 618.086 633.919Z" fill="#3AA1DA"/>
<path d="M611.003 484.782C609.686 477.29 608.223 469.651 606.525 461.984C613.374 455.487 619.929 448.931 626.163 442.405C627.128 449.166 627.948 455.955 628.621 462.686C623.002 470.178 617.12 477.553 611.003 484.782Z" fill="#3C9FD7"/>
<path d="M603.395 448.522C603.073 447.205 602.722 445.859 602.371 444.542C604.156 430.845 605.181 416.944 605.385 402.838C605.415 401.638 605.415 400.439 605.415 399.239V396.722C605.385 387.65 604.976 378.665 604.303 369.739C605.239 366.988 606.146 364.208 607.024 361.457C611.531 374.626 615.306 387.942 618.438 401.258C614.399 417.149 609.424 432.952 603.395 448.522Z" fill="#3BA0D8"/>
<path d="M570.647 345.859C564.121 320.427 552.415 297.454 536.875 277.934C547.44 285.279 557.536 293.122 567.136 301.287C569.067 315.862 570.325 330.758 570.647 345.859Z" fill="#3AA1DA"/>
<path d="M590.518 405.444C585.982 392.684 580.772 379.983 574.832 367.516C574.568 365.497 574.246 363.477 573.924 361.458C573.895 361.341 573.895 361.165 573.866 361.048C572.988 355.897 571.934 350.835 570.647 345.889C570.295 330.788 569.066 315.892 567.135 301.317C575.885 308.751 584.255 316.477 592.215 324.379C595.698 331.9 598.917 339.509 601.873 347.176C602.897 354.639 603.717 362.16 604.302 369.769C600.263 381.592 595.698 393.562 590.518 405.444Z" fill="#3BA0D9"/>
<path d="M602.399 444.512C599.092 431.548 595.142 418.466 590.518 405.414C595.698 393.532 600.263 381.562 604.302 369.71C605.004 378.636 605.384 387.62 605.414 396.693V399.209C605.414 400.409 605.384 401.609 605.384 402.838C605.209 416.915 604.155 430.816 602.399 444.512Z" fill="#3CA0D9"/>
<path d="M352.15 189.581C350.336 189.054 348.551 188.528 346.736 188.001C352.385 182.909 358.062 178.021 363.74 173.339C372.168 174.744 380.596 176.382 389.054 178.255C376.704 181.445 364.354 185.191 352.15 189.581Z" fill="#7CABC4"/>
<path d="M353.76 190.05C353.233 189.874 352.677 189.728 352.15 189.582C364.354 185.192 376.704 181.446 389.083 178.256C401.843 181.095 414.544 184.519 427.187 188.528C419.139 187.884 411.032 187.474 402.867 187.357C402.428 187.328 401.96 187.328 401.521 187.328H394.644C380.831 187.504 367.222 188.44 353.76 190.05Z" fill="#7CAAC1"/>
<path d="M317.94 180.626C303.6 177.348 289.787 174.773 276.793 172.753C277.876 170.441 278.988 168.188 280.1 165.935C297.425 166.227 315.189 167.222 333.1 169.154C328.008 172.87 322.945 176.675 317.94 180.626Z" fill="#7BB2CE"/>
<path d="M346.737 188.001C336.962 185.221 327.334 182.763 317.91 180.626C322.915 176.676 327.977 172.842 333.07 169.154C343.254 170.237 353.468 171.642 363.74 173.369C358.092 178.022 352.414 182.909 346.737 188.001Z" fill="#7BAEC7"/>
<path d="M260.316 170.412C248.844 168.92 238.191 167.866 228.68 167.134C239.83 166.461 251.331 166.052 263.037 165.905C262.159 167.369 261.223 168.89 260.316 170.412Z" fill="#3AA1DA"/>
<path d="M276.793 172.754C271.145 171.876 265.643 171.086 260.316 170.384C261.224 168.891 262.16 167.369 263.067 165.877C263.506 165.848 263.916 165.848 264.355 165.848H274.891C276.647 165.877 278.373 165.877 280.129 165.906C278.988 168.16 277.905 170.442 276.793 172.754Z" fill="#3BA0D9"/>
<path d="M339.1 604.8C332.193 601.903 325.345 598.8 318.555 595.464C318.116 594.967 317.677 594.469 317.238 593.972C329.764 596.869 342.553 599.21 355.517 600.878C350.016 602.283 344.543 603.571 339.1 604.8Z" fill="#7DA6C0"/>
<path d="M424.465 630.114C410.681 627.48 396.897 624.231 383.201 620.251C397.424 617.442 411.676 613.93 425.782 609.628C431.372 611.53 436.903 613.315 442.434 614.983C436.435 620.28 430.436 625.314 424.465 630.114Z" fill="#7CABC4"/>
<path d="M383.201 620.281C368.363 616.008 353.613 610.857 339.098 604.8C344.541 603.6 350.014 602.283 355.516 600.878C369.182 602.634 383.054 603.687 397.131 603.863C398.448 603.892 399.794 603.892 401.111 603.892H402.808C405.091 603.892 407.374 603.863 409.657 603.804C415.012 605.853 420.397 607.814 425.753 609.658C411.647 613.96 397.424 617.471 383.201 620.281Z" fill="#7CAAC1"/>
<path d="M513.696 639.392C493.24 638.894 472.227 637.343 451.039 634.475C456.775 630.495 462.482 626.398 468.13 622.125C485.25 626.398 501.756 629.705 517.208 632.192C516.038 634.621 514.867 637.05 513.696 639.392Z" fill="#7BB2CE"/>
<path d="M451.04 634.445C442.202 633.245 433.334 631.811 424.467 630.114C430.466 625.314 436.436 620.251 442.436 615.013C451.098 617.647 459.702 620.017 468.131 622.124C462.483 626.368 456.805 630.494 451.04 634.445Z" fill="#7BAEC7"/>
<path d="M318.583 595.463C317.09 594.732 315.569 593.971 314.047 593.21C315.1 593.444 316.183 593.707 317.266 593.971C317.705 594.468 318.144 594.966 318.583 595.463Z" fill="#3C9FD7"/>
<path d="M529.53 639.567C529.003 639.567 528.476 639.567 527.949 639.567C529.032 637.811 530.115 636.084 531.198 634.328C544.952 636.23 557.624 637.547 568.775 638.425V638.455C556.044 639.157 542.933 639.567 529.53 639.567Z" fill="#3AA1DA"/>
<path d="M527.948 639.567C523.236 639.538 518.466 639.479 513.695 639.362C514.866 637.021 516.037 634.621 517.207 632.192C521.977 632.953 526.66 633.656 531.196 634.299C530.113 636.085 529.03 637.811 527.948 639.567Z" fill="#3BA0D9"/>
<path d="M136.347 376.939C114.369 343.693 100.614 316.066 95.2587 304.624C92.8882 306.409 90.5762 308.194 88.2935 309.95C64.4129 245.917 56.043 197.893 56.043 197.893C56.043 197.893 103.98 181.884 173.69 172.461C169.564 198.39 166.315 227.246 165.115 257.77C154.96 263.74 145.127 269.856 135.733 276.061C144.395 271.934 154.199 267.515 164.94 263.037C164.267 285.367 164.676 308.516 166.696 332.045C155.663 346.795 145.566 361.867 136.347 376.939ZM214.135 421.305C213.813 419.315 213.52 417.325 213.228 415.364C213.315 415.598 213.433 415.862 213.52 416.096C213.784 417.852 213.872 419.549 214.135 421.305ZM169.886 422.915C159.057 409.511 149.371 396.224 140.825 383.611C149.253 373.31 158.56 362.598 168.715 351.8C170.5 366.227 172.9 380.685 176.061 395.112C173.69 404.39 171.641 413.667 169.886 422.915ZM191.044 447.644C188.996 445.39 187.006 443.166 185.045 440.913C185.63 439.011 186.216 437.108 186.83 435.206C188.147 439.391 189.552 443.517 191.044 447.644Z" fill="#75BAE7"/>
<path d="M140.796 383.612C139.274 381.358 137.782 379.134 136.318 376.939C145.537 361.838 155.634 346.796 166.637 332.075C167.193 338.631 167.867 345.186 168.686 351.8C158.56 362.57 149.224 373.31 140.796 383.612Z" fill="#7DA6C0"/>
<path d="M185.017 440.942C179.749 434.943 174.686 428.914 169.857 422.914C171.613 413.637 173.691 404.36 176.032 395.112C178.959 408.516 182.5 421.919 186.773 435.206C186.217 437.137 185.602 439.04 185.017 440.942Z" fill="#7CABC4"/>
<path d="M214.165 421.51C213.814 419.461 213.521 417.413 213.229 415.364C213.492 417.354 213.814 419.315 214.136 421.305C214.136 421.364 214.165 421.451 214.165 421.51ZM217.56 437.46C216.214 432.25 215.043 426.953 214.165 421.51C215.072 426.953 216.214 432.25 217.56 437.46Z" fill="#7BB2CE"/>
<path d="M165.087 257.799C166.286 227.246 169.535 198.419 173.661 172.49C175.739 172.198 177.846 171.934 179.953 171.642H180.012C178.988 183.699 177.202 212.438 179.163 249.751C174.422 252.414 169.74 255.077 165.087 257.799ZM166.667 332.075C164.647 308.545 164.238 285.396 164.911 263.067C169.623 261.106 174.539 259.116 179.602 257.155C180.626 273.163 182.353 290.576 185.104 308.838C178.695 316.447 172.549 324.202 166.667 332.075ZM176.061 395.112C172.9 380.655 170.501 366.198 168.715 351.8C175.154 344.981 181.914 338.162 188.996 331.372C189.904 336.084 190.899 340.825 191.952 345.595C185.543 361.896 180.305 378.49 176.061 395.112ZM191.923 448.61C191.63 448.288 191.338 447.966 191.045 447.644C189.552 443.517 188.148 439.362 186.801 435.206C187.738 432.25 188.704 429.236 189.728 426.28C190.226 433.772 190.957 441.235 191.923 448.61ZM248.434 501.083C240.152 494.673 232.192 488.001 224.583 481.124C223.764 472.373 223.208 463.535 222.974 454.609C229.236 471.554 237.87 487.152 248.434 501.083Z" fill="#3AA1DA"/>
<path d="M168.715 351.8C167.895 345.215 167.222 338.63 166.666 332.075C172.548 324.202 178.694 316.447 185.133 308.809C186.245 316.213 187.532 323.734 189.025 331.372C181.913 338.162 175.124 344.981 168.715 351.8Z" fill="#3C9FD7"/>
<path d="M186.801 435.206C182.528 421.949 178.987 408.546 176.061 395.113C180.304 378.461 185.543 361.897 191.952 345.596C192.215 346.825 192.478 348.054 192.8 349.312C190.518 364.969 189.171 380.919 188.937 397.132C188.937 397.864 188.908 398.595 188.908 399.327V404.653C188.967 411.882 189.23 419.11 189.727 426.251C188.703 429.266 187.737 432.251 186.801 435.206Z" fill="#3BA0D8"/>
<path d="M224.582 481.124C212.934 470.618 202.018 459.673 191.892 448.61C190.956 441.206 190.224 433.773 189.727 426.251C193.853 414.019 198.536 401.698 203.891 389.465C206.701 398.098 209.803 406.761 213.256 415.335C213.549 417.384 213.841 419.433 214.192 421.481C215.1 426.895 216.241 432.222 217.587 437.431C219.109 443.284 220.924 449.02 222.972 454.58C223.206 463.536 223.762 472.374 224.582 481.124Z" fill="#3BA0D9"/>
<path d="M189.728 426.281C189.259 419.14 188.967 411.911 188.908 404.683V399.356C188.937 398.625 188.937 397.893 188.937 397.162C189.172 380.978 190.489 364.999 192.771 349.342C195.844 362.599 199.502 376.032 203.863 389.494C198.537 401.727 193.854 414.048 189.728 426.281Z" fill="#3CA0D9"/>
<path d="M560.522 263.359C556.747 260.082 552.884 256.833 548.962 253.643C545.743 249.487 542.407 245.42 539.041 241.41C545.011 243.108 550.864 244.922 556.659 246.795C558.005 252.238 559.293 257.77 560.522 263.359ZM617.589 323.968C609.044 313.081 599.942 302.399 590.314 292.156C586.685 279.25 582.529 266.608 577.906 254.258C595.67 260.872 612.205 268.071 627.247 275.27C624.847 290.518 621.716 306.906 617.589 323.968ZM707.025 484.957C696.869 458.911 684.227 430.611 668.628 402.048C675.594 390.02 682.003 377.992 687.914 366.169C681.622 375.358 674.159 385.659 665.643 396.605C655.078 377.699 643.197 358.735 629.881 340.298C632.456 319.403 633.773 298.712 634.095 278.577C671.028 296.839 697.689 314.486 708.283 321.861C709.132 319.871 709.922 317.91 710.741 315.949C765.673 360.491 798.86 399.795 800.001 401.17V401.258C798.772 402.575 763.975 441.556 707.025 484.957Z" fill="#585252"/>
<path d="M668.628 402.048C667.633 400.205 666.638 398.419 665.613 396.605C674.13 385.63 681.592 375.358 687.884 366.169C682.002 377.992 675.593 389.991 668.628 402.048Z" fill="#5A4A45"/>
<path d="M476.939 208.195C465.35 202.634 453.526 197.747 441.615 193.474C444.688 192.713 447.761 191.982 450.805 191.279C455.019 191.894 459.204 192.596 463.389 193.328C467.954 198.127 472.49 203.073 476.939 208.195ZM556.658 246.825C550.892 244.952 545.01 243.138 539.04 241.44C527.158 227.364 514.428 214.223 501.112 202.02C517.383 206.556 533.275 212.028 548.668 218.174C551.478 227.393 554.17 236.963 556.658 246.825ZM627.246 275.271C612.204 268.043 595.639 260.843 577.904 254.259C574.276 244.513 570.354 234.973 566.198 225.608C588.528 235.529 609.745 246.825 629.587 258.765C628.914 264.092 628.124 269.594 627.246 275.271ZM708.253 321.862C697.659 314.487 670.998 296.84 634.065 278.607C634.153 272.871 634.182 267.165 634.123 261.516C662.745 279.076 688.498 297.952 710.682 315.921C709.891 317.882 709.101 319.872 708.253 321.862Z" fill="#5A4A45"/>
<path d="M629.85 340.298C625.899 334.796 621.773 329.353 617.559 323.968C621.685 306.936 624.846 290.518 627.216 275.271C629.528 276.353 631.811 277.465 634.064 278.578C633.742 298.683 632.455 319.403 629.85 340.298Z" fill="#5A4C47"/>
<path d="M634.065 278.577C631.811 277.465 629.558 276.382 627.217 275.27C628.124 269.593 628.885 264.091 629.587 258.765C631.138 259.672 632.602 260.579 634.123 261.516C634.182 267.135 634.182 272.841 634.065 278.577Z" fill="#5A4C45"/>
<path d="M441.615 193.445C436.816 191.718 431.987 190.079 427.158 188.528C435.118 189.172 442.962 190.079 450.775 191.221C447.761 191.952 444.688 192.684 441.615 193.445Z" fill="#5A4C45"/>
<path d="M590.313 292.156C580.919 282.148 570.998 272.519 560.521 263.388C559.321 257.799 558.004 252.268 556.658 246.854C563.916 249.224 570.998 251.682 577.905 254.258C582.529 266.608 586.685 279.25 590.313 292.156Z" fill="#594E49"/>
<path d="M577.904 254.229C570.998 251.653 563.886 249.166 556.657 246.795C554.199 236.933 551.477 227.363 548.668 218.145C554.58 220.544 560.433 223.003 566.227 225.578C570.354 234.943 574.275 244.513 577.904 254.229Z" fill="#594D47"/>
<path d="M548.961 253.672C542.552 248.492 535.967 243.517 529.178 238.747C532.485 239.625 535.762 240.503 539.04 241.439C542.406 245.42 545.713 249.517 548.961 253.672Z" fill="#4C4B4F"/>
<path d="M539.04 241.44C535.762 240.503 532.484 239.596 529.177 238.718C521.773 233.509 514.135 228.533 506.233 223.822C496.634 218.115 486.889 212.906 476.968 208.194C472.49 203.102 467.983 198.127 463.418 193.327C476.207 195.639 488.82 198.566 501.141 202.019C514.428 214.223 527.158 227.334 539.04 241.44Z" fill="#4C4A4E"/>
<path d="M536.669 277.787C510.857 259.848 482.177 244.864 450.658 234.972C419.169 225.11 387.065 221.1 355.663 221.1C345.449 221.1 335.323 221.539 325.285 222.3C337.43 217.383 350.307 213.667 363.798 211.413C373.017 209.833 382.177 209.248 391.308 209.131C391.513 209.043 391.688 208.955 391.893 208.896C392.566 208.867 393.239 208.867 393.913 208.867C398.244 208.867 402.546 209.043 406.819 209.335C406.994 209.423 407.141 209.482 407.287 209.54C427.685 211.004 447.381 215.891 465.642 223.705C468.744 225.051 471.817 226.456 474.832 227.948C474.861 227.948 474.861 227.978 474.89 227.978C487.445 234.182 499.239 241.82 510.038 250.687C510.067 250.746 510.126 250.805 510.155 250.863C519.871 258.882 528.768 267.925 536.669 277.787Z" fill="#585252"/>
<path d="M406.818 209.394C402.545 209.072 398.243 208.926 393.912 208.926C393.239 208.926 392.566 208.955 391.893 208.955C394.351 208.019 396.838 207.111 399.326 206.233C401.814 207.228 404.301 208.282 406.818 209.394ZM474.889 228.007C474.86 228.007 474.86 228.007 474.831 228.007C471.816 226.514 468.744 225.08 465.641 223.763C468.773 225.08 471.846 226.485 474.889 228.007Z" fill="#5A4A45"/>
<path d="M340.006 194.176C340.942 193.298 341.908 192.42 342.844 191.571C344.981 191.249 347.088 190.957 349.254 190.664C346.151 191.776 343.079 192.947 340.006 194.176ZM325.285 222.329C337.43 217.383 350.307 213.696 363.798 211.443C373.251 209.862 382.616 209.013 391.893 208.926C391.688 209.013 391.484 209.072 391.279 209.16C382.177 209.277 373.017 209.891 363.769 211.472C350.307 213.725 337.43 217.413 325.285 222.329Z" fill="#5A4C47"/>
<path d="M310.945 223.705C320.34 213.257 330.114 203.395 340.006 194.176C343.079 192.976 346.152 191.776 349.225 190.664C350.717 190.46 352.239 190.255 353.761 190.079C368.803 194.586 384.08 199.942 399.298 206.204C396.81 207.082 394.352 207.99 391.864 208.926C382.587 209.014 373.222 209.833 363.769 211.443C350.278 213.726 337.401 217.413 325.256 222.33C320.486 222.71 315.686 223.149 310.945 223.705Z" fill="#5A4C45"/>
<path d="M251.303 234.445C253.82 227.158 256.483 220.017 259.175 213.081C269.886 209.189 280.832 205.677 291.952 202.546C281.827 211.765 272.052 221.481 262.716 231.782C258.882 232.631 255.078 233.538 251.303 234.445Z" fill="#594E49"/>
<path d="M262.744 231.811C272.08 221.51 281.855 211.794 291.98 202.575C308.515 197.922 325.518 194.176 342.844 191.571C341.907 192.449 340.941 193.327 340.005 194.176C325.284 200.029 310.798 206.848 296.663 214.75C288.205 219.491 280.011 224.524 272.08 229.85C268.948 230.465 265.817 231.109 262.744 231.811Z" fill="#594D47"/>
<path d="M272.08 229.821C280.011 224.495 288.205 219.461 296.663 214.749C310.798 206.848 325.285 200.029 340.005 194.176C330.113 203.394 320.339 213.228 310.945 223.705C297.687 225.197 284.723 227.304 272.08 229.821Z" fill="#5A4D47"/>
<path d="M179.601 257.156C179.425 254.668 179.308 252.21 179.162 249.781C195.814 240.562 213.315 231.841 231.576 223.998C228.796 229.939 226.104 235.938 223.528 242.026C207.901 246.767 193.151 251.917 179.601 257.156Z" fill="#4C4B4F"/>
<path d="M223.559 242.026C226.134 235.938 228.826 229.939 231.607 223.998C240.65 220.135 249.839 216.477 259.204 213.082C256.511 220.018 253.848 227.129 251.331 234.446C241.791 236.787 232.543 239.333 223.559 242.026Z" fill="#4C4A4E"/>
<path d="M536.875 277.934C536.817 277.875 536.729 277.846 536.671 277.787C528.769 267.896 519.872 258.882 510.185 250.892C510.156 250.834 510.098 250.775 510.068 250.717C519.902 258.794 528.886 267.925 536.875 277.934Z" fill="#4C4B4F"/>
<path d="M465.671 223.735C447.41 215.921 427.714 211.033 407.316 209.57C407.14 209.512 406.994 209.453 406.848 209.365C427.392 210.858 447.205 215.833 465.671 223.735ZM510.067 250.717C499.268 241.821 487.474 234.212 474.919 227.978C482.001 228.885 489.025 229.997 495.99 231.256C500.79 237.577 505.501 244.074 510.067 250.717ZM562.247 271.818C557.974 265.613 553.555 259.555 548.961 253.673C552.882 256.834 556.716 260.082 560.491 263.36C561.106 266.169 561.691 268.979 562.247 271.818ZM611.998 345.157C607.93 340.621 603.716 336.114 599.414 331.636C597.014 318.233 593.942 305.063 590.313 292.157C599.97 302.429 609.043 313.053 617.588 323.969C615.891 330.905 614.018 337.987 611.998 345.157ZM658.911 405.092C649.517 391.338 638.747 376.793 626.69 362.219C627.919 354.902 628.972 347.586 629.88 340.299C643.195 358.736 655.048 377.7 665.642 396.605C663.447 399.386 661.223 402.224 658.911 405.092ZM705.765 485.924H705.736C700.234 474.217 685.981 445.625 663.154 411.385C665.027 408.282 666.842 405.18 668.627 402.049C684.225 430.612 696.868 458.912 707.023 484.958C706.613 485.28 706.175 485.602 705.765 485.924Z" fill="#4F4F51"/>
<path d="M663.156 411.385C661.751 409.307 660.346 407.2 658.912 405.092C661.224 402.224 663.448 399.386 665.643 396.605C666.667 398.449 667.663 400.234 668.658 402.049C666.843 405.151 665.029 408.282 663.156 411.385Z" fill="#504D4F"/>
<path d="M495.961 231.285C488.996 229.997 482.001 228.914 474.89 228.007C471.875 226.514 468.773 225.08 465.642 223.734C447.204 215.832 427.362 210.857 406.818 209.365C404.331 208.282 401.814 207.228 399.326 206.204C413.432 201.17 427.626 196.985 441.644 193.444C453.555 197.746 465.349 202.634 476.967 208.165C483.435 215.598 489.786 223.266 495.961 231.285Z" fill="#504D4F"/>
<path d="M626.689 362.189C622.007 356.512 617.09 350.805 611.998 345.128C614.047 337.987 615.89 330.905 617.588 323.939C621.802 329.324 625.899 334.768 629.85 340.27C628.972 347.557 627.918 354.873 626.689 362.189Z" fill="#4F4E4F"/>
<path d="M399.326 206.204C384.108 199.912 368.802 194.586 353.789 190.079C367.251 188.44 380.86 187.504 394.673 187.387H401.55C402.018 187.387 402.457 187.387 402.926 187.416C411.061 187.533 419.197 187.914 427.216 188.587C432.045 190.138 436.874 191.777 441.673 193.503C427.597 196.957 413.432 201.171 399.326 206.204Z" fill="#4F4E4F"/>
<path d="M599.386 331.636C597.015 329.207 594.616 326.778 592.216 324.349C588.411 316.154 584.285 308.048 579.807 300.029C574.335 290.284 568.482 280.86 562.248 271.817C561.692 268.978 561.107 266.169 560.492 263.359C570.969 272.519 580.89 282.148 590.284 292.127C593.943 305.063 596.986 318.232 599.386 331.636Z" fill="#4E4E4F"/>
<path d="M567.134 301.288C557.535 293.123 547.439 285.28 536.874 277.934C528.884 267.896 519.9 258.795 510.067 250.717C505.531 244.045 500.819 237.577 495.961 231.285C507.257 233.334 518.349 235.88 529.177 238.719C535.967 243.489 542.551 248.493 548.961 253.644C553.555 259.526 558.004 265.584 562.276 271.818C564.149 281.446 565.818 291.309 567.134 301.288Z" fill="#4C4D50"/>
<path d="M529.178 238.718C518.35 235.879 507.258 233.363 495.962 231.285C489.787 223.266 483.436 215.569 476.939 208.165C486.86 212.906 496.635 218.115 506.205 223.822C514.136 228.534 521.774 233.509 529.178 238.718Z" fill="#4C4D50"/>
<path d="M592.216 324.349C584.256 316.476 575.915 308.75 567.135 301.288C565.818 291.279 564.15 281.446 562.248 271.817C568.482 280.86 574.335 290.284 579.807 300.029C584.285 308.048 588.411 316.125 592.216 324.349Z" fill="#4C4D51"/>
<path d="M135.703 276.09C145.127 269.915 154.931 263.769 165.115 257.828C165.027 259.555 164.998 261.34 164.91 263.067C154.17 267.544 144.366 271.963 135.703 276.09Z" fill="#4F4F51"/>
<path d="M164.91 263.067C164.969 261.311 165.027 259.555 165.086 257.799C169.71 255.107 174.421 252.414 179.162 249.78C179.28 252.209 179.426 254.668 179.601 257.155C174.539 259.116 169.622 261.106 164.91 263.067Z" fill="#4C4D50"/>
<path d="M394.381 573.632C376.324 573.632 358.706 570.91 341.966 565.906C339.04 565.701 336.142 565.438 333.245 565.145C330.904 563.594 328.533 562.014 326.221 560.404C303.394 551.215 282.616 537.519 265.203 520.223C265.174 520.164 265.174 520.135 265.144 520.106C259.262 514.223 253.731 507.902 248.668 501.259C278.402 524.232 312.32 543.635 350.365 555.546C378.109 564.209 406.292 568.364 434.094 569.242C430.845 569.974 427.568 570.589 424.29 571.145C414.193 572.813 404.214 573.632 394.381 573.632Z" fill="#585252"/>
<path d="M383.407 592.771C366.287 584.928 349.401 575.768 333.217 565.115C336.114 565.408 339.011 565.642 341.909 565.876C358.648 570.881 376.295 573.602 394.352 573.602C404.215 573.602 414.194 572.783 424.232 571.085C427.539 570.529 430.817 569.886 434.036 569.154C436.202 569.212 438.338 569.271 440.504 569.3C421.862 578.841 402.634 586.538 383.407 592.771Z" fill="#5A4A45"/>
<path d="M452.824 600.322C456.043 599.093 459.263 597.805 462.453 596.459C461.458 597.425 460.463 598.391 459.497 599.327C457.273 599.678 455.048 600 452.824 600.322Z" fill="#5A4C47"/>
<path d="M409.687 603.805C400.907 600.439 392.157 596.781 383.436 592.772C402.663 586.538 421.89 578.842 440.532 569.33C442.142 569.36 443.752 569.36 445.361 569.36C460.521 569.36 475.534 568.423 490.254 566.755C481.328 577.232 471.993 587.124 462.481 596.43C459.292 597.776 456.072 599.035 452.853 600.293C438.659 602.283 424.261 603.483 409.687 603.805Z" fill="#5A4C45"/>
<path d="M507.902 588.733C517.853 579.397 527.452 569.506 536.553 559.058C540.27 558.268 543.957 557.419 547.586 556.541C545.187 564.004 542.699 571.291 540.065 578.402C529.559 582.236 518.789 585.689 507.902 588.733Z" fill="#594E49"/>
<path d="M459.467 599.327C460.462 598.39 461.457 597.425 462.423 596.459C475.124 591.162 487.679 585.133 499.912 578.256C509.569 572.871 518.905 567.047 527.86 560.872C530.757 560.287 533.655 559.701 536.493 559.087C527.392 569.505 517.793 579.397 507.843 588.762C492.127 593.181 475.943 596.781 459.467 599.327Z" fill="#594D47"/>
<path d="M462.453 596.459C471.964 587.152 481.3 577.261 490.226 566.784C503.044 565.32 515.658 563.301 527.92 560.872C518.935 567.047 509.629 572.842 499.971 578.256C487.68 585.104 475.154 591.162 462.453 596.459Z" fill="#5A4D47"/>
<path d="M265.203 520.223C259.203 514.252 253.614 507.873 248.463 501.083C248.521 501.142 248.58 501.2 248.668 501.259C253.731 507.931 259.262 514.223 265.144 520.106C265.144 520.135 265.174 520.164 265.203 520.223Z" fill="#4C4B4F"/>
<path d="M566.344 568.16C569.095 561.985 571.787 555.751 574.304 549.43C589.639 544.923 604.096 539.948 617.441 534.914C617.675 537.665 617.88 540.387 618.085 543.079C601.638 552.034 584.342 560.521 566.344 568.16Z" fill="#4C4B4F"/>
<path d="M540.064 578.432C542.669 571.32 545.186 564.033 547.556 556.57C556.746 554.376 565.672 551.976 574.334 549.43C571.788 555.751 569.125 561.985 566.345 568.16C557.741 571.788 548.99 575.242 540.064 578.432Z" fill="#4C4A4E"/>
<path d="M160.638 512.145C124.963 494.352 99.2391 477.319 88.8499 470.12C88.3523 471.349 87.8256 472.578 87.2988 473.807C33.4211 429.821 0.995025 391.367 0 390.167V390.108C1.02429 388.967 33.9772 352.063 88.2645 309.979C98.0392 336.231 110.448 365.174 125.958 394.615C120.135 404.829 114.691 415.042 109.658 425.11H109.687C115.13 417.237 121.393 408.516 128.446 399.298C139.011 418.993 150.951 438.806 164.472 458.18C162.277 476.383 161.048 494.44 160.638 512.145ZM212.643 535.148C196.547 528.943 181.534 522.3 167.808 515.657C169.944 502.517 172.666 488.557 176.061 474.159C184.811 485.718 194.147 497.073 204.068 508.019C206.672 517.208 209.541 526.251 212.643 535.148ZM243.313 545.976C240.445 545.069 237.606 544.132 234.826 543.167C234.387 541.264 233.948 539.333 233.509 537.372C236.728 540.328 239.977 543.166 243.313 545.976Z" fill="#585252"/>
<path d="M160.433 526.397C133.129 509.306 108.546 491.103 87.2988 473.749C87.7963 472.549 88.3231 471.32 88.8499 470.091C99.2099 477.29 124.963 494.323 160.609 512.116C160.492 516.798 160.433 521.452 160.433 526.076V526.397ZM222.183 560.375C202.341 551.01 183.465 540.621 165.701 529.705C166.345 525.168 167.047 520.486 167.837 515.686C181.563 522.3 196.576 528.944 212.643 535.177C215.599 543.693 218.788 552.122 222.183 560.375ZM274.978 581.855C263.565 577.963 252.385 573.661 241.498 569.037C239.099 560.667 236.875 552.034 234.826 543.196C237.635 544.132 240.445 545.069 243.313 546.005C244.191 546.737 245.04 547.469 245.917 548.2C255.048 560.023 264.794 571.232 274.978 581.855Z" fill="#5A4A45"/>
<path d="M109.658 425.051C114.721 415.013 120.135 404.8 125.959 394.557C126.778 396.108 127.598 397.659 128.417 399.21C121.364 408.487 115.102 417.15 109.658 425.051Z" fill="#5A4A45"/>
<path d="M167.807 515.686C165.378 514.516 162.978 513.316 160.607 512.145C161.046 494.469 162.246 476.383 164.441 458.121C168.216 463.506 172.08 468.861 176.089 474.159C172.665 488.586 169.972 502.517 167.807 515.686Z" fill="#5A4C47"/>
<path d="M165.701 529.675C163.945 528.593 162.16 527.51 160.434 526.398V526.076C160.463 521.452 160.521 516.799 160.638 512.116C163.009 513.287 165.379 514.487 167.838 515.657C167.048 520.457 166.345 525.139 165.701 529.675Z" fill="#5A4C45"/>
<path d="M234.826 543.196C227.247 540.62 219.842 537.957 212.643 535.148C209.541 526.222 206.673 517.179 204.098 507.989C213.375 518.174 223.149 528.007 233.509 537.401C233.919 539.333 234.387 541.264 234.826 543.196Z" fill="#594E49"/>
<path d="M241.498 569.037C234.972 566.286 228.534 563.359 222.183 560.374C218.788 552.121 215.598 543.722 212.643 535.177C219.842 537.957 227.246 540.649 234.826 543.225C236.874 552.034 239.099 560.667 241.498 569.037Z" fill="#594D47"/>
<path d="M314.048 593.21C300.761 590.021 287.738 586.216 274.979 581.885C264.765 571.261 255.049 560.053 245.918 548.2C260.551 560.375 276.208 571.642 293.035 581.651C299.971 585.748 306.966 589.611 314.048 593.21Z" fill="#4C4A4E"/>
<path d="M631.344 535.586C631.402 533.538 631.432 531.46 631.461 529.382C644.308 524.173 655.868 518.964 665.906 514.193V514.223C654.902 521.451 643.372 528.65 631.344 535.586Z" fill="#4F4F51"/>
<path d="M618.085 543.05C617.88 540.357 617.676 537.665 617.441 534.885C622.27 533.07 626.953 531.227 631.46 529.383C631.43 531.461 631.372 533.538 631.342 535.587C627.011 538.104 622.592 540.591 618.085 543.05Z" fill="#4C4D50"/>
<path d="M125.958 394.586C110.476 365.174 98.0676 336.201 88.2637 309.98C90.5464 308.194 92.8584 306.438 95.2289 304.624C100.584 316.067 114.368 343.693 136.318 376.939C132.747 382.821 129.294 388.704 125.958 394.586ZM164.442 458.121C150.95 438.777 139.01 418.935 128.416 399.239C132.308 394.176 136.435 388.938 140.795 383.611C149.341 396.225 159.028 409.511 169.856 422.915C167.632 434.68 165.846 446.415 164.442 458.121ZM204.096 508.019C194.175 497.103 184.81 485.748 176.089 474.159C178.665 463.301 181.62 452.18 185.044 440.942C187.035 443.196 188.995 445.42 191.044 447.644C191.424 448.727 191.805 449.781 192.214 450.893C194.819 470.413 198.887 489.465 204.096 508.019ZM244.541 546.386C244.131 546.269 243.722 546.122 243.312 546.005C240.005 543.196 236.727 540.328 233.508 537.401C232.835 534.387 232.191 531.343 231.606 528.3C235.761 534.475 240.063 540.503 244.541 546.386ZM333.245 565.145C318.202 563.652 303.423 561.253 289.025 558.18C280.479 546.152 272.46 533.48 265.203 520.222C282.615 537.518 303.394 551.185 326.221 560.404C328.533 561.984 330.874 563.565 333.245 565.145Z" fill="#4F4F51"/>
<path d="M245.917 548.17C245.039 547.439 244.19 546.707 243.312 545.976C243.722 546.093 244.161 546.239 244.542 546.356C245.01 547 245.449 547.585 245.917 548.17ZM355.516 600.878C342.552 599.209 329.792 596.868 317.237 593.971C307.433 582.733 297.922 570.793 288.967 558.179C303.365 561.252 318.144 563.652 333.187 565.144C349.37 575.797 366.257 584.928 383.377 592.8C374.1 595.815 364.764 598.507 355.516 600.878Z" fill="#504D4F"/>
<path d="M128.447 399.239C127.598 397.658 126.808 396.137 125.959 394.586C129.295 388.703 132.778 382.85 136.377 376.938C137.811 379.133 139.304 381.358 140.826 383.611C136.465 388.937 132.31 394.176 128.447 399.239Z" fill="#504D4F"/>
<path d="M402.809 603.892H401.111C399.794 603.892 398.448 603.863 397.131 603.863C383.054 603.658 369.183 602.634 355.516 600.878C364.764 598.508 374.099 595.815 383.406 592.801C392.097 596.81 400.906 600.468 409.657 603.834C407.374 603.863 405.121 603.892 402.809 603.892Z" fill="#4F4E4F"/>
<path d="M176.091 474.159C172.111 468.862 168.219 463.506 164.443 458.121C165.848 446.444 167.633 434.68 169.887 422.915C174.715 428.914 179.778 434.914 185.046 440.943C181.622 452.18 178.637 463.301 176.091 474.159Z" fill="#4F4E4F"/>
<path d="M233.508 537.401C223.148 528.036 213.374 518.203 204.097 508.019C198.887 489.464 194.819 470.383 192.215 450.893C198.8 468.744 206.73 486.304 216.271 503.336C221.071 511.94 226.192 520.252 231.606 528.3C232.191 531.343 232.835 534.387 233.508 537.401Z" fill="#4E4E4F"/>
<path d="M288.997 558.18C273.691 554.932 258.825 550.922 244.543 546.386C240.065 540.504 235.734 534.504 231.578 528.3C228.506 513.053 226.106 497.249 224.584 481.153C232.222 488.001 240.153 494.674 248.435 501.112C253.586 507.873 259.176 514.282 265.175 520.252C272.433 533.48 280.452 546.123 288.997 558.18Z" fill="#4C4D50"/>
<path d="M317.268 593.942C316.214 593.708 315.131 593.445 314.048 593.181C306.966 589.581 299.972 585.718 293.036 581.592C276.237 571.583 260.551 560.345 245.918 548.171C245.45 547.556 244.982 546.971 244.514 546.356C258.795 550.863 273.662 554.902 288.968 558.15C297.952 570.793 307.464 582.733 317.268 593.942Z" fill="#4C4D50"/>
<path d="M192.216 450.893C191.835 449.81 191.425 448.757 191.045 447.645C191.338 447.966 191.63 448.288 191.923 448.61C192.011 449.371 192.098 450.132 192.216 450.893Z" fill="#4C4D50"/>
<path d="M231.576 528.27C226.162 520.222 221.07 511.911 216.241 503.336C206.73 486.274 198.77 468.715 192.185 450.892C192.097 450.131 191.98 449.37 191.893 448.609C202.018 459.672 212.905 470.646 224.582 481.123C226.104 497.249 228.533 513.023 231.576 528.27Z" fill="#4C4D51"/>
<rect x="868" y="460" width="2372" height="10" fill="#2884C1"/>
<path d="M886.077 665.078C886.077 695.824 907.486 699.301 918.099 699.301C921.392 699.301 923.405 698.935 923.405 698.935V687.771C923.405 687.771 921.758 688.137 919.197 688.137C912.243 688.137 898.52 685.392 898.52 663.797V618.046H921.575V607.614H898.52V581.078H886.26V607.614H874V618.046H886.077V665.078Z" fill="#2884C1"/>
<path d="M945.265 698.569H957.707V659.771C957.707 653.915 958.439 647.693 960.269 641.837C964.295 628.294 973.993 618.046 986.985 618.046C989.363 618.046 991.559 618.412 991.559 618.412V606.15C991.559 606.15 989.18 605.601 986.619 605.601C972.163 605.601 961.916 616.216 957.524 630.124H957.158C957.158 630.124 957.524 626.83 957.524 622.804V606.516H945.265V698.569Z" fill="#2884C1"/>
<path d="M1004.36 673.497C1004.36 691.797 1020.28 700.765 1035.65 700.765C1058.7 700.765 1066.39 680.817 1066.39 680.817H1066.75C1066.75 680.817 1066.39 683.928 1066.39 688.503V698.569H1078.28V639.641C1078.28 616.582 1066.02 604.32 1043.88 604.32C1023.21 604.32 1011.13 614.752 1011.13 614.752L1016.98 624.268C1016.98 624.268 1027.78 615.484 1042.97 615.484C1056.14 615.484 1065.84 621.523 1065.84 639.275V641.654H1060.72C1044.8 641.654 1004.36 642.386 1004.36 673.497ZM1017.17 672.765C1017.17 652.451 1046.08 651.902 1060.53 651.902H1065.84V655.928C1065.84 671.85 1055.23 690.15 1037.66 690.15C1023.94 690.15 1017.17 681.366 1017.17 672.765Z" fill="#2884C1"/>
<path d="M1108.3 698.569H1120.74V654.464C1120.74 650.072 1121.11 645.863 1122.2 642.02C1126.41 626.83 1139.95 616.033 1155.69 616.033C1173.44 616.033 1175.64 628.843 1175.64 643.301V698.569H1188.08V640.007C1188.08 617.314 1180.03 604.32 1157.34 604.32C1135.56 604.32 1123.85 619.144 1120.56 627.562H1120.19C1120.19 627.562 1120.56 624.268 1120.56 620.242V606.516H1108.3V698.569Z" fill="#2884C1"/>
<path d="M1210.64 687.405C1210.64 687.405 1222.35 700.765 1244.67 700.765C1263.15 700.765 1276.14 689.967 1276.14 674.961C1276.14 644.582 1226.55 650.072 1226.55 629.758C1226.55 619.51 1235.52 615.484 1244.85 615.484C1260.04 615.484 1267.91 623.902 1267.91 623.902L1273.58 614.386C1273.58 614.386 1264.61 604.32 1245.22 604.32C1228.57 604.32 1213.75 613.288 1213.75 629.758C1213.75 659.771 1263.33 654.83 1263.33 674.961C1263.33 684.66 1254.73 689.601 1244.85 689.601C1227.65 689.601 1217.41 678.438 1217.41 678.438L1210.64 687.405Z" fill="#2884C1"/>
<path d="M1304.85 698.569H1317.29V618.046H1340.89V607.614H1317.29V603.222C1317.29 582.725 1330.83 580.163 1337.97 580.163C1340.53 580.163 1342.36 580.529 1342.36 580.529V569.366C1342.36 569.366 1340.16 569 1336.68 569C1326.25 569 1304.85 572.843 1304.85 603.222V607.614H1293.32V618.046H1304.85V698.569Z" fill="#2884C1"/>
<path d="M1353.14 652.085C1353.14 679.902 1374.91 700.765 1401.81 700.765C1428.71 700.765 1450.48 679.902 1450.48 652.085C1450.48 624.817 1428.71 604.32 1401.81 604.32C1374.91 604.32 1353.14 624.817 1353.14 652.085ZM1365.94 652.085C1365.94 631.222 1382.05 615.667 1401.81 615.667C1421.57 615.667 1437.67 631.222 1437.67 652.085C1437.67 673.497 1421.57 689.601 1401.81 689.601C1382.05 689.601 1365.94 673.497 1365.94 652.085Z" fill="#2884C1"/>
<path d="M1475.11 698.569H1487.55V659.771C1487.55 653.915 1488.28 647.693 1490.11 641.837C1494.14 628.294 1503.83 618.046 1516.83 618.046C1519.21 618.046 1521.4 618.412 1521.4 618.412V606.15C1521.4 606.15 1519.02 605.601 1516.46 605.601C1502 605.601 1491.76 616.216 1487.37 630.124H1487C1487 630.124 1487.37 626.83 1487.37 622.804V606.516H1475.11V698.569Z" fill="#2884C1"/>
<path d="M1541.7 698.569H1554.14V655.013C1554.14 650.804 1554.51 646.595 1555.43 642.752C1559.27 628.66 1570.61 615.667 1585.62 615.667C1603 615.667 1605.01 629.209 1605.01 643.118V698.569H1617.46V655.013C1617.46 650.072 1617.82 645.68 1619.1 641.654C1622.58 628.111 1634.11 615.667 1648.2 615.667C1665.03 615.667 1668.14 628.111 1668.14 643.118V698.569H1680.59V640.007C1680.59 617.314 1672.35 604.32 1650.03 604.32C1634.47 604.32 1621.12 614.935 1616.18 627.379H1615.81C1613.07 612.19 1604.28 604.32 1587.26 604.32C1572.99 604.32 1558.35 615.118 1553.96 627.562H1553.6C1553.6 627.562 1553.96 624.268 1553.96 620.242V606.516H1541.7V698.569Z" fill="#2884C1"/>
<path d="M1703.19 673.497C1703.19 691.797 1719.11 700.765 1734.48 700.765C1757.53 700.765 1765.22 680.817 1765.22 680.817H1765.58C1765.58 680.817 1765.22 683.928 1765.22 688.503V698.569H1777.11V639.641C1777.11 616.582 1764.85 604.32 1742.71 604.32C1722.03 604.32 1709.96 614.752 1709.96 614.752L1715.81 624.268C1715.81 624.268 1726.61 615.484 1741.8 615.484C1754.97 615.484 1764.67 621.523 1764.67 639.275V641.654H1759.55C1743.63 641.654 1703.19 642.386 1703.19 673.497ZM1716 672.765C1716 652.451 1744.91 651.902 1759.36 651.902H1764.67V655.928C1764.67 671.85 1754.06 690.15 1736.49 690.15C1722.77 690.15 1716 681.366 1716 672.765Z" fill="#2884C1"/>
<path d="M1810.07 665.078C1810.07 695.824 1831.48 699.301 1842.09 699.301C1845.38 699.301 1847.4 698.935 1847.4 698.935V687.771C1847.4 687.771 1845.75 688.137 1843.19 688.137C1836.23 688.137 1822.51 685.392 1822.51 663.797V618.046H1845.57V607.614H1822.51V581.078H1810.25V607.614H1797.99V618.046H1810.07V665.078Z" fill="#2884C1"/>
<path d="M1868.89 585.471H1881.88V569.915H1868.89V585.471ZM1869.25 698.569H1881.7V606.516H1869.25V698.569Z" fill="#2884C1"/>
<path d="M1906.39 652.085C1906.39 679.902 1928.16 700.765 1955.06 700.765C1981.96 700.765 2003.73 679.902 2003.73 652.085C2003.73 624.817 1981.96 604.32 1955.06 604.32C1928.16 604.32 1906.39 624.817 1906.39 652.085ZM1919.19 652.085C1919.19 631.222 1935.3 615.667 1955.06 615.667C1974.82 615.667 1990.92 631.222 1990.92 652.085C1990.92 673.497 1974.82 689.601 1955.06 689.601C1935.3 689.601 1919.19 673.497 1919.19 652.085Z" fill="#2884C1"/>
<path d="M2028.36 698.569H2040.8V654.464C2040.8 650.072 2041.17 645.863 2042.26 642.02C2046.47 626.83 2060.01 616.033 2075.75 616.033C2093.5 616.033 2095.69 628.843 2095.69 643.301V698.569H2108.14V640.007C2108.14 617.314 2100.09 604.32 2077.4 604.32C2055.62 604.32 2043.91 619.144 2040.62 627.562H2040.25C2040.25 627.562 2040.62 624.268 2040.62 620.242V606.516H2028.36V698.569Z" fill="#2884C1"/>
<path d="M2130.69 673.497C2130.69 691.797 2146.61 700.765 2161.98 700.765C2185.04 700.765 2192.73 680.817 2192.73 680.817H2193.09C2193.09 680.817 2192.73 683.928 2192.73 688.503V698.569H2204.62V639.641C2204.62 616.582 2192.36 604.32 2170.22 604.32C2149.54 604.32 2137.46 614.752 2137.46 614.752L2143.32 624.268C2143.32 624.268 2154.12 615.484 2169.3 615.484C2182.48 615.484 2192.18 621.523 2192.18 639.275V641.654H2187.05C2171.13 641.654 2130.69 642.386 2130.69 673.497ZM2143.5 672.765C2143.5 652.451 2172.41 651.902 2186.87 651.902H2192.18V655.928C2192.18 671.85 2181.56 690.15 2164 690.15C2150.27 690.15 2143.5 681.366 2143.5 672.765Z" fill="#2884C1"/>
<path d="M2233.72 676.791C2233.72 696.922 2247.26 699.301 2254.94 699.301C2257.32 699.301 2259.52 698.935 2259.52 698.935V687.771C2259.52 687.771 2258.06 687.954 2256.41 687.954C2251.65 687.954 2246.16 686.124 2246.16 674.046V569.915H2233.72V676.791Z" fill="#2884C1"/>
<path d="M2375.84 652.634C2375.84 681.183 2396.88 700.765 2424.15 700.765C2447.57 700.765 2460.01 686.307 2460.01 686.307L2454.34 676.608C2454.34 676.608 2443.54 689.601 2424.88 689.601C2404.57 689.601 2388.65 674.229 2388.65 652.634C2388.65 630.673 2404.38 615.667 2424.51 615.667C2441.16 615.667 2451.41 626.83 2451.41 626.83L2457.81 617.497C2457.81 617.497 2446.65 604.32 2424.15 604.32C2397.06 604.32 2375.84 624.268 2375.84 652.634Z" fill="#2884C1"/>
<path d="M2477.27 652.085C2477.27 679.902 2499.05 700.765 2525.94 700.765C2552.84 700.765 2574.62 679.902 2574.62 652.085C2574.62 624.817 2552.84 604.32 2525.94 604.32C2499.05 604.32 2477.27 624.817 2477.27 652.085ZM2490.08 652.085C2490.08 631.222 2506.18 615.667 2525.94 615.667C2545.71 615.667 2561.81 631.222 2561.81 652.085C2561.81 673.497 2545.71 689.601 2525.94 689.601C2506.18 689.601 2490.08 673.497 2490.08 652.085Z" fill="#2884C1"/>
<path d="M2599.24 698.569H2611.68V654.464C2611.68 650.072 2612.05 645.863 2613.15 642.02C2617.36 626.83 2630.9 616.033 2646.63 616.033C2664.38 616.033 2666.58 628.843 2666.58 643.301V698.569H2679.02V640.007C2679.02 617.314 2670.97 604.32 2648.28 604.32C2626.51 604.32 2614.79 619.144 2611.5 627.562H2611.13C2611.13 627.562 2611.5 624.268 2611.5 620.242V606.516H2599.24V698.569Z" fill="#2884C1"/>
<path d="M2701.58 687.405C2701.58 687.405 2713.29 700.765 2735.61 700.765C2754.09 700.765 2767.09 689.967 2767.09 674.961C2767.09 644.582 2717.5 650.072 2717.5 629.758C2717.5 619.51 2726.46 615.484 2735.8 615.484C2750.98 615.484 2758.85 623.902 2758.85 623.902L2764.52 614.386C2764.52 614.386 2755.56 604.32 2736.16 604.32C2719.51 604.32 2704.69 613.288 2704.69 629.758C2704.69 659.771 2754.28 654.83 2754.28 674.961C2754.28 684.66 2745.68 689.601 2735.8 689.601C2718.6 689.601 2708.35 678.438 2708.35 678.438L2701.58 687.405Z" fill="#2884C1"/>
<path d="M2790.3 665.078C2790.3 689.052 2799.45 700.765 2821.04 700.765C2841.35 700.765 2853.43 686.49 2857.09 677.523H2857.45C2857.45 677.523 2857.09 680.817 2857.09 684.843V698.569H2869.16V606.516H2856.72V650.621C2856.72 670.569 2843.73 689.052 2822.69 689.052C2804.94 689.052 2802.74 676.242 2802.74 661.784V606.516H2790.3V665.078Z" fill="#2884C1"/>
<path d="M2899.61 676.791C2899.61 696.922 2913.15 699.301 2920.84 699.301C2923.22 699.301 2925.41 698.935 2925.41 698.935V687.771C2925.41 687.771 2923.95 687.954 2922.3 687.954C2917.54 687.954 2912.05 686.124 2912.05 674.046V569.915H2899.61V676.791Z" fill="#2884C1"/>
<path d="M2950.58 665.078C2950.58 695.824 2971.99 699.301 2982.61 699.301C2985.9 699.301 2987.91 698.935 2987.91 698.935V687.771C2987.91 687.771 2986.27 688.137 2983.7 688.137C2976.75 688.137 2963.03 685.392 2963.03 663.797V618.046H2986.08V607.614H2963.03V581.078H2950.77V607.614H2938.51V618.046H2950.58V665.078Z" fill="#2884C1"/>
<path d="M3009.41 585.471H3022.4V569.915H3009.41V585.471ZM3009.77 698.569H3022.22V606.516H3009.77V698.569Z" fill="#2884C1"/>
<path d="M3053.67 698.569H3066.12V654.464C3066.12 650.072 3066.48 645.863 3067.58 642.02C3071.79 626.83 3085.33 616.033 3101.07 616.033C3118.82 616.033 3121.01 628.843 3121.01 643.301V698.569H3133.45V640.007C3133.45 617.314 3125.4 604.32 3102.71 604.32C3080.94 604.32 3069.23 619.144 3065.93 627.562H3065.57C3065.57 627.562 3065.93 624.268 3065.93 620.242V606.516H3053.67V698.569Z" fill="#2884C1"/>
<path d="M3170.47 719.431L3165.71 729.68C3174.68 734.255 3185.29 737 3195.9 737C3218.41 737 3240 725.654 3240 696.373V606.516H3227.92V616.582C3227.92 618.595 3228.11 619.693 3228.11 619.693H3227.74C3227.74 619.693 3221.7 604.32 3197.37 604.32C3172.66 604.32 3157.48 623.17 3157.48 650.804C3157.48 678.438 3173.76 698.02 3198.46 698.02C3212.74 698.02 3222.07 692.163 3227.56 681.915H3227.92C3227.92 681.915 3227.56 685.026 3227.56 688.503V696.922C3227.56 717.418 3213.28 725.837 3195.35 725.837C3181.81 725.837 3170.47 719.431 3170.47 719.431ZM3200.48 686.856C3182.18 686.856 3170.28 672.582 3170.28 650.621C3170.28 628.66 3180.71 615.667 3198.65 615.667C3214.93 615.667 3227.74 623.902 3227.74 650.804C3227.74 677.889 3214.93 686.856 3200.48 686.856Z" fill="#2884C1"/>
</svg>
