<svg width="168" height="38" viewBox="0 0 168 38" fill="none" xmlns="http://www.w3.org/2000/svg">
<g id="Original Logo">
<g id="Group 3">
<mask id="mask0_6625_1948" style="mask-type:alpha" maskUnits="userSpaceOnUse" x="7" y="0" width="28" height="38">
<g id="mask0">
<path id="Vector" fill-rule="evenodd" clip-rule="evenodd" d="M22.6809 18.6639C26.305 18.6451 30.0182 18.6536 33.6604 18.6536C33.8285 18.6536 33.9757 18.6614 34.1033 18.6382C34.4495 18.5753 34.7092 18.3097 34.7276 17.8882C34.7408 17.589 34.7276 17.2757 34.7276 16.9647C34.7276 16.6581 34.7276 16.3488 34.7276 16.0413C34.7278 15.5775 34.5395 15.3033 34.1889 15.1944C34.0718 15.1578 33.9402 15.1585 33.7712 15.1585C29.5192 15.1584 25.2588 15.1559 21.0045 15.1585C20.9837 15.1585 20.9666 15.1674 20.9793 15.1433C20.9952 15.1132 21.0327 15.0891 21.0549 15.0668C22.0857 14.022 23.0316 12.8619 23.8841 11.6483C24.3312 11.0117 24.7514 10.3618 25.1274 9.66338C25.5046 8.96359 25.8485 8.21734 26.089 7.39804C26.2101 6.98568 26.3241 6.53935 26.3659 6.05625C26.4101 5.54541 26.3983 5.02036 26.3156 4.54606C26.1568 3.63465 25.8162 2.90978 25.3642 2.27042C24.9171 1.63813 24.348 1.13365 23.6776 0.734695C23.1699 0.432588 22.5976 0.206297 21.9207 0.08171C21.6956 0.040335 21.4505 0.0175671 21.2008 0C21.0414 0 20.8819 0 20.7225 0C19.7145 0.0537414 18.9258 0.33805 18.2457 0.734695C17.5735 1.12683 17.0043 1.64033 16.5592 2.26534C16.1115 2.89429 15.7591 3.63488 15.6077 4.54606C15.5292 5.01933 15.5018 5.54356 15.5523 6.06133C15.5993 6.54268 15.6974 6.97621 15.8242 7.40314C16.0692 8.22867 16.4048 8.97214 16.7858 9.67368C17.7252 11.404 18.8932 12.9362 20.1787 14.3422C20.4086 14.5937 20.6703 14.8658 20.9138 15.1179C20.9292 15.1339 20.9192 15.1091 20.9389 15.1434C20.9551 15.1715 20.8841 15.1586 20.8484 15.1586C16.6086 15.1585 12.3478 15.1588 8.09178 15.1586C7.75186 15.1586 7.58103 15.2222 7.41215 15.3934C7.33449 15.4721 7.2752 15.5601 7.23597 15.674C7.19583 15.7903 7.19561 15.9218 7.19561 16.0924C7.19561 16.4125 7.19561 16.7076 7.19561 17.0159C7.19561 17.3248 7.17736 17.6351 7.19561 17.9393C7.2126 18.2233 7.36596 18.4061 7.53291 18.521C7.62221 18.5823 7.7408 18.6369 7.86521 18.6486C8.00034 18.6611 8.14698 18.6537 8.31335 18.6537C11.9442 18.6537 15.596 18.6537 19.2374 18.6537C19.2375 22.9345 19.2372 27.2144 19.2374 31.5113C19.2374 33.2448 19.2374 34.9371 19.2374 36.6442C19.2374 37.0735 19.4237 37.3184 19.7207 37.435C19.8746 37.4952 20.0828 37.486 20.3046 37.486C20.7349 37.486 21.1423 37.486 21.5681 37.486C21.7827 37.486 22.0072 37.5053 22.1673 37.4502C22.4574 37.3502 22.6807 37.094 22.6807 36.69C22.6812 30.7184 22.6805 24.6444 22.6809 18.6639ZM19.6856 8.74504C19.294 8.57885 18.9735 8.35499 18.6988 8.08698C18.1577 7.55846 17.7273 6.83 17.692 5.79597C17.6741 5.2715 17.786 4.78795 17.9437 4.4031C18.106 4.00703 18.325 3.6944 18.593 3.40316C18.8474 3.12659 19.1714 2.88008 19.5395 2.70406C19.9083 2.5278 20.3468 2.40762 20.8635 2.38264C21.3714 2.35814 21.873 2.48146 22.2429 2.64291C22.6293 2.81143 22.9575 3.0354 23.2245 3.30618C23.7656 3.85435 24.1861 4.55311 24.2312 5.59697C24.2549 6.13981 24.1323 6.60522 23.9695 6.98995C23.6424 7.76291 23.0999 8.32713 22.3687 8.68379C21.9983 8.86444 21.5614 8.98637 21.0596 9.01029C20.5361 9.03549 20.0642 8.90581 19.6856 8.74504Z" fill="white"/>
</g>
</mask>
<g mask="url(#mask0_6625_1948)">
<g id="Group">
<path id="Vector_2" d="M20.9702 0C17.964 0 15.5273 2.45454 15.5273 5.48167C15.5273 9.81867 20.9702 15.0964 20.9702 15.0964C20.9702 15.0964 26.413 9.74372 26.413 5.48167C26.413 2.45454 23.9762 0 20.9702 0ZM24.2501 5.66982C24.2501 7.49416 22.7821 8.9733 20.9702 8.9733C19.1583 8.9733 17.6901 7.49416 17.6901 5.66982C17.6901 3.84498 19.1583 2.36583 20.9702 2.36583C22.7821 2.36583 24.2501 3.84498 24.2501 5.66982Z" fill="url(#paint0_linear_6625_1948)"/>
<path id="Vector_3" d="M22.6932 25.9327V15.5266L19.2461 18.5374V28.9435L22.6932 25.9327Z" fill="url(#paint1_linear_6625_1948)"/>
<path id="Vector_4" d="M22.801 37.3635L22.6841 24.9623L19.2461 28.968V39.8859L22.801 37.3635Z" fill="url(#paint2_linear_6625_1948)"/>
<path id="Vector_5" d="M14.926 18.5677H4.59375L7.58321 15.0964H17.9154L14.926 18.5677Z" fill="url(#paint3_linear_6625_1948)"/>
<path id="Vector_6" d="M25.2307 18.5677H14.8984L17.8879 15.0964H28.2202L25.2307 18.5677Z" fill="url(#paint4_linear_6625_1948)"/>
<path id="Vector_7" d="M35.5118 18.5677H25.1797L28.169 15.0964H38.5013L35.5118 18.5677Z" fill="url(#paint5_linear_6625_1948)"/>
</g>
</g>
</g>
<path id="Vector_8" fill-rule="evenodd" clip-rule="evenodd" d="M16.0339 22.0314C16.0339 21.7689 16.0302 21.5586 15.9432 21.3936C15.8647 21.2442 15.7353 21.1165 15.5657 21.0466C15.3889 20.9738 15.1569 20.9905 14.9012 20.9905C11.544 20.9909 8.17221 20.9903 4.81773 20.9905C4.57542 20.9905 4.32626 21.0126 4.10288 20.9855C3.71961 20.9388 3.44332 20.6377 3.44332 20.1945C3.44332 15.1057 3.44332 9.98741 3.44332 4.87273C3.44332 4.60414 3.42312 4.43101 3.31742 4.27071C3.22162 4.12521 3.0825 4.01344 2.90463 3.95947C2.72604 3.90516 2.44964 3.92885 2.21496 3.92885C1.75142 3.92885 1.23599 3.92885 0.775304 3.92885C0.336623 3.92885 0.0640859 4.2202 0 4.60737C0 15.3383 0 26.0761 0 36.8075C0.0402533 37.0298 0.119277 37.177 0.246765 37.2921C0.374367 37.4076 0.544047 37.4859 0.775304 37.4859C1.23634 37.4859 1.74583 37.4859 2.21496 37.4859C2.46252 37.4859 2.7175 37.5125 2.90463 37.4552C3.08081 37.4016 3.22004 37.2919 3.31742 37.144C3.42199 36.9854 3.44332 36.7966 3.44332 36.5422C3.44332 32.8994 3.44332 29.2479 3.44332 25.5978C3.44332 25.3385 3.43157 25.1048 3.50877 24.9345C3.61618 24.6976 3.82873 24.5004 4.14802 24.4855C4.48396 24.47 4.88559 24.4855 5.2254 24.4855C7.38653 24.4854 9.53786 24.4855 11.7094 24.4855C11.968 24.4855 12.1321 24.5189 12.2833 24.6335C12.4197 24.7371 12.5208 24.8807 12.5652 25.0774C12.6091 25.2712 12.5854 25.5388 12.5854 25.7866C12.5854 29.1654 12.5854 32.6002 12.5854 36.0011C12.5854 36.2437 12.5775 36.5013 12.5854 36.7308C12.5933 36.9644 12.6826 37.1282 12.7968 37.246C12.9125 37.3657 13.0635 37.47 13.28 37.4859C13.5032 37.5022 13.7289 37.4859 13.9999 37.4859C14.2451 37.4859 14.485 37.4859 14.7198 37.4859C14.9644 37.4859 15.217 37.5125 15.4246 37.4705C15.8053 37.3935 16.0338 37.093 16.0338 36.6288C16.0341 31.7844 16.0338 26.8653 16.0339 22.0314Z" fill="#323232"/>
<path id="Vector_9" fill-rule="evenodd" clip-rule="evenodd" d="M25.7005 22.0314C25.7005 21.7689 25.7042 21.5586 25.7911 21.3936C25.8697 21.2442 25.9991 21.1165 26.1687 21.0466C26.3454 20.9738 26.5775 20.9905 26.8331 20.9905C30.1903 20.9909 33.5622 20.9903 36.9166 20.9905C37.159 20.9905 37.4081 21.0126 37.6315 20.9855C38.0148 20.9388 38.2911 20.6377 38.2911 20.1945C38.2911 15.1057 38.2911 9.98741 38.2911 4.87273C38.2911 4.60414 38.3113 4.43101 38.417 4.27071C38.5128 4.12521 38.6519 4.01344 38.8297 3.95947C39.0083 3.90516 39.2847 3.92885 39.5194 3.92885C39.983 3.92885 40.4984 3.92885 40.9591 3.92885C41.3978 3.92885 41.6703 4.2202 41.7344 4.60737C41.7344 15.3383 41.7344 26.0761 41.7344 36.8075C41.6941 37.0298 41.6151 37.177 41.4876 37.2921C41.36 37.4076 41.1903 37.4859 40.9591 37.4859C40.498 37.4859 39.9885 37.4859 39.5194 37.4859C39.2719 37.4859 39.0169 37.5125 38.8297 37.4552C38.6536 37.4016 38.5143 37.2919 38.417 37.144C38.3124 36.9854 38.2911 36.7966 38.2911 36.5422C38.2911 32.8994 38.2911 29.2479 38.2911 25.5978C38.2911 25.3385 38.3028 25.1048 38.2256 24.9345C38.1182 24.6976 37.9056 24.5004 37.5864 24.4855C37.2504 24.47 36.8488 24.4855 36.509 24.4855C34.3478 24.4854 32.1965 24.4855 30.025 24.4855C29.7664 24.4855 29.6023 24.5189 29.4511 24.6335C29.3147 24.7371 29.2136 24.8807 29.1692 25.0774C29.1253 25.2712 29.149 25.5388 29.149 25.7866C29.149 29.1654 29.149 32.6002 29.149 36.0011C29.149 36.2437 29.1569 36.5013 29.149 36.7308C29.141 36.9644 29.0517 37.1282 28.9376 37.246C28.8219 37.3657 28.6709 37.47 28.4543 37.4859C28.2312 37.5022 28.0055 37.4859 27.7344 37.4859C27.4893 37.4859 27.2494 37.4859 27.0146 37.4859C26.77 37.4859 26.5174 37.5125 26.3097 37.4705C25.9291 37.3935 25.7006 37.093 25.7006 36.6288C25.7002 31.7844 25.7006 26.8653 25.7005 22.0314Z" fill="#323232"/>
<g id="HYBRIDHERO">
<path d="M47.7844 23.8333H55.8665V22.0417L47.7844 22.1042V23.8333ZM55.8665 16.2083V23.5V30.7917H57.6508V23.5V16.2083H55.8665ZM46 16.2083V30.7917H47.7844V16.2083H46Z" fill="url(#paint6_linear_6625_1948)"/>
<path d="M69.0045 16.2083L65.2048 22.9583L61.4262 16.2083H59.4319L64.3232 24.5208V30.7917H66.1075V24.5L70.9988 16.2083H69.0045Z" fill="url(#paint7_linear_6625_1948)"/>
<path d="M74.558 22.9583L76.5523 23.0833C77.434 23.0833 78.1967 22.9583 78.8405 22.7083C79.4982 22.4583 80.009 22.0903 80.3729 21.6042C80.7368 21.1181 80.9187 20.5347 80.9187 19.8542C80.9187 19.0208 80.7368 18.3403 80.3729 17.8125C80.009 17.2708 79.4982 16.8681 78.8405 16.6042C78.1967 16.3403 77.434 16.2083 76.5523 16.2083H72.7736V30.7917H76.7622C77.7139 30.7917 78.5606 30.6389 79.3023 30.3333C80.058 30.0139 80.6528 29.5417 81.0867 28.9167C81.5345 28.2778 81.7584 27.4792 81.7584 26.5208C81.7584 25.8542 81.6325 25.2778 81.3805 24.7917C81.1286 24.3056 80.7718 23.9097 80.3099 23.6042C79.8621 23.2847 79.3373 23.0486 78.7355 22.8958C78.1337 22.7431 77.4759 23.0809 76.7622 23.0809L74.558 22.9583V23.6042L76.7622 23.6458C77.238 23.6458 77.6719 23.7083 78.0637 23.8333C78.4556 23.9444 78.7915 24.1181 79.0714 24.3542C79.3653 24.5903 79.5892 24.8819 79.7431 25.2292C79.8971 25.5764 79.9741 25.9722 79.9741 26.4167C79.9741 27.0139 79.8341 27.5208 79.5542 27.9375C79.2883 28.3542 78.9104 28.6736 78.4206 28.8958C77.9448 29.1181 77.392 29.2292 76.7622 29.2292H74.558V22.9583V17.7708H76.5523C77.294 17.7708 77.9098 17.9653 78.3996 18.3542C78.8894 18.7292 79.1344 19.2639 79.1344 19.9583C79.1344 20.4167 79.0224 20.8056 78.7985 21.125C78.5746 21.4444 78.2667 21.6875 77.8748 21.8542C77.4829 22.0208 77.0421 22.1042 76.5523 22.1042L74.558 22.0417V22.9583Z" fill="url(#paint8_linear_6625_1948)"/>
<path d="M87.9619 24.9583L92.1417 30.7917H94.3459L89.9822 24.7917L87.9619 24.9583ZM84.4794 16.2083V30.7917H86.2638V23.5V16.2083H84.4794ZM86.2638 17.7708H88.468C89.0977 17.7708 89.6506 17.8819 90.1264 18.1042C90.6162 18.3264 90.9941 18.6458 91.26 19.0625C91.5399 19.4792 91.6798 19.9861 91.6798 20.5833C91.6798 21.1806 91.5399 21.6875 91.26 22.1042C90.9941 22.5208 90.6162 22.8403 90.1264 23.0625C89.6506 23.2847 89.0977 23.3958 88.468 23.3958H86.2638V24.9583H88.468C89.4196 24.9583 90.2663 24.7847 91.0081 24.4375C91.7638 24.0764 92.3586 23.5694 92.7924 22.9167C93.2403 22.25 93.4642 21.4722 93.4642 20.5833C93.4642 19.6806 93.2403 18.9028 92.7924 18.25C92.3586 17.5972 91.7638 17.0972 91.0081 16.75C90.2663 16.3889 89.4196 16.2083 88.468 16.2083H86.2638V17.7708Z" fill="url(#paint9_linear_6625_1948)"/>
<path d="M96.2262 16.2083V30.7917H98.0105V16.2083H96.2262Z" fill="url(#paint10_linear_6625_1948)"/>
<path d="M101.372 16.2083V30.7917H103.156V16.2083H101.372ZM105.78 30.7917C107.208 30.7917 108.474 30.4861 109.58 29.875C110.685 29.2639 111.553 28.4167 112.183 27.3333C112.813 26.2361 113.128 24.9583 113.128 23.5C113.128 22.0417 112.813 20.7708 112.183 19.6875C111.553 18.5903 110.685 17.7361 109.58 17.125C108.474 16.5139 107.208 16.2083 105.78 16.2083H103.156V17.9792H105.78C106.606 17.9792 107.362 18.1111 108.047 18.375C108.733 18.625 109.321 18.9931 109.811 19.4792C110.301 19.9514 110.678 20.5278 110.944 21.2083C111.21 21.8889 111.343 22.6528 111.343 23.5C111.343 24.3472 111.21 25.1111 110.944 25.7917C110.678 26.4722 110.301 27.0556 109.811 27.5417C109.321 28.0139 108.733 28.3819 108.047 28.6458C107.362 28.8958 106.606 29.0208 105.78 29.0208H103.156V30.7917H105.78Z" fill="url(#paint11_linear_6625_1948)"/>
<path d="M117.424 23.7083H125.507V22.0417H117.424V23.7083ZM125.507 16.2083V30.7917H127.291V16.2083H125.507ZM115.64 16.2083V30.7917H117.424V16.2083H115.64Z" fill="url(#paint12_linear_6625_1948)"/>
<path d="M132.431 30.7917H139.043V29.125H132.431V30.7917ZM132.431 17.875H139.043V16.2083H132.431V17.875ZM132.431 23.7083H138.624V22.0417H132.431V23.7083ZM130.646 16.2083V23.5V30.7917H132.431V16.2083H130.646Z" fill="url(#paint13_linear_6625_1948)"/>
<path d="M145.764 24.9583L149.851 30.7917H152.055L147.835 24.7557L145.764 24.9583ZM142.188 16.2083V30.7917H143.973V23.5V16.2083H142.188ZM143.973 17.7708H146.177C146.807 17.7708 147.359 17.8819 147.835 18.1042C148.325 18.3264 148.703 18.6458 148.969 19.0625C149.249 19.4792 149.389 19.9861 149.389 20.5833C149.389 21.1806 149.249 21.6875 148.969 22.1042C148.703 22.5208 148.325 22.8403 147.835 23.0625C147.359 23.2847 146.807 23.3958 146.177 23.3958H143.973V24.9583H146.177C147.128 24.9583 147.975 24.7847 148.717 24.4375C149.473 24.0764 150.067 23.5694 150.501 22.9167C150.949 22.25 151.173 21.4722 151.173 20.5833C151.173 19.6806 150.949 18.9028 150.501 18.25C150.067 17.5972 149.473 17.0972 148.717 16.75C147.975 16.3889 147.128 16.2083 146.177 16.2083H143.973V17.7708Z" fill="url(#paint14_linear_6625_1948)"/>
<path d="M154.985 23.5C154.985 22.4028 155.223 21.4236 155.698 20.5625C156.188 19.7014 156.853 19.0208 157.693 18.5208C158.532 18.0208 159.484 17.7708 160.548 17.7708C161.625 17.7708 162.577 18.0208 163.403 18.5208C164.242 19.0208 164.9 19.7014 165.376 20.5625C165.866 21.4236 166.111 22.4028 166.111 23.5C166.111 24.5972 165.866 25.5764 165.376 26.4375C164.9 27.2986 164.242 27.9792 163.403 28.4792C162.577 28.9792 161.625 29.2292 160.548 29.2292C159.484 29.2292 158.532 28.9792 157.693 28.4792C156.853 27.9792 156.188 27.2986 155.698 26.4375C155.223 25.5764 154.985 24.5972 154.985 23.5ZM153.095 23.5C153.095 24.5556 153.277 25.5417 153.641 26.4583C154.019 27.375 154.544 28.1736 155.216 28.8542C155.887 29.5208 156.678 30.0486 157.588 30.4375C158.497 30.8125 159.484 31 160.548 31C161.625 31 162.612 30.8125 163.508 30.4375C164.417 30.0486 165.208 29.5208 165.88 28.8542C166.552 28.1736 167.069 27.375 167.433 26.4583C167.811 25.5417 168 24.5556 168 23.5C168 22.4306 167.811 21.4444 167.433 20.5417C167.069 19.625 166.552 18.8333 165.88 18.1667C165.208 17.4861 164.417 16.9583 163.508 16.5833C162.612 16.1944 161.625 16 160.548 16C159.484 16 158.497 16.1944 157.588 16.5833C156.678 16.9583 155.887 17.4861 155.216 18.1667C154.544 18.8333 154.019 19.625 153.641 20.5417C153.277 21.4444 153.095 22.4306 153.095 23.5Z" fill="url(#paint15_linear_6625_1948)"/>
</g>
</g>
<defs>
<linearGradient id="paint0_linear_6625_1948" x1="15.5686" y1="5.42945" x2="26.4554" y2="5.42945" gradientUnits="userSpaceOnUse">
<stop stop-color="#51A6D3"/>
<stop offset="1" stop-color="#007ABA"/>
</linearGradient>
<linearGradient id="paint1_linear_6625_1948" x1="19.2592" y1="20.352" x2="22.7067" y2="20.352" gradientUnits="userSpaceOnUse">
<stop stop-color="#51A6D3"/>
<stop offset="1" stop-color="#007ABA"/>
</linearGradient>
<linearGradient id="paint2_linear_6625_1948" x1="19.2596" y1="30.3296" x2="22.8149" y2="30.3296" gradientUnits="userSpaceOnUse">
<stop stop-color="#51A6D3"/>
<stop offset="1" stop-color="#007ABA"/>
</linearGradient>
<linearGradient id="paint3_linear_6625_1948" x1="17.9154" y1="16.8321" x2="4.59375" y2="16.832" gradientUnits="userSpaceOnUse">
<stop stop-color="#EB6744"/>
<stop offset="1" stop-color="#FF9966"/>
</linearGradient>
<linearGradient id="paint4_linear_6625_1948" x1="28.2202" y1="16.8321" x2="14.8984" y2="16.832" gradientUnits="userSpaceOnUse">
<stop stop-color="#EB6744"/>
<stop offset="1" stop-color="#FF9966"/>
</linearGradient>
<linearGradient id="paint5_linear_6625_1948" x1="38.5013" y1="16.8321" x2="25.1797" y2="16.832" gradientUnits="userSpaceOnUse">
<stop stop-color="#EB6744"/>
<stop offset="1" stop-color="#FF9966"/>
</linearGradient>
<linearGradient id="paint6_linear_6625_1948" x1="168" y1="23.5" x2="46" y2="23.4999" gradientUnits="userSpaceOnUse">
<stop stop-color="#EB6744"/>
<stop offset="1" stop-color="#FF9966"/>
</linearGradient>
<linearGradient id="paint7_linear_6625_1948" x1="168" y1="23.5" x2="46" y2="23.4999" gradientUnits="userSpaceOnUse">
<stop stop-color="#EB6744"/>
<stop offset="1" stop-color="#FF9966"/>
</linearGradient>
<linearGradient id="paint8_linear_6625_1948" x1="168" y1="23.5" x2="46" y2="23.4999" gradientUnits="userSpaceOnUse">
<stop stop-color="#EB6744"/>
<stop offset="1" stop-color="#FF9966"/>
</linearGradient>
<linearGradient id="paint9_linear_6625_1948" x1="168" y1="23.5" x2="46" y2="23.4999" gradientUnits="userSpaceOnUse">
<stop stop-color="#EB6744"/>
<stop offset="1" stop-color="#FF9966"/>
</linearGradient>
<linearGradient id="paint10_linear_6625_1948" x1="168" y1="23.5" x2="46" y2="23.4999" gradientUnits="userSpaceOnUse">
<stop stop-color="#EB6744"/>
<stop offset="1" stop-color="#FF9966"/>
</linearGradient>
<linearGradient id="paint11_linear_6625_1948" x1="168" y1="23.5" x2="46" y2="23.4999" gradientUnits="userSpaceOnUse">
<stop stop-color="#EB6744"/>
<stop offset="1" stop-color="#FF9966"/>
</linearGradient>
<linearGradient id="paint12_linear_6625_1948" x1="46.4628" y1="21.3948" x2="168.475" y2="21.3948" gradientUnits="userSpaceOnUse">
<stop stop-color="#51A6D3"/>
<stop offset="1" stop-color="#007ABA"/>
</linearGradient>
<linearGradient id="paint13_linear_6625_1948" x1="46.4628" y1="21.3948" x2="168.475" y2="21.3948" gradientUnits="userSpaceOnUse">
<stop stop-color="#51A6D3"/>
<stop offset="1" stop-color="#007ABA"/>
</linearGradient>
<linearGradient id="paint14_linear_6625_1948" x1="46.4628" y1="21.3948" x2="168.475" y2="21.3948" gradientUnits="userSpaceOnUse">
<stop stop-color="#51A6D3"/>
<stop offset="1" stop-color="#007ABA"/>
</linearGradient>
<linearGradient id="paint15_linear_6625_1948" x1="46.4628" y1="21.3948" x2="168.475" y2="21.3948" gradientUnits="userSpaceOnUse">
<stop stop-color="#51A6D3"/>
<stop offset="1" stop-color="#007ABA"/>
</linearGradient>
</defs>
</svg>
