<svg width="160" height="47" viewBox="0 0 160 47" fill="none" xmlns="http://www.w3.org/2000/svg">
<g clip-path="url(#clip0_165_44)">
<mask id="mask0_165_44" style="mask-type:luminance" maskUnits="userSpaceOnUse" x="0" y="0" width="160" height="47">
<path d="M91.3156 12.5769C93.6868 11.5525 96.2569 11.0708 98.8381 11.1669C101.419 11.2629 103.946 11.9344 106.235 13.1322C108.691 14.4248 110.812 16.2739 112.427 18.5318L114.335 21.4226L111.885 23.6709C111.644 23.8881 111.18 24.3047 109.993 25.4069C108.935 26.3707 108.015 27.1951 107.215 27.8466C106.416 28.4974 105.435 29.227 104.317 30.0253C103.1 30.887 101.776 31.5873 100.379 32.1088C99.0358 32.6072 97.6153 32.8658 96.1825 32.8729H88.8821C90.3817 36.3524 93.679 38.6966 97.4294 38.9494V46.7102C94.5646 46.6212 91.7678 45.8153 89.2949 44.3664C81.6016 39.8696 78.4452 30.2811 81.9425 22.0302C83.7234 17.7635 87.0876 14.3704 91.3156 12.5766V12.5769ZM104.103 39.2774C105.797 37.5773 108.547 37.5672 110.253 39.2547C110.663 39.6599 110.988 40.1424 111.21 40.6742C111.432 41.206 111.547 41.7765 111.547 42.3528C111.547 42.929 111.432 43.4996 111.21 44.0313C110.988 44.5631 110.663 45.0456 110.253 45.4508C108.547 47.1386 105.797 47.1285 104.103 45.4285C102.409 43.7281 102.409 40.9778 104.103 39.2774V39.2774ZM77.7341 11.1547V20.076H76.7385C71.6224 20.0711 67.4697 24.2273 67.4599 29.3619V46.3617H58.562V29.3619C58.5811 19.3007 66.7136 11.1547 76.7385 11.1547H77.7341ZM31.8883 0V13.2723C32.4803 12.9432 33.0941 12.6548 33.7254 12.4092C35.3533 11.8164 37.0753 11.5241 38.8077 11.5465C40.8652 11.5188 42.9077 11.9001 44.8166 12.6682C46.615 13.3992 48.2237 14.5295 49.5211 15.9735C50.7975 17.4053 51.7752 19.0775 52.3969 20.892C53.0318 22.7947 53.3479 24.7892 53.3325 26.7949V46.0131H44.8166V27.0968C44.9188 25.1755 44.3176 23.2828 43.1256 21.7725C42.1639 20.5989 40.6786 20.0467 38.5843 20.0467C37.6989 20.0397 36.8215 20.2193 36.0089 20.5731C35.2119 20.932 34.4918 21.4418 33.8885 22.0744C32.5528 23.5321 31.8302 25.4485 31.8709 27.4252V46.0131H23.355V1.37203L31.8883 0ZM126.536 0V46.0131H117.821V1.38946L126.536 0ZM145.23 12.2025C146.966 12.1809 148.7 12.3308 150.406 12.6501C151.726 12.899 153.022 13.259 154.28 13.7265C155.283 14.0969 156.241 14.5792 157.136 15.1644C157.93 15.7243 158.586 16.1719 159.138 16.5853L159.362 16.7491L155.799 22.8364L155.557 22.6817C154.971 22.3111 154.289 21.9238 153.53 21.5278C152.743 21.1258 151.937 20.7637 151.114 20.4427C150.255 20.1085 149.372 19.8379 148.474 19.6333C147.587 19.4368 146.681 19.3358 145.773 19.3321C144.427 19.283 143.086 19.5085 141.83 19.9951C141.435 20.1214 141.089 20.3692 140.843 20.703C140.597 21.0369 140.462 21.44 140.458 21.8548C140.458 22.492 140.889 22.9999 141.753 23.4046C142.898 23.9324 144.087 24.3588 145.307 24.679L150.001 25.9618C151.645 26.3995 153.238 27.0086 154.755 27.779C156.174 28.494 157.431 29.4934 158.448 30.7151C159.512 32.0618 160.059 33.7444 159.992 35.4593C160.051 36.9294 159.77 38.3932 159.171 39.7373C158.573 41.0813 157.673 42.2693 156.541 43.2091C154.298 45.06 150.941 46.0075 146.576 46.0075C143.517 46.0758 140.475 45.5221 137.637 44.38C135.418 43.4751 133.374 42.1901 131.597 40.5828L131.416 40.419L135.273 33.9786L135.523 34.2024C136.985 35.4566 138.632 36.4762 140.407 37.2246C141.503 37.6913 142.634 38.0742 143.789 38.37C144.94 38.6763 146.126 38.8326 147.317 38.835C148.405 38.8647 149.484 38.6374 150.467 38.1717C150.852 37.9898 151.173 37.6962 151.388 37.3291C151.604 36.9621 151.703 36.5386 151.675 36.114C151.648 35.7327 151.512 35.3672 151.282 35.0617C151.052 34.7561 150.739 34.5236 150.38 34.392C149.231 33.8301 148.032 33.3747 146.8 33.0315C145.35 32.601 143.772 32.1705 142.106 31.7396C140.449 31.324 138.849 30.7051 137.343 29.897C135.931 29.1374 134.68 28.111 133.659 26.8748C132.604 25.4945 132.064 23.7889 132.132 22.0528C132.105 20.577 132.455 19.1186 133.15 17.8165C133.836 16.6006 134.778 15.5487 135.911 14.7339C137.168 13.8618 138.571 13.2204 140.053 12.8397C141.743 12.4025 143.483 12.1883 145.229 12.2025H145.23ZM8.61268 3.83442V12.0551H18.4661V20.4664H8.61233V33.0266C8.61721 35.2826 10.4529 37.1106 12.7187 37.1155H18.4748V45.6645H11.7726L11.5732 45.6491C5.01181 45.0932 -0.038472 39.6054 0.000220841 33.0266V5.19146L8.61233 3.83442H8.61268ZM102.28 19.8341C98.6348 18.1295 94.3315 18.8152 91.3843 21.57C90.3011 22.5484 89.4443 23.7512 88.8734 25.0946H96.3031C96.7269 25.0792 97.1452 24.9941 97.5413 24.8429C98.1077 24.6484 98.6595 24.4134 99.1922 24.1398C99.7983 23.7897 100.374 23.3889 100.912 22.9417C101.772 22.2993 102.331 21.8391 102.632 21.57C102.838 21.379 103.2 21.058 103.673 20.6323C103.227 20.3344 102.762 20.0677 102.28 19.8341V19.8341Z" fill="white"/>
</mask>
<g mask="url(#mask0_165_44)">
<path fill-rule="evenodd" clip-rule="evenodd" d="M0 0H160V46.7102H0V0Z" fill="#4D24ED"/>
</g>
</g>
<defs>
<clipPath id="clip0_165_44">
<rect width="160" height="46.7102" fill="white"/>
</clipPath>
</defs>
</svg>
