<svg id="Group_38" data-name="Group 38" xmlns="http://www.w3.org/2000/svg" xmlns:xlink="http://www.w3.org/1999/xlink" width="165.942" height="55.825" viewBox="0 0 165.942 55.825">
  <defs>
    <clipPath id="clip-path">
      <rect id="Rectangle_130" data-name="Rectangle 130" width="165.942" height="55.825" fill="#008fa0"/>
    </clipPath>
  </defs>
  <g id="Group_37" data-name="Group 37" clip-path="url(#clip-path)">
    <path id="Path_383" data-name="Path 383" d="M199.55,50.676a5.456,5.456,0,0,0-2.954.867,7.256,7.256,0,0,0-1,.771l-.642.642V45.122h-4.366V67.4h4.366v-8.38a6.215,6.215,0,0,1,.867-3.564,2.522,2.522,0,0,1,2.183-1.156,2.277,2.277,0,0,1,2.183,1.188,7.716,7.716,0,0,1,.482,3.211v8.669h4.463V58.7q0-8.026-5.586-8.027m11.8,6.774a3.95,3.95,0,0,1,.931-2.183,3.145,3.145,0,0,1,2.408-1.156,3.669,3.669,0,0,1,2.5.738,3.363,3.363,0,0,1,1.22,2.568Zm9.632-3.532q-1.958-3.146-6.26-3.146a7.07,7.07,0,0,0-5.266,2.087,8.287,8.287,0,0,0-2.248,6.132,8.5,8.5,0,0,0,2.248,6.036,7.312,7.312,0,0,0,5.587,2.376q4.655,0,6.806-3.371L218.8,62.4a4.27,4.27,0,0,1-3.435,1.83,3.707,3.707,0,0,1-2.569-.963,4.848,4.848,0,0,1-1.38-2.89l10.82-.1A12.478,12.478,0,0,0,222.2,57a7.9,7.9,0,0,0-1.22-3.082m10,10.563q-2.022.45-2.857-.385a1.76,1.76,0,0,1-.417-1.733,2.285,2.285,0,0,1,1.412-1.638,10.126,10.126,0,0,1,4.656-.546,3.9,3.9,0,0,1-.16,1.7,3.384,3.384,0,0,1-2.633,2.6m6.9-7.481q0-3.435-1.83-4.88-1.67-1.285-5.426-1.285a6.157,6.157,0,0,0-3.693,1.156,6.235,6.235,0,0,0-1.958,2.44l3.146,1.83q.321-.577.546-.9a4.581,4.581,0,0,1,.674-.8,2.975,2.975,0,0,1,2.248-.706q1.541.1,1.927,1.092a3.868,3.868,0,0,1,.16,1v1.124a25.883,25.883,0,0,0-2.7.129,17.2,17.2,0,0,0-2.954.578q-3.4,1.092-4.142,3.788a4.319,4.319,0,0,0,1.349,4.591,5.262,5.262,0,0,0,4.238,1.413,14.186,14.186,0,0,0,3.307-.77q.418-.193.771-.353a.751.751,0,0,0,.193-.128c.043-.022.053-.032.032-.032L234.1,67.4h3.628q.032-1.027.032-2.087,0-.867.032-2.183,0-.931.032-2.408.064-3.146.064-3.724m3.484,10.4h4.174V45.218h-4.174Zm13.117-4.463a2.61,2.61,0,0,1-.643-1.477q-.032-.321-.032-.8V54.593h3.821v-3.66h-3.821V45.154h-4.046v5.779H247.2v3.66h2.568v5.779a17.8,17.8,0,0,0,.225,3.467,4.076,4.076,0,0,0,1.285,2.087,5.732,5.732,0,0,0,3.981,1.477,10.927,10.927,0,0,0,2.825-.321l-.8-3.5a2.44,2.44,0,0,1-2.793-.642m15.2-12.264a5.455,5.455,0,0,0-2.954.867,7.2,7.2,0,0,0-1,.771l-.642.642V45.122h-4.367V67.4H265.1v-8.38a6.219,6.219,0,0,1,.867-3.564A2.523,2.523,0,0,1,268.15,54.3a2.278,2.278,0,0,1,2.183,1.188,7.723,7.723,0,0,1,.482,3.211v8.669h4.462V58.7q0-8.026-5.586-8.027" transform="translate(-109.336 -25.885)" fill="#6e6f6e" fill-rule="evenodd"/>
    <path id="Path_384" data-name="Path 384" d="M55.5,5.2a.453.453,0,0,0,.025-.156h1.608a.148.148,0,0,0,.014.167A1.288,1.288,0,0,1,55.5,5.2" transform="translate(-31.839 -2.896)" fill="#41a983" fill-rule="evenodd"/>
    <path id="Path_385" data-name="Path 385" d="M21.331,5.048a.352.352,0,0,1,.038.145,1.08,1.08,0,0,1-1.5.01.643.643,0,0,0,.029-.155Z" transform="translate(-11.4 -2.896)" fill="#41a983" fill-rule="evenodd"/>
    <path id="Path_386" data-name="Path 386" d="M126.405,67.219a7.378,7.378,0,0,1-6.279-3.443,1.957,1.957,0,0,1,.68-3.029,1.757,1.757,0,0,1,2.281.62,4.891,4.891,0,0,0,7,.966c.727-.573,3.25-4.268-3.429-5.367a10.715,10.715,0,0,1-4.125-2.031,5.373,5.373,0,0,1,.262-8.563,8.226,8.226,0,0,1,9.072-.441c1.214.766,1.452,1.545.818,2.675-.578,1.029-1.468,1.26-2.672.662a4.429,4.429,0,0,0-4.659.216c-1.314.856-1.3,2.043,0,2.935a7.188,7.188,0,0,0,2.474.972,11.813,11.813,0,0,1,5.311,2.593,6.046,6.046,0,0,1-.057,8.87A9.388,9.388,0,0,1,126.405,67.219Z" transform="translate(-68.665 -25.685)" fill="#008fa0" fill-rule="evenodd"/>
    <path id="Path_387" data-name="Path 387" d="M163.252,55.95q0-4.411,0-8.821c0-1.5.715-2.4,1.91-2.417s1.986.881,1.988,2.353q.014,8.915,0,17.83a2.1,2.1,0,0,1-1.271,2.162,1.848,1.848,0,0,1-2.182-.616,2.37,2.37,0,0,1-.451-1.574c.012-2.972.005-5.944.005-8.915" transform="translate(-93.649 -25.649)" fill="#008fa0" fill-rule="evenodd"/>
    <path id="Path_388" data-name="Path 388" d="M162.743,30.526a2.16,2.16,0,0,1,2.189-2.107,2.161,2.161,0,1,1-2.189,2.107Z" transform="translate(-93.359 -16.303)" fill="#008fa0" fill-rule="evenodd"/>
    <path id="Path_389" data-name="Path 389" d="M49.054,25.448A11.341,11.341,0,0,0,37.216,19.2a11.518,11.518,0,0,0-9.625,11.1,11.318,11.318,0,0,0,8.571,11.327c.662.17.765.434.748,1.026A9.6,9.6,0,0,1,18,44.5c-.618-2.758-.176-5.585-.269-8.379a.536.536,0,0,1,.128-.333,7.59,7.59,0,0,0,1.487-3.458.926.926,0,0,1,.424-.7c3.278-1.861,5.232-4.854,6.85-8.11A55.989,55.989,0,0,0,31.2,9.023c.69-3.582.415-4.24-2.692-6.158a1.646,1.646,0,0,0-.161-.1A2.954,2.954,0,0,1,26.978,1.51,3.063,3.063,0,0,0,24.857.023L23.095.011a3.441,3.441,0,0,0-2.766,3.038,3.379,3.379,0,0,0,1.626,3.517,3.483,3.483,0,0,0,4.115-.084c.384-.264.637-.3.984-.017.307.252.706.371.594.944A55.448,55.448,0,0,1,22.483,23.1a14.514,14.514,0,0,1-3.426,4.428c-2.173,1.813-4.27,1.827-6.461.034a13.817,13.817,0,0,1-3.248-4.086A53.741,53.741,0,0,1,4.016,7.647a1.051,1.051,0,0,1,.507-1.184c.5-.38.767-.12,1.15.114a3.558,3.558,0,0,0,4.043-.041,3.517,3.517,0,0,0,1.527-3.743A3.441,3.441,0,0,0,8.449,0l-1.6.01A2.528,2.528,0,0,0,4.934,1.143,6.843,6.843,0,0,1,2.466,3.283a10.988,10.988,0,0,0-1.278,1A2.905,2.905,0,0,0,.117,7.424c.147.55.17,1.131.272,1.695a53.325,53.325,0,0,0,4.8,15.308c1.512,2.914,3.361,5.562,6.329,7.2.3.169.339.426.408.7a9,9,0,0,0,1.513,3.163,2.18,2.18,0,0,1,.433,1.412c-.018,1.878-.033,3.757,0,5.635A13.393,13.393,0,0,0,27.221,55.825h.008a13.854,13.854,0,0,0,3.116-.351A13.316,13.316,0,0,0,40.71,42.8c.017-.743.224-1,.968-1.168a10.8,10.8,0,0,0,5.242-2.969,11.391,11.391,0,0,0,2.134-13.212M38.887,37.85a7.283,7.283,0,1,1,7.3-7.264A7.225,7.225,0,0,1,38.887,37.85Z" transform="translate(0)" fill="#008fa0" fill-rule="evenodd"/>
    <path id="Path_390" data-name="Path 390" d="M87.331,70.722A2.971,2.971,0,1,1,87.4,64.78a2.971,2.971,0,0,1-.069,5.942" transform="translate(-48.407 -37.162)" fill="#008fa0" fill-rule="evenodd"/>
  </g>
</svg>
