<svg width="130" height="60" viewBox="0 0 130 60" fill="none" xmlns="http://www.w3.org/2000/svg">
<path d="M63.9168 2.19737C63.0489 2.54894 38.2744 16.9082 37.846 17.3147C37.2637 17.864 37 18.5342 37 19.4681C37 19.8965 37.0769 20.4019 37.1648 20.6216C37.6262 21.7423 38.6919 22.4564 39.9224 22.4674L40.6255 22.4784V26.8949V31.3225H39.5049C38.1316 31.3225 37.6482 31.4433 37.2856 31.8828C37 32.2124 37 32.2343 37 34.2448C37 35.9477 37.033 36.3213 37.1758 36.552C37.4834 37.0134 37.8899 37.1453 38.9776 37.1453H39.9663L39.9773 38.3208C39.9773 40.2325 40.252 40.639 41.5484 40.7378L42.2735 40.8038V44.7259V48.6591L41.5154 48.703C40.241 48.7689 39.9663 49.1974 39.9663 51.0981V52.3066H38.8567H37.7471L37.3735 52.6801L37 53.0537V55.1301C37 57.3933 37.033 57.5361 37.6592 57.8547C37.9338 57.9976 39.6477 58.0195 50.8759 58.0195C63.6971 58.0195 63.763 58.0195 64.0047 57.7998C64.3673 57.4592 64.3343 56.789 63.9608 56.4924C63.6641 56.2617 63.6421 56.2617 51.2165 56.2617H38.7578V55.1631V54.0644H65.1803H91.6027V55.1631V56.2617L79.177 56.2837L66.7513 56.3166L66.5426 56.5803C66.2679 56.9099 66.2789 57.3713 66.5645 57.7339L66.7843 58.0195H79.5286C90.6249 58.0195 92.3168 57.9976 92.5915 57.8547C93.2177 57.5361 93.2506 57.3933 93.2506 55.1301V53.0537L92.8771 52.6801L92.5036 52.3066H91.3939H90.2843V51.0981C90.2843 49.1974 90.0096 48.7689 88.7352 48.703L87.9771 48.6591V44.7259V40.8038L88.7022 40.7378C89.9986 40.639 90.2733 40.2325 90.2733 38.3208L90.2843 37.1453H91.2731C92.3607 37.1453 92.7672 37.0134 93.0749 36.552C93.2177 36.3213 93.2506 35.9477 93.2506 34.2448C93.2506 32.2343 93.2506 32.2124 92.965 31.8828C92.6024 31.4433 92.119 31.3225 90.7567 31.3225H89.6251V26.8949V22.4784L90.3282 22.4674C91.5587 22.4564 92.6244 21.7423 93.0858 20.6216C93.1737 20.4019 93.2506 19.8965 93.2506 19.4681C93.2506 18.5672 92.998 17.897 92.4596 17.3587C92.2509 17.1499 89.8888 15.7217 87.2081 14.1726C84.5164 12.6125 78.8364 9.33856 74.5737 6.8776C70.3109 4.40565 66.5975 2.30723 66.3009 2.19737C65.6307 1.93369 64.576 1.93369 63.9168 2.19737ZM78.2541 11.0524C85.8128 15.4141 90.9215 18.4244 91.1412 18.6441C91.7455 19.2703 91.5587 20.2261 90.7677 20.6107C90.4491 20.7535 90.2843 20.7755 90.0206 20.6986C89.8339 20.6436 84.2308 17.4466 77.573 13.6013C68.8497 8.55852 65.367 6.60294 65.1253 6.60294C64.8836 6.60294 61.4009 8.55852 52.6777 13.6013C46.0199 17.4466 40.4168 20.6436 40.23 20.6986C39.9663 20.7755 39.7906 20.7535 39.4829 20.6107C38.8018 20.2921 38.5491 19.4571 38.9336 18.8089C39.0655 18.5892 42.3614 16.6336 51.3703 11.426C58.105 7.53678 63.8729 4.20789 64.1805 4.04309C65.2242 3.4718 64.3563 3.03234 78.2541 11.0524ZM76.5402 15.0625L87.8673 21.5994V26.4555V31.3225L77.2544 31.3444L66.6414 31.3774L66.4327 31.6411C66.158 31.9816 66.158 32.5749 66.4437 32.8606C66.6634 33.0803 66.8062 33.0803 79.133 33.0803H91.6027V34.2339V35.3874H65.1803H38.7578V34.2339V33.0803H51.2824C63.6641 33.0803 63.8069 33.0803 64.0267 32.8606C64.3123 32.5749 64.3123 31.9816 64.0377 31.6411L63.8289 31.3774L53.1061 31.3444L42.3834 31.3225V26.4555V21.5994L53.7324 15.0405C59.9617 11.437 65.1033 8.49261 65.1473 8.50359C65.1912 8.51458 70.3109 11.4699 76.5402 15.0625ZM51.8317 38.0791V39.013H46.7779H41.7242V38.0791V37.1453H46.7779H51.8317V38.0791ZM58.3137 38.4307C58.3137 39.5403 58.3467 39.782 58.5334 40.0896C58.8081 40.5401 59.3355 40.7708 60.0716 40.7708H60.6209V44.7259V48.681H59.9507C58.6213 48.681 58.3137 49.1205 58.3137 51.0321V52.3066H55.9516H53.5895V50.9882C53.5895 49.0656 53.3149 48.681 51.9416 48.681H51.2824V44.7259V40.7708H51.8317C52.5129 40.7708 53.0402 40.5621 53.3478 40.1665C53.5676 39.8919 53.5895 39.7271 53.5895 38.5076V37.1453H55.9516H58.3137V38.4307ZM70.1791 38.0791V39.013H65.1253H60.0716V38.0791V37.1453H65.1253H70.1791V38.0791ZM76.6611 38.5076C76.6611 39.7271 76.6831 39.8919 76.9028 40.1665C77.2104 40.5621 77.7378 40.7708 78.4189 40.7708H78.9683V44.7259V48.681H78.3091C76.9358 48.681 76.6611 49.0656 76.6611 50.9882V52.3066H74.299H71.9369V51.0321C71.9369 49.1205 71.6293 48.681 70.2999 48.681H69.6298V44.7259V40.7708H70.1791C70.9152 40.7708 71.4425 40.5401 71.7172 40.0896C71.904 39.782 71.9369 39.5403 71.9369 38.4307V37.1453H74.299H76.6611V38.5076ZM88.5265 38.0791V39.013H83.4727H78.4189V38.0791V37.1453H83.4727H88.5265V38.0791ZM49.5246 44.7259V48.681H46.7779H44.0313V44.7259V40.7708H46.7779H49.5246V44.7259ZM67.8719 44.7259V48.681H65.1253H62.3787V44.7259V40.7708H65.1253H67.8719V44.7259ZM86.2193 44.7259V48.681H83.4727H80.7261V44.7259V40.7708H83.4727H86.2193V44.7259ZM51.8317 51.3727V52.3066H46.7779H41.7242V51.3727V50.4389H46.7779H51.8317V51.3727ZM70.1791 51.3727V52.3066H65.1253H60.0716V51.3727V50.4389H65.1253H70.1791V51.3727ZM88.5265 51.3727V52.3066H83.4727H78.4189V51.3727V50.4389H83.4727H88.5265V51.3727Z" fill="url(#paint0_linear_1342_220)"/>
<path d="M64.1805 11.5905C63.2027 11.9091 62.3458 12.7221 61.9283 13.7438C61.6756 14.3811 61.7305 15.7763 62.0491 16.4355C62.3897 17.1277 63.0489 17.7978 63.752 18.1494C64.2025 18.3691 64.4661 18.4131 65.2352 18.4131C66.0372 18.4131 66.2569 18.3691 66.7953 18.1055C67.5094 17.7539 68.1246 17.1167 68.4652 16.3916C68.7948 15.6775 68.7948 14.2272 68.4652 13.5131C67.8939 12.2826 66.7843 11.5356 65.422 11.4806C64.9495 11.4587 64.4442 11.5026 64.1805 11.5905ZM66.2569 13.5571C67.048 14.1503 67.2018 15.227 66.6305 15.9851C65.8285 17.0288 64.3123 16.897 63.73 15.7214C63.5872 15.4577 63.4774 15.1062 63.4774 14.9524C63.4774 14.7985 63.5872 14.447 63.73 14.1833C64.2135 13.2055 65.411 12.9089 66.2569 13.5571Z" fill="url(#paint1_linear_1342_220)"/>
<path d="M74.7385 21.0495L74.4638 21.3131V24.8947V28.4763L74.7385 28.74C74.9033 28.9158 75.134 29.0146 75.3427 29.0146C75.5515 29.0146 75.7822 28.9158 75.947 28.74C76.1887 28.4983 76.2216 28.3884 76.2216 27.5864V26.6965L77.4851 27.8501C78.1772 28.4873 78.8254 29.0146 78.9353 29.0146C79.3638 29.0146 79.6384 28.8608 79.8032 28.5532C80.0999 27.9709 79.946 27.7073 78.342 26.2021L76.8479 24.7959L78.2651 23.4665C79.5835 22.214 79.6714 22.1042 79.6714 21.7087C79.6714 21.2033 79.3308 20.8847 78.7925 20.8847C78.4739 20.8847 78.2541 21.0385 77.3532 21.8625L76.2766 22.8512L76.2216 22.0163C76.1777 21.3241 76.1228 21.1593 75.903 20.9836C75.5515 20.6979 75.0571 20.7199 74.7385 21.0495Z" fill="url(#paint2_linear_1342_220)"/>
<path d="M50.7441 21.171C50.5244 21.4567 50.5134 21.5885 50.5134 24.9723V28.477L50.788 28.7517C51.0737 29.0373 51.0847 29.0373 52.6887 28.9934C54.4245 28.9494 54.7322 28.8725 55.3804 28.2573C56.2813 27.4333 56.4021 25.9062 55.677 24.8625C55.3694 24.423 55.3474 24.3461 55.4683 23.9945C55.5342 23.7858 55.5671 23.3134 55.5452 22.9618C55.4902 22.1598 55.0727 21.5116 54.3696 21.1381C53.9302 20.9073 53.7434 20.8854 52.425 20.8854C50.9858 20.8854 50.9638 20.8854 50.7441 21.171ZM53.6445 22.819C53.8972 23.0717 53.8093 23.5441 53.4797 23.7089C53.3259 23.7858 52.9963 23.8517 52.7436 23.8517H52.2712V23.2475V22.6432H52.8645C53.271 22.6432 53.5237 22.6981 53.6445 22.819ZM53.7983 25.6205C54.1938 25.7634 54.3586 26.0051 54.3586 26.4775C54.3586 27.0048 53.9411 27.2575 53.0293 27.2575H52.2712V26.3786V25.4997H52.8645C53.1831 25.4997 53.6006 25.5546 53.7983 25.6205Z" fill="url(#paint3_linear_1342_220)"/>
<path d="M60.3022 21.0714C60.0056 21.3131 57.5446 27.6853 57.5446 28.2017C57.5446 28.707 58.006 29.0586 58.5334 28.9707C58.9729 28.9048 59.1267 28.729 59.3903 27.9929L59.5771 27.4765H60.9175H62.2468L62.4446 27.9929C62.6643 28.6301 63.0598 29.0146 63.4663 29.0146C63.8179 29.0146 64.2134 28.6851 64.3123 28.3115C64.3892 27.9709 61.9062 21.3461 61.5986 21.0714C61.4668 20.9726 61.1811 20.8847 60.9504 20.8847C60.7197 20.8847 60.4341 20.9726 60.3022 21.0714ZM61.313 24.9716L61.5876 25.7187H60.9284C60.3462 25.7187 60.2802 25.6967 60.3352 25.521C60.7307 24.4772 60.9065 24.0927 60.9614 24.1586C60.9944 24.2026 61.1592 24.5651 61.313 24.9716Z" fill="url(#paint4_linear_1342_220)"/>
<path d="M66.2129 21.0938L65.9493 21.3026L65.9163 24.7413C65.8834 28.4108 65.9163 28.6635 66.3997 28.8942C66.7952 29.07 67.0369 29.048 67.3555 28.7844L67.6522 28.5646L67.6741 26.5871L67.7071 24.6095L69.1134 26.642C69.8824 27.7626 70.6075 28.7294 70.7284 28.7953C71.1019 28.9931 71.5963 28.9272 71.8929 28.6305L72.1676 28.3559L72.1346 24.8292L72.1017 21.3026L71.838 21.0938C71.5414 20.8521 70.9701 20.8192 70.6625 21.0389C70.4757 21.1817 70.4537 21.3795 70.3988 23.2472L70.3439 25.2907L68.9266 23.2252C68.1466 22.0936 67.4324 21.0938 67.3446 21.0169C67.0919 20.8192 66.4986 20.8521 66.2129 21.0938Z" fill="url(#paint5_linear_1342_220)"/>
<defs>
<linearGradient id="paint0_linear_1342_220" x1="43.1971" y1="57.8874" x2="85.4969" y2="54.7474" gradientUnits="userSpaceOnUse">
<stop stop-color="#01AAE5"/>
<stop offset="1" stop-color="#FEB60A"/>
</linearGradient>
<linearGradient id="paint1_linear_1342_220" x1="62.5343" y1="18.3967" x2="67.7556" y2="18.0104" gradientUnits="userSpaceOnUse">
<stop stop-color="#01AAE5"/>
<stop offset="1" stop-color="#FEB60A"/>
</linearGradient>
<linearGradient id="paint2_linear_1342_220" x1="75.0655" y1="28.9952" x2="79.1855" y2="28.7931" gradientUnits="userSpaceOnUse">
<stop stop-color="#01AAE5"/>
<stop offset="1" stop-color="#FEB60A"/>
</linearGradient>
<linearGradient id="paint3_linear_1342_220" x1="51.1342" y1="28.9955" x2="55.3839" y2="28.7777" gradientUnits="userSpaceOnUse">
<stop stop-color="#01AAE5"/>
<stop offset="1" stop-color="#FEB60A"/>
</linearGradient>
<linearGradient id="paint4_linear_1342_220" x1="58.2904" y1="28.9955" x2="63.3896" y2="28.6816" gradientUnits="userSpaceOnUse">
<stop stop-color="#01AAE5"/>
<stop offset="1" stop-color="#FEB60A"/>
</linearGradient>
<linearGradient id="paint5_linear_1342_220" x1="66.5968" y1="28.9887" x2="71.3153" y2="28.7197" gradientUnits="userSpaceOnUse">
<stop stop-color="#01AAE5"/>
<stop offset="1" stop-color="#FEB60A"/>
</linearGradient>
</defs>
</svg>
