<svg width="130" height="60" viewBox="0 0 130 60" fill="none" xmlns="http://www.w3.org/2000/svg">
<path d="M60.8203 2.31722C60 2.70003 59.3328 3.41097 59.0266 4.23128C58.7969 4.84378 58.7969 4.95316 58.7969 12.5C58.7969 20.0469 58.7969 20.1563 59.0266 20.7688C59.3328 21.5891 60 22.3 60.8203 22.6828C61.4656 22.9891 61.5203 23 63.3031 23C65.0859 23 65.1297 22.9891 65.4469 22.7266C65.8625 22.3766 65.9828 21.8188 65.7422 21.3157C65.4578 20.7141 65.0531 20.5938 63.4234 20.5938C61.8484 20.5938 61.6297 20.5172 61.3562 19.8719C61.1266 19.336 61.1266 5.66409 61.3562 5.12816C61.6844 4.35159 60.6344 4.40628 74.525 4.40628C85.0906 4.40628 87.0703 4.42816 87.3219 4.55941C87.9672 4.88753 87.9453 4.66878 87.9453 12.5438C87.9453 19.325 87.9344 19.7953 87.7484 20.0578C87.4859 20.4516 87.125 20.5719 86.0422 20.6266C85.1672 20.6703 85.1016 20.6922 84.8062 21.0203C84.5109 21.3485 84.5 21.4032 84.5 22.486V23.6016L83.1109 22.2125C82.3344 21.4469 81.5687 20.7688 81.4047 20.7032C81.2078 20.6375 79.7422 20.5938 77.4891 20.5938C73.5187 20.5938 73.2781 20.6266 72.9719 21.2391C72.6656 21.8188 72.7859 22.4094 73.2781 22.8032C73.4859 22.9782 73.8578 23 76.9531 23H80.3875L82.6953 25.286C84.2156 26.8063 85.1016 27.6047 85.3094 27.6594C85.8234 27.7797 86.3812 27.5828 86.6547 27.1672C86.8953 26.8172 86.9062 26.6969 86.9062 24.9032V23H87.2344C87.7266 23 88.6125 22.6282 89.1484 22.1797C89.4656 21.9282 89.7609 21.5344 89.9906 21.0532L90.3516 20.3203V12.5V4.67972L89.9906 3.94691C89.575 3.09378 88.9625 2.53597 88.1094 2.20784C87.5734 2.01097 87.125 2.00003 74.5141 2.00003H61.4766L60.8203 2.31722Z" fill="url(#paint0_linear_1345_281)"/>
<path d="M41.6141 6.74679C40.4766 7.05304 39.6125 7.81867 39.2078 8.89054C39.0109 9.41554 39 9.85304 39 17.2359V25.0234L39.3172 25.6796C39.4922 26.0515 39.8312 26.5327 40.1156 26.7843C40.6297 27.2546 41.625 27.703 42.1719 27.703H42.5V29.6609C42.5 31.5968 42.5 31.6296 42.7734 31.9468C43.0906 32.3187 43.6375 32.4609 44.0969 32.2968C44.2719 32.2312 45.4203 31.1702 46.6562 29.9343L48.9094 27.703H58.2719C67.5797 27.703 67.6562 27.703 68.2687 27.4734C69.0891 27.1671 69.8 26.4999 70.1828 25.6796L70.5 25.0234V17.2359C70.5 9.80929 70.4891 9.41554 70.2922 8.89054C69.9641 8.03742 69.4062 7.42492 68.5531 7.00929L67.8203 6.64835H65.9828H64.1344L63.8172 7.00929C63.4016 7.4796 63.3687 8.1796 63.7625 8.63898C64.025 8.94523 64.0359 8.94523 65.6547 8.99992C67.4047 9.06554 67.7109 9.16398 67.9625 9.72179C68.0609 9.91867 68.0937 11.9968 68.0937 17.2359C68.0937 23.7546 68.0719 24.5093 67.9187 24.739C67.5141 25.3077 67.7328 25.2968 57.5391 25.2968C50.8234 25.2968 47.9906 25.3296 47.8266 25.4171C47.6953 25.4827 46.9844 26.139 46.2516 26.8609L44.9062 28.1952V27.2874C44.9062 25.7234 44.5453 25.2968 43.2109 25.2968C42.8172 25.2968 42.325 25.2312 42.1281 25.1437C41.3625 24.8265 41.4062 25.2749 41.4062 17.2359C41.4062 11.9968 41.4391 9.91867 41.5375 9.72179C41.6031 9.56867 41.7891 9.34992 41.9422 9.25148C42.2047 9.06554 42.7625 9.0546 49.0953 8.99992L55.975 8.94523L56.2375 8.63898C56.6312 8.1796 56.5984 7.4796 56.1828 7.00929L55.8656 6.64835L48.9859 6.62648C43.7797 6.61554 41.9969 6.63742 41.6141 6.74679Z" fill="url(#paint1_linear_1345_281)"/>
<path d="M48.0344 32.4721C47.0719 32.7018 46.1422 33.2486 45.3328 34.0689C43.9984 35.3924 43.5937 36.6283 43.5937 39.3518C43.5937 41.8018 43.8672 42.7971 44.9062 44.1533L45.4422 44.8533L42.6094 46.7346C41.0562 47.7736 39.6781 48.7252 39.5578 48.8564C39.0547 49.3924 39 49.7424 39 52.4439C39 54.9268 39.0109 55.0033 39.2516 55.2768C40.1266 56.2939 42.1937 57.3986 44.0312 57.8361C45.0703 58.0768 53.9297 58.0768 54.9687 57.8361C56.8062 57.3986 58.8734 56.2939 59.7484 55.2768C59.9891 55.0033 60 54.9268 60 52.4439C60 49.7424 59.9453 49.3924 59.4422 48.8564C59.3219 48.7252 57.9437 47.7736 56.3906 46.7346L53.5578 44.8533L54.0937 44.1533C55.1328 42.7971 55.4062 41.8018 55.4062 39.3518C55.4062 37.4596 55.2422 36.508 54.7391 35.4908C54.3125 34.6268 53.175 33.4564 52.2781 32.9861C51.0422 32.3299 49.4344 32.133 48.0344 32.4721ZM50.2984 34.8674C51.425 35.1627 52.1359 35.7643 52.6609 36.8908C52.9234 37.4596 52.9453 37.5799 52.9344 39.2971C52.9344 41.4736 52.7703 42.0314 51.9062 42.9064C50.1781 44.6236 47.2141 44.0111 46.3172 41.7361C46.0875 41.1674 46.0656 40.9158 46.0656 39.2971C46.0547 37.5799 46.0766 37.4596 46.3391 36.8908C46.8531 35.7861 47.5641 35.1627 48.6578 34.8674C49.4016 34.6705 49.5547 34.6705 50.2984 34.8674ZM49.0734 46.3736C49.4125 46.4064 50.0141 46.3736 50.4078 46.308L51.1297 46.1877L54.3672 48.3424L57.5937 50.4971L57.5719 52.2471L57.5391 54.008L56.7078 54.5111C56.2484 54.7846 55.5047 55.1236 55.0672 55.2768C54.2578 55.5393 54.2469 55.5393 49.5 55.5393C44.7859 55.5393 44.7312 55.5393 43.9547 55.2768C43.5281 55.1346 42.7844 54.7955 42.3141 54.5111L41.4609 54.008L41.4281 52.2471L41.4062 50.4971L44.6 48.3424C47.3891 46.4721 47.8484 46.1986 48.1328 46.2533C48.3187 46.2752 48.7344 46.3299 49.0734 46.3736Z" fill="url(#paint2_linear_1345_281)"/>
<path d="M58.7969 33.5V34.7031H60H61.2031V33.5V32.2969H60H58.7969V33.5Z" fill="url(#paint3_linear_1345_281)"/>
<path d="M63.5 33.5V34.7031H64.7031H65.9062V33.5V32.2969H64.7031H63.5V33.5Z" fill="url(#paint4_linear_1345_281)"/>
<path d="M68.0938 33.5V34.7031H69.2969H70.5V33.5V32.2969H69.2969H68.0938V33.5Z" fill="url(#paint5_linear_1345_281)"/>
<path d="M78.3969 32.45C76.4609 32.9203 74.7547 34.5828 74.175 36.5516C74.0437 37.0109 74 37.6563 74 39.2969C74 42.1516 74.175 42.8297 75.2687 44.175C75.5422 44.5141 75.7281 44.8313 75.6734 44.875C75.6297 44.9188 74.3281 45.7938 72.7859 46.8219C71.2437 47.85 69.8984 48.8234 69.7781 48.9984C69.3187 49.6766 69.2969 49.8516 69.2969 52.4547V54.9813L69.8875 55.55C70.9156 56.5453 72.4578 57.3438 74.2187 57.7922C74.9625 57.9781 75.4875 58 79.8078 58C84.5328 58 84.5984 58 85.6484 57.7266C86.9391 57.3984 88.2297 56.7859 89.2578 56.0094C90.3844 55.1563 90.4062 55.0906 90.4062 52.4656C90.4062 49.8953 90.3078 49.4031 89.6734 48.7906C89.4437 48.5828 88.0437 47.5984 86.5672 46.6141L83.8766 44.8203L84.3578 44.2297C84.9703 43.475 85.3312 42.7641 85.5391 41.9C85.7578 40.9484 85.7687 37.6125 85.5391 36.7484C85.0031 34.6813 83.3187 32.9969 81.2516 32.4609C80.5078 32.2641 79.1953 32.2641 78.3969 32.45ZM81.2187 35.0422C81.8859 35.3375 82.6844 36.1469 82.9797 36.825C83.1875 37.2953 83.2312 37.6344 83.275 38.9688C83.3625 41.7359 82.8375 42.8625 81.1312 43.65C80.3547 44 79.1406 43.9672 78.3422 43.5625C77.6094 43.1906 76.9203 42.425 76.6359 41.6484C76.4172 41.0578 76.3953 40.8391 76.4281 39.1328C76.4609 37.4484 76.4828 37.2297 76.7125 36.7594C77.5547 35.0422 79.5125 34.2984 81.2187 35.0422ZM79.3375 46.3625C79.6984 46.4063 80.3219 46.3734 80.7266 46.3078L81.4703 46.1766L84.7297 48.3422L87.9891 50.5078L88 52.2031V53.8984L87.475 54.2484C86.6656 54.7953 85.8562 55.1563 84.9594 55.3859C84.2156 55.5719 83.7344 55.5938 79.8516 55.5938C75.9797 55.5938 75.4875 55.5719 74.7437 55.3859C73.9125 55.1672 72.8953 54.7078 72.1187 54.2047L71.7031 53.9203V52.2141L71.7141 50.5078L74.9625 48.3422C77.4453 46.6906 78.2656 46.1984 78.4516 46.2422C78.5828 46.275 78.9875 46.3297 79.3375 46.3625Z" fill="url(#paint6_linear_1345_281)"/>
<defs>
<linearGradient id="paint0_linear_1345_281" x1="62.2732" y1="27.6337" x2="85.9377" y2="25.4852" gradientUnits="userSpaceOnUse">
<stop stop-color="#01AAE5"/>
<stop offset="1" stop-color="#FEB60A"/>
</linearGradient>
<linearGradient id="paint1_linear_1345_281" x1="42.4703" y1="32.3035" x2="66.0951" y2="30.1662" gradientUnits="userSpaceOnUse">
<stop stop-color="#01AAE5"/>
<stop offset="1" stop-color="#FEB60A"/>
</linearGradient>
<linearGradient id="paint2_linear_1345_281" x1="41.3136" y1="57.956" x2="57.1346" y2="57.0005" gradientUnits="userSpaceOnUse">
<stop stop-color="#01AAE5"/>
<stop offset="1" stop-color="#FEB60A"/>
</linearGradient>
<linearGradient id="paint3_linear_1345_281" x1="59.062" y1="34.6974" x2="60.8715" y2="34.5637" gradientUnits="userSpaceOnUse">
<stop stop-color="#01AAE5"/>
<stop offset="1" stop-color="#FEB60A"/>
</linearGradient>
<linearGradient id="paint4_linear_1345_281" x1="63.7651" y1="34.6974" x2="65.5746" y2="34.5637" gradientUnits="userSpaceOnUse">
<stop stop-color="#01AAE5"/>
<stop offset="1" stop-color="#FEB60A"/>
</linearGradient>
<linearGradient id="paint5_linear_1345_281" x1="68.3588" y1="34.6974" x2="70.1684" y2="34.5637" gradientUnits="userSpaceOnUse">
<stop stop-color="#01AAE5"/>
<stop offset="1" stop-color="#FEB60A"/>
</linearGradient>
<linearGradient id="paint6_linear_1345_281" x1="71.6225" y1="57.9394" x2="87.5253" y2="56.9733" gradientUnits="userSpaceOnUse">
<stop stop-color="#01AAE5"/>
<stop offset="1" stop-color="#FEB60A"/>
</linearGradient>
</defs>
</svg>
