<svg width="130" height="60" viewBox="0 0 130 60" fill="none" xmlns="http://www.w3.org/2000/svg">
<g clip-path="url(#clip0_1344_238)">
<path d="M83.918 1.29449C83.3855 1.53238 82.2074 2.65386 75.8523 9.02027L68.3984 16.4629V13.4043C68.3984 10.4363 68.3871 10.323 68.1266 9.77925C67.7414 8.9523 67.3449 8.53316 66.5633 8.148L65.8723 7.79683H61.6129C57.3875 7.79683 57.3535 7.79683 56.7871 8.06871C55.9602 8.45386 55.541 8.85035 55.1559 9.63199L54.8047 10.323V12.4867V14.6504H52.6863C50.8059 14.6504 50.4434 14.6843 49.5938 14.9109C47.6227 15.4546 45.9121 16.4402 44.4848 17.8675C43.0801 19.2722 42.0152 21.0961 41.5848 22.8406L41.3809 23.6562H39.9535C38.5941 23.6562 38.5035 23.6675 37.8352 24.0074C37.0535 24.3925 36.657 24.8117 36.2719 25.6386C36.0113 26.1711 36 26.3296 36 28.5386V30.8722L36.3512 31.5632C36.7137 32.3109 37.1102 32.7074 37.8578 33.0812C38.107 33.2058 38.3336 33.3191 38.3449 33.3304C38.3676 33.3531 39.2965 38.5527 40.418 44.9078C41.5395 51.2515 42.5363 56.6777 42.6496 56.9609C42.7516 57.2441 43.0801 57.7199 43.4086 58.0484C44.4621 59.0906 42.4344 59 65 59C87.5656 59 85.5379 59.0906 86.5914 58.0484C86.9199 57.7199 87.2484 57.2441 87.3504 56.9609C87.4637 56.6777 88.4605 51.2515 89.582 44.9078C90.7148 38.5527 91.6438 33.3418 91.6551 33.3304C91.6664 33.3191 91.893 33.2058 92.1422 33.0812C92.8898 32.7074 93.2863 32.3109 93.6488 31.5632L94 30.8722V28.5386C94 26.3296 93.9887 26.1711 93.7281 25.6386C93.343 24.8117 92.9465 24.3925 92.1648 24.0074L91.4738 23.6562H88.993H86.5234V20.3937V17.1199L86.1723 16.4289C85.7871 15.6472 85.368 15.2507 84.541 14.8656C84.0199 14.6164 83.8273 14.5937 82.0488 14.5937H80.123L84.1672 10.5382C88.7551 5.93902 88.7891 5.90503 88.7891 4.38706C88.7891 3.65074 88.7438 3.42417 88.4379 2.83511C88.0527 2.05347 87.6336 1.65699 86.8066 1.27183C85.991 0.886674 84.7676 0.898002 83.918 1.29449ZM86.127 3.66206C86.3422 3.86597 86.4102 4.05855 86.4102 4.42105V4.90816L75.9543 15.3527L65.5098 25.8086H65.0453C64.3996 25.8086 63.9805 25.3894 63.9805 24.7437V24.2793L74.4363 13.8347L84.8809 3.37886H85.368C85.7305 3.37886 85.923 3.44683 86.127 3.66206ZM65.5891 10.3117C65.7703 10.4363 65.9402 10.6968 66.0082 10.9347C66.0875 11.1953 66.1328 12.8378 66.1328 15.0468V18.7285L64.6375 20.2238L63.1535 21.7078L62.6551 20.7222C61.6922 18.7851 59.823 16.882 57.9313 15.8964L57.059 15.4433L57.093 13.1777C57.127 10.6402 57.1949 10.391 57.8973 10.1871C58.1012 10.1191 59.7777 10.0851 61.7715 10.0964C64.9094 10.1191 65.3285 10.1418 65.5891 10.3117ZM54.4648 17.1652C57.4215 17.7656 60.027 20.1105 61.0465 23.0558L61.2504 23.6562H52.5391H43.8277L43.9184 23.339C44.2242 22.2742 44.9719 20.9488 45.8102 19.9519C47.1809 18.3546 49.7863 17.0746 51.9727 16.95C52.7543 16.9046 53.5246 16.9726 54.4648 17.1652ZM83.7141 17.1086C84.1898 17.4144 84.2578 17.9242 84.2578 20.9035V23.6562H77.6648H71.0605L74.459 20.2578L77.8574 16.848L80.6328 16.882C83.057 16.916 83.4535 16.9386 83.7141 17.1086ZM61.8848 26.2957C62.202 26.964 62.723 27.4851 63.4367 27.8363C64.0258 28.1421 64.2523 28.1875 64.9887 28.1875C66.1555 28.1875 66.8125 27.8703 67.9453 26.7714L68.8063 25.9218H79.6246C86.784 25.9218 90.5789 25.9671 90.8621 26.0464C91.5871 26.239 91.6777 26.5109 91.6777 28.4707C91.6777 29.6714 91.6324 30.2718 91.5305 30.4644C91.1906 31.1101 91.8023 31.0761 79.9418 31.1101L68.9875 31.1328L68.693 31.4386C68.2738 31.8578 68.2738 32.6734 68.693 33.1039L68.9988 33.3984H79.0582C87.7582 33.3984 89.1289 33.4211 89.1289 33.557C89.1289 33.6476 88.2453 38.7566 87.1578 44.8964C85.6738 53.3246 85.1301 56.1226 84.9828 56.2925C84.8809 56.4058 84.609 56.5531 84.3824 56.6211C83.816 56.7797 46.184 56.7797 45.6176 56.6211C45.391 56.5531 45.1191 56.4058 45.0172 56.2925C44.8699 56.1226 44.3262 53.3246 42.8422 44.8964C41.7547 38.7566 40.8711 33.6476 40.8711 33.557C40.8711 33.4211 42.2418 33.3984 50.9418 33.3984H61.0012L61.307 33.1039C61.7262 32.6734 61.7262 31.8578 61.307 31.4386L61.0125 31.1328L50.0582 31.1101C39.6023 31.0761 39.1039 31.0648 38.8094 30.8609C38.3563 30.5664 38.243 29.966 38.2883 28.2441C38.3223 26.5675 38.4469 26.2277 39.0926 26.0464C39.3078 25.9898 44.0316 25.9332 50.5793 25.9332L61.7035 25.9218L61.8848 26.2957Z" fill="url(#paint0_linear_1344_238)"/>
<path d="M64.1617 31.4273C63.9238 31.6652 63.8672 31.8352 63.8672 32.2656C63.8672 32.6961 63.9238 32.866 64.1617 33.1039C64.3996 33.3418 64.5695 33.3984 65 33.3984C65.4305 33.3984 65.6004 33.3418 65.8383 33.1039C66.0762 32.866 66.1328 32.6961 66.1328 32.2656C66.1328 31.8352 66.0762 31.6652 65.8383 31.4273C65.6004 31.1895 65.4305 31.1328 65 31.1328C64.5695 31.1328 64.3996 31.1895 64.1617 31.4273Z" fill="url(#paint1_linear_1344_238)"/>
<path d="M50.568 38.2239L50.2734 38.5298V45.0661V51.6024L50.568 51.9083C50.9984 52.3274 51.8141 52.3274 52.2445 51.9083L52.5391 51.6024V45.0661V38.5298L52.2445 38.2239C52.0066 37.986 51.8367 37.9294 51.4063 37.9294C50.9758 37.9294 50.8059 37.986 50.568 38.2239Z" fill="url(#paint2_linear_1344_238)"/>
<path d="M57.3648 38.2239L57.0703 38.5298V45.0661V51.6024L57.3648 51.9083C57.7953 52.3274 58.6109 52.3274 59.0414 51.9083L59.3359 51.6024V45.0661V38.5298L59.0414 38.2239C58.8035 37.986 58.6336 37.9294 58.2031 37.9294C57.7727 37.9294 57.6027 37.986 57.3648 38.2239Z" fill="url(#paint3_linear_1344_238)"/>
<path d="M64.1617 38.2239L63.8672 38.5298V45.0661V51.6024L64.1617 51.9083C64.5922 52.3274 65.4078 52.3274 65.8383 51.9083L66.1328 51.6024V45.0661V38.5298L65.8383 38.2239C65.6004 37.986 65.4305 37.9294 65 37.9294C64.5695 37.9294 64.3996 37.986 64.1617 38.2239Z" fill="url(#paint4_linear_1344_238)"/>
<path d="M70.9586 38.2239L70.6641 38.5298V45.0661V51.6024L70.9586 51.9083C71.3891 52.3274 72.2047 52.3274 72.6352 51.9083L72.9297 51.6024V45.0661V38.5298L72.6352 38.2239C72.3973 37.986 72.2273 37.9294 71.7969 37.9294C71.3664 37.9294 71.1965 37.986 70.9586 38.2239Z" fill="url(#paint5_linear_1344_238)"/>
<path d="M77.7555 38.2239L77.4609 38.5298V45.0661V51.6024L77.7555 51.9083C78.1859 52.3274 79.0016 52.3274 79.432 51.9083L79.7266 51.6024V45.0661V38.5298L79.432 38.2239C79.1941 37.986 79.0242 37.9294 78.5938 37.9294C78.1633 37.9294 77.9934 37.986 77.7555 38.2239Z" fill="url(#paint6_linear_1344_238)"/>
</g>
<defs>
<linearGradient id="paint0_linear_1344_238" x1="42.3898" y1="58.8651" x2="86.0072" y2="55.6412" gradientUnits="userSpaceOnUse">
<stop stop-color="#01AAE5"/>
<stop offset="1" stop-color="#FEB60A"/>
</linearGradient>
<linearGradient id="paint1_linear_1344_238" x1="64.1168" y1="33.3931" x2="65.8206" y2="33.2671" gradientUnits="userSpaceOnUse">
<stop stop-color="#01AAE5"/>
<stop offset="1" stop-color="#FEB60A"/>
</linearGradient>
<linearGradient id="paint2_linear_1344_238" x1="50.523" y1="52.1889" x2="52.2359" y2="52.1689" gradientUnits="userSpaceOnUse">
<stop stop-color="#01AAE5"/>
<stop offset="1" stop-color="#FEB60A"/>
</linearGradient>
<linearGradient id="paint3_linear_1344_238" x1="57.3199" y1="52.1889" x2="59.0328" y2="52.1689" gradientUnits="userSpaceOnUse">
<stop stop-color="#01AAE5"/>
<stop offset="1" stop-color="#FEB60A"/>
</linearGradient>
<linearGradient id="paint4_linear_1344_238" x1="64.1168" y1="52.1889" x2="65.8297" y2="52.1689" gradientUnits="userSpaceOnUse">
<stop stop-color="#01AAE5"/>
<stop offset="1" stop-color="#FEB60A"/>
</linearGradient>
<linearGradient id="paint5_linear_1344_238" x1="70.9137" y1="52.1889" x2="72.6265" y2="52.1689" gradientUnits="userSpaceOnUse">
<stop stop-color="#01AAE5"/>
<stop offset="1" stop-color="#FEB60A"/>
</linearGradient>
<linearGradient id="paint6_linear_1344_238" x1="77.7105" y1="52.1889" x2="79.4234" y2="52.1689" gradientUnits="userSpaceOnUse">
<stop stop-color="#01AAE5"/>
<stop offset="1" stop-color="#FEB60A"/>
</linearGradient>
<clipPath id="clip0_1344_238">
<rect width="58" height="58" fill="white" transform="translate(36 1)"/>
</clipPath>
</defs>
</svg>
