<svg width="130" height="60" viewBox="0 0 130 60" fill="none" xmlns="http://www.w3.org/2000/svg">
<path d="M82.5827 0.260105C79.2802 0.623944 76.1316 1.79942 73.2628 3.71658C71.5696 4.86407 70.66 5.7037 68.9388 7.7328L67.4694 9.45404L66.2519 9.11818C65.5662 8.93627 64.1529 8.54444 63.0893 8.26456L61.1582 7.7328L61.2562 7.17305C61.4661 5.7037 59.7868 5.29788 58.7373 6.55732C58.5414 6.78122 58.3175 6.96314 58.2335 6.96314C58.0656 6.96314 53.7275 5.81565 53.6295 5.75967C53.6015 5.73168 53.7135 5.54976 53.8814 5.33986C54.0354 5.12995 54.1753 4.7941 54.1753 4.58419C54.1753 3.80054 53.2937 3.18481 52.566 3.46469C52.3981 3.52066 51.9223 3.89849 51.5025 4.27633L50.7328 4.97602L45.849 3.6606C42.5744 2.77899 40.8252 2.37317 40.5593 2.42915C40.0975 2.5271 39.9296 2.77899 38.3063 5.7037C37.0049 8.04066 36.8789 8.53044 37.4107 9.02023C37.5926 9.18815 42.2386 11.875 47.7381 15.0096C53.2377 18.1442 57.7577 20.7191 57.7717 20.733C57.8137 20.775 47.5842 32.7537 47.0385 33.3275L46.6326 33.7333L41.7208 33.2155C37.3128 32.7397 36.767 32.7117 36.4871 32.8937C36.0953 33.1595 34.5 35.4685 34.3741 35.9583C34.3181 36.1682 34.3601 36.4901 34.486 36.728C34.6679 37.0778 35.3116 37.3997 39.048 39.0649L43.3861 41.0101L45.0373 42.7033L46.7026 44.3966L48.5778 48.6507C50.257 52.443 50.5089 52.9188 50.8728 53.0727C51.4465 53.3106 51.9363 53.1427 53.1957 52.2751C54.763 51.1976 54.875 51.0856 54.875 50.4279C54.875 50.106 54.6511 47.839 54.3852 45.3761L53.9094 40.8981L54.2173 40.5903C55.2808 39.5547 66.8537 29.801 66.9376 29.885C66.9936 29.941 68.365 32.3059 69.9743 35.1607C71.5976 38.0014 73.0669 40.4503 73.2209 40.5903C73.7106 40.9821 74.3823 40.8981 74.8162 40.3803C75.11 40.0445 75.166 39.8486 75.11 39.5267C75.068 39.3028 73.6127 36.644 71.9054 33.6353L68.7708 28.1777L72.4232 25.0571C74.4243 23.3359 76.1036 21.9785 76.1456 22.0485C76.2015 22.1044 76.3835 22.6782 76.5514 23.3359C76.7193 23.9936 76.9432 24.6653 77.0552 24.8332C77.335 25.267 78.1467 25.393 78.5945 25.0991C79.2662 24.6653 79.2802 24.3155 78.7344 22.2444C78.4545 21.2088 78.2446 20.2712 78.2726 20.1873C78.3006 20.0893 79.0983 19.3477 80.0638 18.55C83.1705 15.9332 85.0596 13.1204 86.361 9.21614C87.0327 7.22902 87.3266 5.60574 87.4386 3.38072C87.5365 1.33763 87.4526 0.735895 86.9908 0.442025C86.557 0.162149 84.29 0.0641921 82.5827 0.260105ZM84.9197 3.98246C84.7238 7.43893 83.3524 11.0353 81.0714 14.072C80.1618 15.2895 80.3017 15.1635 71.6675 22.5103C56.1484 35.7064 51.6424 39.6247 51.5585 39.9885C51.5025 40.1844 51.6984 42.4794 51.9783 45.0963C52.4401 49.4483 52.468 49.8681 52.2581 50.0221C52.1322 50.12 51.9923 50.176 51.9503 50.134C51.8943 50.106 51.1386 48.4548 50.257 46.4677L48.6477 42.8573L46.6886 40.8981L44.7295 38.939L41.1191 37.3437C39.132 36.4621 37.4947 35.7064 37.4667 35.6644C37.4387 35.6225 37.4807 35.4685 37.5786 35.3426C37.7326 35.1327 38.0824 35.1467 42.0707 35.5945C44.4636 35.8464 46.7446 36.0703 47.1364 36.0703H47.8781L51.6144 31.6902C53.6855 29.2833 58.9472 23.084 63.3412 17.9343C67.7213 12.7846 71.7235 8.15261 72.2273 7.64884C75.25 4.61218 79.9099 2.63905 84.3879 2.49911L85.0036 2.48512L84.9197 3.98246ZM53.7555 8.23657C60.1786 9.94382 65.4823 11.3852 65.5523 11.4412C65.6642 11.5391 59.5069 18.8019 59.339 18.7599C59.283 18.7319 54.889 16.241 49.5713 13.2184L39.9296 7.7188L40.7133 6.3614C41.371 5.22791 41.5529 5.00401 41.7908 5.05998C41.9447 5.10196 47.3323 6.52933 53.7555 8.23657Z" fill="url(#paint0_linear_1345_310)"/>
<path d="M69.2886 19.0824C61.578 25.7715 62.1517 25.2257 62.1517 25.8554C62.1517 26.6251 62.5296 27.0449 63.2432 27.0449C63.6211 27.0449 63.9289 26.947 64.1388 26.7511C64.3208 26.5831 67.0216 24.2462 70.1562 21.5314C73.2908 18.8166 75.9636 16.4656 76.0756 16.2977C76.3694 15.8779 76.3414 15.3181 75.9916 14.8843C75.7677 14.5904 75.5858 14.5205 75.124 14.5205C74.5502 14.5345 74.3543 14.6884 69.2886 19.0824Z" fill="url(#paint1_linear_1345_310)"/>
<path d="M49.3894 36.4767C48.1859 37.6942 48.018 37.9181 48.018 38.3519C48.018 39.0935 48.4658 39.5693 49.1795 39.5693C49.7252 39.5693 49.8372 39.4854 51.1246 38.1979C52.4121 36.9105 52.496 36.7846 52.496 36.2668C52.496 35.5111 52.0622 35.0913 51.3065 35.0913C50.7888 35.0913 50.6488 35.1893 49.3894 36.4767Z" fill="url(#paint2_linear_1345_310)"/>
<path d="M77.5729 27.7159L77.2651 28.0377V35.2585C77.2651 42.1575 77.2791 42.4933 77.531 42.8012L77.7968 43.1371L86.6829 43.179L95.569 43.207L95.9748 42.8712L96.3666 42.5353L96.4086 35.5524C96.4226 31.7181 96.4086 28.4436 96.3666 28.2616C96.3246 28.0937 96.1707 27.8278 96.0168 27.6739C95.7369 27.394 95.513 27.394 86.8089 27.394H77.8668L77.5729 27.7159ZM85.6614 30.5286C85.6614 31.4382 85.9412 31.8441 86.6549 31.956C87.0467 32.026 87.2287 31.97 87.5505 31.7041C87.8724 31.4242 87.9563 31.2143 88.0123 30.5706L88.0683 29.773H91.063H94.0576V35.3005V40.8281H86.8508H79.644V35.3005V29.773H82.6527H85.6614V30.5286Z" fill="url(#paint3_linear_1345_310)"/>
<path d="M57.4218 44.5089L57.114 44.8307V52.0515C57.114 58.9505 57.1279 59.2863 57.3798 59.5942L57.6457 59.93L66.5318 59.972L75.4178 60L75.8237 59.6641L76.2155 59.3283L76.2575 52.3454C76.2715 48.5111 76.2575 45.2365 76.2155 45.0546C76.1735 44.8867 76.0196 44.6208 75.8657 44.4669C75.5858 44.187 75.3619 44.187 66.6577 44.187H57.7157L57.4218 44.5089ZM65.5102 47.3216C65.5102 48.2312 65.7901 48.637 66.5038 48.749C66.8956 48.8189 67.0775 48.763 67.3994 48.4971C67.7213 48.2172 67.8052 48.0073 67.8612 47.3636L67.9172 46.5659H70.9118H73.9065V52.0935V57.6211H66.6997H59.4929V52.0935V46.5659H62.5016H65.5102V47.3216Z" fill="url(#paint4_linear_1345_310)"/>
<path d="M77.5729 44.5089L77.2651 44.8307V52.0515C77.2651 58.9505 77.2791 59.2863 77.531 59.5942L77.7968 59.93L86.6829 59.972L95.569 60L95.9748 59.6641L96.3666 59.3283L96.4086 52.3454C96.4226 48.5111 96.4086 45.2365 96.3666 45.0546C96.3246 44.8867 96.1707 44.6208 96.0168 44.4669C95.7369 44.187 95.513 44.187 86.8089 44.187H77.8668L77.5729 44.5089ZM85.6614 47.3216C85.6614 48.2312 85.9412 48.637 86.6549 48.749C87.0467 48.8189 87.2287 48.763 87.5505 48.4971C87.8724 48.2172 87.9563 48.0073 88.0123 47.3636L88.0683 46.5659H91.063H94.0576V52.0935V57.6211H86.8508H79.644V52.0935V46.5659H82.6527H85.6614V47.3216Z" fill="url(#paint5_linear_1345_310)"/>
<defs>
<linearGradient id="paint0_linear_1345_310" x1="40.2025" y1="53.0459" x2="80.1529" y2="50.0861" gradientUnits="userSpaceOnUse">
<stop stop-color="#01AAE5"/>
<stop offset="1" stop-color="#FEB60A"/>
</linearGradient>
<linearGradient id="paint1_linear_1345_310" x1="63.6993" y1="27.0154" x2="74.3131" y2="26.1298" gradientUnits="userSpaceOnUse">
<stop stop-color="#01AAE5"/>
<stop offset="1" stop-color="#FEB60A"/>
</linearGradient>
<linearGradient id="paint2_linear_1345_310" x1="48.5113" y1="39.5588" x2="51.8789" y2="39.3098" gradientUnits="userSpaceOnUse">
<stop stop-color="#01AAE5"/>
<stop offset="1" stop-color="#FEB60A"/>
</linearGradient>
<linearGradient id="paint3_linear_1345_310" x1="79.3747" y1="43.1697" x2="93.7386" y2="41.8838" gradientUnits="userSpaceOnUse">
<stop stop-color="#01AAE5"/>
<stop offset="1" stop-color="#FEB60A"/>
</linearGradient>
<linearGradient id="paint4_linear_1345_310" x1="59.2236" y1="59.9627" x2="73.5874" y2="58.6768" gradientUnits="userSpaceOnUse">
<stop stop-color="#01AAE5"/>
<stop offset="1" stop-color="#FEB60A"/>
</linearGradient>
<linearGradient id="paint5_linear_1345_310" x1="79.3747" y1="59.9627" x2="93.7386" y2="58.6768" gradientUnits="userSpaceOnUse">
<stop stop-color="#01AAE5"/>
<stop offset="1" stop-color="#FEB60A"/>
</linearGradient>
</defs>
</svg>
