<svg width="130" height="60" viewBox="0 0 130 60" fill="none" xmlns="http://www.w3.org/2000/svg">
<path d="M42.3416 0.814301C41.41 1.18937 40.8655 1.68542 40.5025 2.49604C40.4179 2.70172 40.2364 2.83481 39.9581 2.8953C38.8208 3.14938 37.623 4.0084 36.9455 5.0489C36.0986 6.35557 36.1107 6.22248 36.1107 14.1351V21.2251H35.0702H34.0297L34.0781 23.548C34.1386 25.6895 34.1748 25.9799 34.5015 27.093C35.2516 29.6096 36.4615 31.6059 38.3248 33.4086C40.0912 35.1145 42.2448 36.4212 44.3863 37.0867L45.3058 37.377V38.6474C45.3179 41.2487 45.6567 42.5069 46.5762 43.3539C47.0601 43.7894 47.7256 44.0919 48.2458 44.0919C48.4273 44.0919 48.4515 44.2371 48.4515 45.447C48.4515 47.8909 48.9112 50.0929 49.8308 52.0287C51.7545 56.0818 55.1059 58.7315 59.3042 59.53C60.6834 59.7841 62.958 59.7115 64.422 59.3364C69.0437 58.187 72.7339 54.267 74.0043 49.1734C74.2583 48.1692 74.2704 47.8546 74.3309 36.2881L74.4035 24.4313L74.7302 23.4633C75.6739 20.6806 77.888 18.7811 80.5134 18.5028C82.788 18.2608 85.3046 19.6401 86.5992 21.8421C87.3493 23.1246 87.555 23.9473 87.6276 25.9073L87.676 27.6374H87.3614C87.1799 27.6374 86.6234 27.7947 86.1031 28.0004C81.2999 29.8636 79.9448 36.0945 83.5503 39.8089C85.0989 41.4059 86.9137 42.1077 89.1641 41.9988C91.1362 41.902 92.576 41.2608 93.9432 39.8694C95.3466 38.4417 96 36.8205 96 34.7758C96 33.4207 95.8064 32.6343 95.2015 31.3881C94.3545 29.6822 92.3945 28.1214 90.5555 27.7221L89.8901 27.577L89.8175 25.7621C89.6965 22.5075 88.8859 20.608 86.7686 18.5996C85.7643 17.6559 84.2278 16.7969 82.9332 16.4944C81.9895 16.2645 79.9085 16.3008 78.9527 16.5549C75.8675 17.3897 73.4356 19.9184 72.504 23.2335C72.2378 24.1772 72.2378 24.2982 72.1652 36.0462C72.0926 47.7215 72.0805 47.9151 71.8265 48.8467C71.1852 51.1455 70.2052 52.8515 68.5961 54.4364C66.382 56.6384 63.7928 57.6547 60.8649 57.4853C59.3042 57.3885 58.4814 57.1707 56.957 56.4206C53.037 54.4848 50.6293 50.3107 50.6293 45.4107C50.6293 44.2371 50.6535 44.0919 50.8471 44.0919C51.3552 44.0919 52.0207 43.7894 52.5046 43.3539C53.4241 42.5069 53.7629 41.2487 53.775 38.6353V37.3649L54.7066 37.0746C58.5056 35.9131 62.1595 32.7553 63.7807 29.2345C64.0227 28.7263 64.3736 27.7584 64.5793 27.093C64.9059 25.9799 64.9422 25.6895 65.0027 23.548L65.0511 21.2251H64.0106H62.9701V14.3287C62.9701 7.04521 62.9459 6.64595 62.4015 5.56915C61.7965 4.37136 60.2963 3.14938 59.1227 2.8953C58.8323 2.83481 58.6871 2.71382 58.5661 2.42345C58.0338 1.14097 56.3157 0.390841 54.8518 0.814301C52.5046 1.50394 51.8392 4.58914 53.6903 6.17409C55.0817 7.34768 57.2595 7.08151 58.2758 5.61754L58.675 5.0368L59.0985 5.25458C59.6066 5.52075 60.1995 6.1257 60.5019 6.70644C60.7197 7.1057 60.7318 7.57756 60.7681 14.1714L60.8044 21.2251H59.7639H58.7355V22.7011C58.7355 24.4676 58.5177 25.5685 57.9612 26.73C56.5093 29.7789 53.6419 31.5212 50.0848 31.5333C46.5157 31.5454 43.612 29.8031 42.148 26.7784C41.6156 25.6774 41.4342 24.7942 41.3495 22.9431L41.2769 21.2251H39.7887H38.2885V14.2319C38.2885 7.73484 38.3127 7.21459 38.5183 6.76694C38.8329 6.0773 39.3048 5.55705 39.8734 5.27878L40.3816 5.0247L40.7324 5.54495C41.3737 6.51286 42.4384 7.02101 43.6603 6.92422C44.5557 6.85163 45.0396 6.62175 45.6688 5.96841C46.2858 5.32717 46.5641 4.49235 46.4915 3.51234C46.3584 1.8669 45.1848 0.765906 43.491 0.693312C43.0554 0.681214 42.5352 0.729609 42.3416 0.814301ZM43.8781 3.00419C44.4226 3.41555 44.3742 4.21408 43.8055 4.60124C43.2369 4.96421 42.4021 4.48025 42.4021 3.77852C42.4021 3.06469 43.3337 2.58073 43.8781 3.00419ZM56.3762 3.13728C56.9207 3.66963 56.6424 4.52865 55.8923 4.72223C55.251 4.87951 54.634 4.11729 54.876 3.47605C55.1301 2.79851 55.8681 2.61703 56.3762 3.13728ZM39.1959 24.2135C39.3774 26.0525 40.1517 28.1093 41.1559 29.4644C41.8818 30.4444 43.2127 31.6422 44.229 32.2229C49.4315 35.2355 56.3278 33.699 59.3647 28.8473C60.2479 27.4197 60.756 25.9073 60.877 24.3345L60.9496 23.4029H61.9175H62.8854L62.8128 24.4555C62.5588 28.1577 60.1632 31.7632 56.5698 33.8563C52.3231 36.3244 46.7577 36.3244 42.511 33.8563C38.9176 31.7632 36.522 28.1577 36.268 24.4555L36.1954 23.4029H37.6472H39.1112L39.1959 24.2135ZM90.1078 29.8757C91.596 30.3234 92.7091 31.2913 93.3745 32.6948C93.7375 33.4449 93.7617 33.6022 93.7617 34.7758C93.7617 35.9494 93.7375 36.1066 93.3866 36.8447C92.9269 37.8247 91.959 38.8168 91.0273 39.2886C88.0026 40.801 84.3609 38.9257 83.768 35.538C83.4293 33.6506 84.4093 31.5333 86.1031 30.4686C87.2404 29.7426 88.8859 29.5007 90.1078 29.8757ZM51.5609 39.3128C51.5004 40.7768 51.3794 41.3092 51.0285 41.6963C50.7382 42.0109 48.3426 42.0109 48.0522 41.6963C47.7014 41.3092 47.5804 40.7768 47.5199 39.3128L47.4473 37.861H49.5404H51.6335L51.5609 39.3128Z" fill="url(#paint0_linear_1345_336)"/>
<path d="M87.4703 31.9205C84.8932 33.1183 85.0868 36.8447 87.7727 37.74C89.3577 38.2603 91.1725 37.4134 91.717 35.8768C91.8017 35.6348 91.8742 35.1025 91.8863 34.7032C91.8984 32.4528 89.515 30.9526 87.4703 31.9205ZM89.4061 34.1104C89.7327 34.425 89.7932 34.9573 89.5513 35.2719C88.9826 36.0099 87.8574 35.6832 87.8574 34.7758C87.8574 33.941 88.8253 33.5175 89.4061 34.1104Z" fill="url(#paint1_linear_1345_336)"/>
<defs>
<linearGradient id="paint0_linear_1345_336" x1="40.8569" y1="59.5406" x2="87.4337" y2="55.9231" gradientUnits="userSpaceOnUse">
<stop stop-color="#01AAE5"/>
<stop offset="1" stop-color="#FEB60A"/>
</linearGradient>
<linearGradient id="paint1_linear_1345_336" x1="86.3313" y1="37.8788" x2="91.0263" y2="37.5333" gradientUnits="userSpaceOnUse">
<stop stop-color="#01AAE5"/>
<stop offset="1" stop-color="#FEB60A"/>
</linearGradient>
</defs>
</svg>
