<svg width="130" height="60" viewBox="0 0 130 60" fill="none" xmlns="http://www.w3.org/2000/svg">
<path d="M56.9542 3.33984C52.2901 5.39062 49.2549 6.77344 49.126 6.9375C48.9268 7.17188 48.9151 7.66406 48.962 16.1602C48.9971 24.8555 49.0088 25.1602 49.2432 25.957C49.9463 28.3242 50.8253 29.8125 52.3956 31.2891C53.462 32.2969 64.0206 39.8672 64.5362 39.9961C64.8174 40.0664 65.1456 40.0664 65.4268 39.9961C65.9424 39.8672 76.3487 32.4141 77.4971 31.3477C79.1143 29.8477 80.0049 28.3594 80.7198 25.957C80.9542 25.1602 80.9659 24.8555 81.001 16.1484L81.0479 7.14844L80.7784 6.87891C80.3799 6.49219 65.462 0 64.9698 0C64.712 0 61.9463 1.14844 56.9542 3.33984ZM72.1182 5.28516L78.9385 8.26172L78.8917 16.5234C78.8565 24.0469 78.8331 24.8438 78.6456 25.4883C78.1417 27.1875 77.2393 28.6641 76.0206 29.7773C75.6456 30.1289 73.0088 32.0859 70.1612 34.1367L64.9815 37.8633L59.7432 34.0898C56.8487 32.0039 54.212 30.0352 53.8604 29.707C52.7003 28.6289 51.8096 27.1406 51.3174 25.4883C51.1299 24.8438 51.1065 24.0469 51.0713 16.5234L51.0362 8.26172L57.9151 5.25C61.712 3.58594 64.9112 2.25 65.0518 2.26172C65.1807 2.28516 68.3682 3.64453 72.1182 5.28516Z" fill="url(#paint0_linear_1345_353)"/>
<path d="M59.0049 6.80859C55.1846 8.48437 53.3565 9.35156 53.1807 9.55078L52.9112 9.85547V16.9102C52.9112 24.7734 52.9229 24.9023 53.6846 26.4492C54.3878 27.8672 55.1026 28.4883 60.0479 32.0391C64.0089 34.8984 64.5948 35.2734 64.9815 35.2734C65.3682 35.2734 65.9542 34.8984 69.9151 32.0391C74.8604 28.4883 75.5753 27.8672 76.2784 26.4492C77.0401 24.9023 77.0518 24.7734 77.0518 16.9102V9.85547L76.794 9.55078C76.4424 9.15234 65.4737 4.33594 64.9346 4.34765C64.7354 4.34765 62.0987 5.4375 59.0049 6.80859ZM69.9737 8.71875L74.8839 10.875L74.919 17.1797C74.9307 20.9062 74.8956 23.7422 74.8253 24.1055C74.6846 24.9023 74.2393 25.8398 73.712 26.4492C73.4776 26.7187 71.4268 28.2891 69.1417 29.9414L64.9815 32.9414L60.8214 29.9297C58.5362 28.2891 56.4737 26.7187 56.251 26.4492C55.7237 25.8398 55.2784 24.9023 55.1378 24.1055C55.0674 23.7422 55.0323 20.9062 55.044 17.1797L55.0792 10.875L59.9424 8.73047C62.6143 7.54687 64.8643 6.58594 64.9346 6.57422C64.9932 6.5625 67.2667 7.53515 69.9737 8.71875Z" fill="url(#paint1_linear_1345_353)"/>
<path d="M70.3955 12.1408C70.2432 12.2463 68.4854 14.7893 66.4815 17.7893C64.4775 20.801 62.8018 23.2971 62.7666 23.3557C62.7197 23.4025 61.9463 22.8869 61.044 22.2072C59.6494 21.1643 59.3565 20.9768 58.9697 20.9768C58.1729 20.9768 57.6924 21.7971 58.0674 22.5119C58.1377 22.6408 59.1807 23.4729 60.376 24.3752C62.6025 26.051 62.8838 26.1916 63.5166 25.9455C63.6221 25.8986 65.5674 23.0861 67.8291 19.6994C72.3643 12.9143 72.376 12.8908 71.7315 12.258C71.3916 11.9065 70.8057 11.8596 70.3955 12.1408Z" fill="url(#paint2_linear_1345_353)"/>
<path d="M37.5948 26.2617C35.9776 26.543 34.8994 27.9258 35.0049 29.6133C35.0401 30.3516 35.1924 30.7383 36.9619 34.6289C39.1182 39.375 39.5518 40.2656 40.0557 41.0156C40.2432 41.3086 41.9776 43.125 43.8994 45.0586L47.4033 48.5859L47.169 49.043C46.9463 49.4766 46.9346 49.7227 46.9346 54.0234C46.9346 58.4883 46.9463 58.5352 47.2041 59.0039C47.3448 59.2617 47.6494 59.5898 47.8721 59.7305L48.2705 60L54.5518 59.9766L60.8448 59.9414L61.2549 59.625C62.0518 59.0156 62.0635 58.8633 62.0283 53.7656L61.9932 49.2422L61.6299 48.7852C61.3955 48.5039 61.0557 48.2578 60.669 48.1055L60.0596 47.8711V46.6758C60.0596 43.3828 59.0987 40.7813 57.1768 38.8359C56.4151 38.0625 56.1807 37.9102 54.3994 37.043C52.1612 35.9648 50.9658 35.2383 49.4658 34.0078C48.1885 32.9766 47.5791 32.6367 46.583 32.4609C45.6924 32.2969 44.8838 32.3906 43.9698 32.7539L43.2783 33.0234L42.9619 32.3086C42.7862 31.9102 42.2705 30.7148 41.8252 29.6719C40.958 27.6094 40.5362 26.9883 39.751 26.5898C39.1768 26.2852 38.251 26.1563 37.5948 26.2617ZM38.9307 28.6289C39.0596 28.7695 39.7744 30.2813 40.501 31.9805C41.2627 33.7617 42.0596 35.4492 42.3994 35.9648C42.8096 36.5977 43.8408 37.7227 45.9151 39.8086C48.7393 42.6563 48.8799 42.7734 49.3135 42.7734C49.9346 42.7734 50.333 42.3633 50.333 41.707C50.333 41.2266 50.2862 41.1797 47.3448 38.2031C45.7041 36.5391 44.3565 35.1211 44.3565 35.0508C44.3565 34.8984 44.8721 34.6289 45.3877 34.5117C46.1494 34.3477 46.8174 34.6406 48.0479 35.6367C49.7471 37.0195 50.9073 37.7578 53.0401 38.7773C55.1963 39.8203 55.7119 40.207 56.4737 41.3555C57.4698 42.8555 57.9385 44.5547 57.9502 46.7227V47.9297H53.8721H49.794L45.8096 43.9102C42.5401 40.6289 41.7549 39.7734 41.4385 39.1641C40.5244 37.418 37.0908 29.6836 37.0908 29.3789C37.0908 28.3945 38.2393 27.9258 38.9307 28.6289ZM59.9424 53.9648V57.8906H54.4932H49.044V53.9648V50.0391H54.4932H59.9424V53.9648Z" fill="url(#paint3_linear_1345_353)"/>
<path d="M55.1963 53.3438C54.9385 53.6484 54.8916 53.8008 54.9502 54.1289C55.0674 54.8555 55.3486 55.0195 56.4854 55.0195C57.6221 55.0195 57.9033 54.8555 58.0205 54.1289C58.0791 53.8008 58.0322 53.6484 57.7744 53.3438C57.4697 52.9805 57.4346 52.9688 56.4854 52.9688C55.5361 52.9688 55.501 52.9805 55.1963 53.3438Z" fill="url(#paint4_linear_1345_353)"/>
<path d="M90.7159 26.3198C90.3174 26.4487 89.9542 26.6831 89.544 27.105C89.0284 27.6323 88.8409 27.9722 88.1378 29.648C87.6924 30.7144 87.1768 31.9097 87.001 32.3081L86.6846 33.023L85.9815 32.7417C84.669 32.2144 83.2862 32.2612 82.0792 32.8589C81.7628 33.023 81.1182 33.48 80.6495 33.8784C79.2901 35.0269 77.7198 36.0112 75.5987 37.0308C73.7823 37.9097 73.5596 38.0503 72.7862 38.8355C70.8526 40.7808 69.9034 43.3823 69.9034 46.6987V47.9058L69.5284 47.9878C68.9659 48.105 68.3917 48.5972 68.1339 49.148C67.9346 49.5933 67.9112 49.98 67.9112 54.023C67.9112 58.9448 67.9346 59.0855 68.7432 59.6597L69.1417 59.9409L75.3878 59.9761C82.3135 60.0112 82.0089 60.0464 82.6417 59.2144L82.9698 58.7925L83.0049 54.1636C83.0401 49.7222 83.0284 49.523 82.794 49.0542L82.5596 48.5737L86.0635 45.0581C87.9854 43.1245 89.7198 41.3081 89.9073 41.0151C90.4229 40.2534 90.962 39.1284 93.0596 34.5112C94.8643 30.5269 94.9229 30.3862 94.9581 29.519C95.0049 28.523 94.8174 27.9136 94.2198 27.2105C93.4815 26.3315 91.9229 25.9331 90.7159 26.3198ZM92.2862 28.4175C92.6964 28.6284 92.8721 28.9214 92.8721 29.3784C92.8721 29.6831 89.4385 37.4175 88.5245 39.1636C88.2081 39.773 87.4229 40.6284 84.1534 43.9097L80.169 47.9292H76.0909H72.0128V46.7222C72.0245 44.5542 72.4932 42.855 73.4776 41.3667C74.2628 40.1831 74.7315 39.8315 76.9581 38.7417C79.1612 37.6753 80.3448 36.9253 81.9854 35.5776C83.1339 34.6401 83.7667 34.3706 84.5167 34.5112C85.0557 34.605 85.6065 34.8862 85.6065 35.0503C85.6065 35.1206 84.2589 36.5386 82.6182 38.2026C79.7237 41.1323 79.6299 41.2378 79.6299 41.6831C79.6299 42.3159 80.0753 42.773 80.6612 42.773C81.0596 42.773 81.2823 42.5737 83.9424 39.9253C87.5284 36.3628 87.6924 36.1167 89.4737 31.9565C90.2003 30.269 90.8799 28.7925 90.9854 28.6636C91.3604 28.2417 91.7823 28.1597 92.2862 28.4175ZM80.919 53.9644V57.8901H75.4698H70.0206V53.9644V50.0386H75.4698H80.919V53.9644Z" fill="url(#paint5_linear_1345_353)"/>
<path d="M72.1885 53.3438C71.9307 53.6484 71.8838 53.8008 71.9424 54.1289C72.0596 54.8555 72.3408 55.0195 73.4775 55.0195C74.6143 55.0195 74.8955 54.8555 75.0127 54.1289C75.0713 53.8008 75.0244 53.6484 74.7666 53.3438C74.4619 52.9805 74.4268 52.9688 73.4775 52.9688C72.5283 52.9688 72.4932 52.9805 72.1885 53.3438Z" fill="url(#paint6_linear_1345_353)"/>
<defs>
<linearGradient id="paint0_linear_1345_353" x1="52.4765" y1="39.9544" x2="76.67" y2="38.5204" gradientUnits="userSpaceOnUse">
<stop stop-color="#01AAE5"/>
<stop offset="1" stop-color="#FEB60A"/>
</linearGradient>
<linearGradient id="paint1_linear_1345_353" x1="55.5708" y1="35.2005" x2="73.7637" y2="34.1506" gradientUnits="userSpaceOnUse">
<stop stop-color="#01AAE5"/>
<stop offset="1" stop-color="#FEB60A"/>
</linearGradient>
<linearGradient id="paint2_linear_1345_353" x1="59.4907" y1="26.0068" x2="70.0912" y2="25.2223" gradientUnits="userSpaceOnUse">
<stop stop-color="#01AAE5"/>
<stop offset="1" stop-color="#FEB60A"/>
</linearGradient>
<linearGradient id="paint3_linear_1345_353" x1="37.9769" y1="59.9203" x2="58.3519" y2="58.7144" gradientUnits="userSpaceOnUse">
<stop stop-color="#01AAE5"/>
<stop offset="1" stop-color="#FEB60A"/>
</linearGradient>
<linearGradient id="paint4_linear_1345_353" x1="55.2709" y1="55.0147" x2="57.5972" y2="54.7534" gradientUnits="userSpaceOnUse">
<stop stop-color="#01AAE5"/>
<stop offset="1" stop-color="#FEB60A"/>
</linearGradient>
<linearGradient id="paint5_linear_1345_353" x1="70.8917" y1="59.9105" x2="91.2766" y2="58.7049" gradientUnits="userSpaceOnUse">
<stop stop-color="#01AAE5"/>
<stop offset="1" stop-color="#FEB60A"/>
</linearGradient>
<linearGradient id="paint6_linear_1345_353" x1="72.2631" y1="55.0147" x2="74.5894" y2="54.7534" gradientUnits="userSpaceOnUse">
<stop stop-color="#01AAE5"/>
<stop offset="1" stop-color="#FEB60A"/>
</linearGradient>
</defs>
</svg>
