<svg width="130" height="60" viewBox="0 0 130 60" fill="none" xmlns="http://www.w3.org/2000/svg">
<path d="M53.3464 1.77131C50.3459 2.27409 47.9455 4.91778 47.7184 7.95071C47.5725 9.81589 48.1726 11.7297 49.3079 13.0272C49.5998 13.3516 49.7944 13.6273 49.762 13.6598C49.7296 13.6922 49.3241 13.9031 48.87 14.1463C45.7073 15.8493 43.4042 19.3851 43.0312 23.1478C42.9014 24.4778 43.096 25.1428 43.7124 25.4185C43.9881 25.5482 46.4696 25.5969 51.9191 25.5969C59.2663 25.5969 59.7042 25.6131 59.5907 25.8726C59.2987 26.6673 59.023 28.2406 59.023 29.2624C59.023 30.2517 59.0717 30.4464 59.396 30.7545L59.7691 31.1113H70.5222H81.2591L81.6484 30.7059C81.9728 30.3977 82.0539 30.1544 82.0539 29.457C82.0539 28.6947 81.843 27.4296 81.4862 26.0348L81.3727 25.5969H89.2389C96.9428 25.5969 97.105 25.5969 97.5267 25.2563C97.916 24.9481 97.9484 24.8184 97.9484 23.7479C97.9484 20.2771 95.9211 16.6441 92.8395 14.5843C92.1907 14.1463 91.5582 13.7571 91.4446 13.7246C91.2987 13.676 91.4122 13.4003 91.8339 12.8326C93.0665 11.1621 93.5044 9.44285 93.2287 7.49658C93.0179 6.03688 92.3853 4.75559 91.3149 3.68514C87.9576 0.344042 82.3296 1.31718 80.2374 5.61519C79.7346 6.63698 79.7021 6.79917 79.7021 8.48594C79.7021 10.1403 79.7346 10.3511 80.2049 11.3242C80.4806 11.9081 80.951 12.6704 81.2591 13.0272C81.5673 13.3678 81.7295 13.676 81.6322 13.7084C81.5511 13.7409 80.9996 14.0328 80.432 14.3734C79.0534 15.1681 77.399 16.8225 76.5394 18.2659C75.8258 19.4986 75.7934 19.5148 75.4041 19.2715C75.2095 19.1418 75.2419 19.0282 75.6636 18.5903C76.7665 17.4063 77.3504 15.8493 77.3504 14.049C77.3504 11.4216 75.8096 9.02116 73.3768 7.82096C72.4685 7.39927 72.2576 7.35061 70.5384 7.35061C68.7706 7.35061 68.6084 7.38305 67.5866 7.86962C63.5157 9.79967 62.3641 15.1844 65.2997 18.6065C65.8187 19.2229 65.8187 19.2553 65.4944 19.3526C65.316 19.4175 65.1375 19.4337 65.1213 19.4013C65.0889 19.3851 64.8294 18.9147 64.5374 18.3795C63.84 17.1306 61.6505 14.9411 60.4016 14.2437C59.8664 13.9517 59.396 13.6922 59.3798 13.6598C59.3474 13.6436 59.6231 13.2219 59.9799 12.7353C63.1426 8.56703 60.7422 2.56603 55.617 1.75509C55.0332 1.67399 54.4979 1.60912 54.4006 1.60912C54.3195 1.62534 53.833 1.69021 53.3464 1.77131ZM56.1847 4.78803C57.5147 5.46922 58.4229 6.68564 58.6338 8.01559C58.7797 9.03738 58.3256 10.3998 57.5471 11.2432C55.5035 13.4651 52.1138 12.8975 50.8162 10.1078C49.7458 7.82096 51.1406 5.16106 53.7519 4.49608C54.3844 4.3339 55.5684 4.47987 56.1847 4.78803ZM88.136 4.82046C89.5795 5.453 90.5526 6.97758 90.5364 8.56703C90.5039 11.9406 86.66 13.8057 83.9677 11.7622C83.0108 11.0323 82.3783 9.76723 82.3783 8.58325C82.3783 7.15599 83.0108 6.03688 84.3732 4.99887C84.8435 4.64205 86.141 4.35011 86.8385 4.44743C87.1791 4.49608 87.7629 4.65827 88.136 4.82046ZM72.3387 10.4809C76.1664 12.4758 74.7716 18.1362 70.4573 18.1362C69.2247 18.1362 68.3813 17.7469 67.5217 16.8062C65.9485 15.087 66.062 12.6704 67.7812 11.1134C68.6895 10.3025 69.2896 10.0592 70.5547 10.043C71.2683 10.0267 71.6738 10.124 72.3387 10.4809ZM56.3145 15.6223C58.6824 16.125 61.1153 17.9416 62.2344 20.05L62.7696 21.0556L61.9911 21.9476L61.2126 22.8397H53.541H45.8533L45.9668 22.3045C46.6642 19.1093 49.4701 16.3359 52.7463 15.6223C54.0762 15.3303 54.9683 15.3303 56.3145 15.6223ZM88.1035 15.6223C91.5095 16.3359 94.0883 18.7687 94.9641 22.0612L95.1588 22.8397H87.5197H79.8805L79.0209 21.9963L78.1776 21.1529L78.6966 20.1798C79.4102 18.8012 81.2105 17.0333 82.5404 16.3846C83.6595 15.8331 85.2814 15.4114 86.3519 15.3952C86.7087 15.3952 87.5034 15.4925 88.1035 15.6223ZM73.4578 21.5259C75.2419 22.1909 76.7665 23.3911 77.7883 24.9157C78.356 25.7915 79.1345 27.6243 79.1345 28.1108C79.1345 28.3217 77.9505 28.3541 70.4736 28.3541H61.8127L62.0235 27.5269C62.5263 25.6293 63.9536 23.6506 65.6403 22.4829C67.8137 20.9907 70.9926 20.6015 73.4578 21.5259Z" fill="url(#paint0_linear_1345_380)"/>
<path d="M46.9236 29.0678C46.3722 29.1975 45.545 29.4895 45.0585 29.7328C44.134 30.2193 44.0205 30.2842 41.3119 32.3602L39.5765 33.6902L39.2845 33.0901C39.0737 32.7008 38.7169 32.3602 38.2465 32.1169C37.3869 31.6628 37.1112 31.6952 34.1918 32.5062C31.6941 33.2198 31.2724 33.5442 31.1751 34.8742C31.1102 35.5878 31.5319 37.3557 33.8025 45.7895C35.2785 51.3201 36.5922 56.1372 36.7382 56.5102C37.3383 58.1645 38.3601 58.3754 41.6687 57.4671C44.0367 56.8346 44.5881 56.494 44.9125 55.5046C45.0098 55.2127 45.0747 54.6288 45.0423 54.2071L44.9936 53.4448L46.1127 52.8285C47.4102 52.1311 48.951 51.7905 50.1188 51.9365C50.5729 52.0013 53.1842 52.569 55.9089 53.2178C60.6773 54.3369 60.9692 54.3855 62.9155 54.3855C64.6023 54.3855 65.1051 54.3206 65.8836 54.0287C66.4026 53.8341 72.2414 50.5578 78.8587 46.7302C87.3736 41.8159 91.104 39.5776 91.5906 39.0911C92.6934 38.0044 93.1638 36.8366 93.1476 35.1661C93.1476 33.4145 92.6286 32.1332 91.4284 31.0141C90.3417 29.9923 89.401 29.603 87.7953 29.5219C86.6762 29.457 86.3518 29.5057 85.5247 29.8463C85.0057 30.0571 81.5024 32.0196 77.772 34.1767C71.0087 38.0855 70.7168 38.2153 70.7006 37.4692C70.7006 37.0151 69.8248 35.5878 69.1436 34.8904C68.7381 34.5011 68.0407 33.9983 67.5703 33.7875C67.1 33.5766 63.0777 32.3927 58.6175 31.1762C49.8106 28.7758 48.9348 28.6137 46.9236 29.0678ZM57.8876 33.8686C66.5648 36.2365 66.8405 36.3501 67.6028 37.4043C69.0463 39.4479 67.6839 42.3024 65.1051 42.5781C64.6347 42.643 63.2561 42.3349 59.9474 41.4266C57.4659 40.7454 55.2277 40.194 54.952 40.194C54.287 40.194 53.6707 40.8265 53.6707 41.5401C53.6707 42.2375 54.1248 42.7241 55.0169 42.9674C55.3899 43.0647 57.5633 43.6486 59.8339 44.2811C63.5967 45.3029 64.0833 45.4002 65.1862 45.3354C67.246 45.238 69.3058 43.973 70.214 42.2538C70.5546 41.605 71.0087 41.3131 78.5505 36.9664C85.5571 32.9117 86.6113 32.344 87.3412 32.2791C89.9849 32.0521 91.477 35.3283 89.547 37.161C89.0766 37.5989 66.8243 50.5092 65.3483 51.1904C64.732 51.4823 64.0995 51.6283 63.2399 51.677C62.1694 51.7418 61.3909 51.5959 56.5901 50.5092C53.6058 49.8118 50.6216 49.2279 49.9404 49.1792C48.3834 49.0657 46.6641 49.4063 45.1882 50.1362C44.4908 50.4768 44.0529 50.6227 44.0205 50.5092C43.9718 50.4119 43.1284 47.2816 42.1391 43.5513L40.3225 36.7556L40.7118 36.3825C40.9226 36.1879 42.2364 35.1661 43.615 34.1281C46.2749 32.1169 47.2967 31.6304 48.805 31.6142C49.2592 31.5979 52.6489 32.4413 57.8876 33.8686ZM39.5278 44.5244C40.9713 49.9253 42.1228 54.3855 42.0904 54.418C42.058 54.4504 41.4092 54.6612 40.6307 54.8721L39.2521 55.2451L39.0088 54.418C38.7007 53.3313 34.0134 35.7824 33.981 35.5878C33.9647 35.4743 36.1218 34.7768 36.7219 34.6957C36.8193 34.6957 38.0681 39.1073 39.5278 44.5244Z" fill="url(#paint1_linear_1345_380)"/>
<defs>
<linearGradient id="paint0_linear_1345_380" x1="49.0474" y1="31.0417" x2="89.8276" y2="25.4258" gradientUnits="userSpaceOnUse">
<stop stop-color="#01AAE5"/>
<stop offset="1" stop-color="#FEB60A"/>
</linearGradient>
<linearGradient id="paint1_linear_1345_380" x1="37.9971" y1="57.9313" x2="83.7302" y2="50.7385" gradientUnits="userSpaceOnUse">
<stop stop-color="#01AAE5"/>
<stop offset="1" stop-color="#FEB60A"/>
</linearGradient>
</defs>
</svg>
