<svg width="130" height="60" viewBox="0 0 130 60" fill="none" xmlns="http://www.w3.org/2000/svg">
<g clip-path="url(#clip0_1345_400)">
<path d="M63.7695 0.222656C62.9375 0.597656 44.2227 13.4648 43.7188 13.9922C43.4609 14.2734 43.1797 14.7188 43.1094 14.9648C42.8984 15.668 42.9336 16.7461 43.1914 17.2852C43.4727 17.8828 44.1758 18.5625 44.7852 18.8203C45.4766 19.1133 46.6484 19.0781 47.2813 18.7617C47.5625 18.6211 47.8203 18.5273 47.8438 18.5508C47.8672 18.5742 47.8789 19.8398 47.8672 21.3633L47.832 24.1172L42.7344 22.0664C36.9922 19.7461 36.7695 19.6875 35.8555 20.2969C34.9297 20.9062 35 19.7344 35 35.5078C35 51.293 34.9297 50.1094 35.8555 50.7188C36.2891 51 36.4297 51.0352 37.3906 51.0352C39.1367 51.0234 39.8633 50.543 40.7422 48.832C41.0234 48.3047 41.2578 47.8594 41.2695 47.8359C41.2813 47.8242 41.6328 47.9648 42.043 48.1641L42.7813 48.5156L42.793 49.5352C42.793 50.4609 42.8281 50.6367 43.1445 51.1992C43.7773 52.3359 44.8906 52.9219 46.25 52.8281L47.0703 52.7695L47.3164 53.1562C48.0195 54.3047 49.2969 54.9258 50.7148 54.8086L51.5 54.7383L51.875 55.3359C52.5781 56.4258 53.7969 57.0117 55.1563 56.9297L55.8359 56.8945L56.2344 57.4688C56.8086 58.3242 57.6523 58.7578 58.7305 58.7578C59.4219 58.7578 59.6562 58.6992 60.1836 58.418C60.5234 58.2305 60.8984 57.9609 61.0039 57.8203C61.1914 57.5742 61.1914 57.5742 62.3633 58.5234C63.9687 59.8242 64.3437 60 65.5156 60C66.6289 60 67.2031 59.7773 67.8711 59.1211C68.1172 58.875 68.4102 58.4414 68.5391 58.1602L68.7617 57.6562H69.4883C69.8867 57.6445 70.4023 57.5742 70.6484 57.4922C71.457 57.1992 72.2305 56.3672 72.5 55.4883C72.6406 55.0078 72.6406 55.0078 73.4258 54.8906C75.1484 54.6094 76.1797 53.6836 76.6602 51.9492C76.6953 51.8555 76.8359 51.8438 77.2109 51.9375C78.7461 52.2773 80.5859 51.3633 81.3477 49.8516C81.6289 49.3008 81.6875 49.043 81.6875 48.293C81.6992 47.8008 81.6523 47.2383 81.6055 47.0391L81.5117 46.6875L84.6172 45.3867L87.7344 44.0977L88.6953 45.9023C89.7383 47.8477 90.1953 48.4219 90.9453 48.7617C91.9766 49.207 93.6406 49.1602 94.2617 48.6445C94.4023 48.5273 94.625 48.2578 94.7539 48.0352C95 47.6367 95 47.5898 95 34.4414V21.2461L94.7305 20.8594C94.3437 20.2734 93.7812 19.9922 93.0078 19.9922C92.457 19.9922 91.625 20.2734 87.2656 21.9258L82.168 23.8594L82.1328 21.2344C82.1211 19.7812 82.1328 18.5742 82.1562 18.5508C82.1797 18.5273 82.4375 18.6211 82.7187 18.7617C83.3281 19.0664 84.5234 19.1133 85.168 18.8438C85.8008 18.5742 86.457 17.9414 86.75 17.2852C87.2891 16.1484 87.0078 14.6133 86.1406 13.8164C85.625 13.3359 66.7695 0.46875 66.2305 0.222656C65.9258 0.0820312 65.4922 0 65 0C64.5078 0 64.0742 0.0820312 63.7695 0.222656ZM66.3008 2.77734C74.7031 8.48438 84.4531 15.1992 84.6641 15.4219C84.9922 15.7852 84.9922 16.1719 84.6758 16.5703C84.1484 17.2383 84.4062 17.3906 74.5391 10.6406C66.7461 5.32031 65.3516 4.39453 65 4.39453C64.6484 4.39453 63.2539 5.30859 55.4492 10.6523C48.8047 15.2109 46.2266 16.9102 45.9805 16.9102C45.5586 16.9102 45.0781 16.4531 45.0781 16.043C45.0781 15.8672 45.1953 15.5859 45.3477 15.4219C45.4883 15.2695 49.8945 12.1992 55.1445 8.625C62.0703 3.89062 64.7656 2.10938 65 2.10938C65.1992 2.10938 65.6914 2.36719 66.3008 2.77734ZM72.5234 11.8711L79.9414 16.957L79.9766 20.9062L80 24.8672L79.6133 25.3242C79.168 25.8281 78.9453 26.4609 78.9453 27.1523C78.9453 27.75 79.0859 28.1484 79.7187 29.3203C80 29.8477 80.2227 30.2812 80.1992 30.293C80.1875 30.3047 79.5078 30.5625 78.6875 30.8555C77.0469 31.4531 76.2383 31.5469 75.4766 31.2305C75.2422 31.1367 73.9297 30.2227 72.5586 29.2148L70.0508 27.3633L70.0391 24.4688C70.0391 22.7227 69.9922 21.4453 69.9102 21.2461C69.7344 20.7539 69.1133 20.168 68.6328 20.0391C68.0937 19.8867 61.9062 19.8867 61.3672 20.0391C60.8867 20.168 60.2656 20.7539 60.0898 21.2461C60.0078 21.457 59.9609 22.875 59.9609 25.0195V28.4531L59.5508 29.0859C59.3281 29.4258 59.1055 29.7891 59.0703 29.9062C59.0352 30.0352 58.8359 30.1289 58.4609 30.1758C58.1563 30.2109 57.0547 30.4102 56 30.6094L54.1016 30.9727L53.1055 30.7734C51.957 30.5508 50.4688 30.0234 50.3867 29.8242C50.3633 29.7422 50.4805 29.3906 50.6445 29.0625C51.2422 27.8906 51.1602 26.7773 50.4102 25.6641L50 25.0547L50.0234 21L50.0586 16.957L57.4414 11.8828C61.5078 9.09375 64.8945 6.80859 64.9648 6.80859C65.0469 6.79688 68.4453 9.08203 72.5234 11.8711ZM67.9297 23.9648C67.9297 25.0312 67.9062 25.8984 67.8828 25.8984C67.8594 25.8984 67.6602 25.8164 67.4258 25.7227C66.1367 25.1836 64.25 25.2656 62.8672 25.9336L62.0703 26.3203V24.1758V22.0312H65H67.9297V23.9648ZM92.8906 34.4883V46.9336L92.375 46.8984C92.0352 46.8633 91.7773 46.7695 91.625 46.6055C91.4961 46.4648 89.0586 42.0352 86.2109 36.7617C82.6133 30.0938 81.0664 27.1172 81.1133 26.9648C81.1484 26.8359 81.2656 26.6719 81.3711 26.5781C81.4883 26.4727 91.4023 22.5586 92.8672 22.043C92.8789 22.0312 92.8906 27.6328 92.8906 34.4883ZM41.7969 24.0234C48.7813 26.8477 48.6641 26.8008 48.8281 27.1875C48.8984 27.375 48.9336 27.6328 48.8867 27.7734C48.6992 28.3594 38.4922 48.4922 38.293 48.6797C38.1641 48.7969 37.8477 48.9141 37.5898 48.9492L37.1094 49.0195V35.5664C37.1094 24.8555 37.1445 22.1367 37.2617 22.1836C37.332 22.207 39.3828 23.0391 41.7969 24.0234ZM66.7695 27.8555C67.0508 27.9844 68.8203 29.2148 70.6836 30.5742C72.6758 32.0273 74.3516 33.1523 74.7266 33.3047C75.2539 33.5156 75.5937 33.5625 76.6016 33.5625C77.8086 33.5625 77.8672 33.5508 79.5312 32.9062C80.4687 32.543 81.2656 32.2852 81.3008 32.332C81.4297 32.4492 86.6914 42.2109 86.6562 42.2461C86.6328 42.2578 85.1797 42.8555 83.4102 43.582C80.2461 44.8594 80.1875 44.8828 79.9531 44.6719C79.5547 44.3086 66.3828 32.7891 65.9023 32.3672C65.3516 31.8984 64.8125 31.8633 64.332 32.2734C63.8984 32.6484 63.875 33.3633 64.2852 33.7969L64.5664 34.0898L63.7578 35.0039C60.1953 39 60.2422 38.9648 59.4102 38.8711C58.7187 38.8008 58.2148 38.3203 58.1211 37.6641C58.0742 37.2539 58.2266 36.8203 59.4336 34.1602C60.1836 32.4844 61.0391 30.7617 61.3203 30.3281C61.9297 29.4141 62.9727 28.3359 63.5 28.0547C64.5781 27.4922 65.7969 27.4219 66.7695 27.8555ZM52.5195 32.8242C53.9141 33.1172 54.3125 33.1055 56.1055 32.7422C56.9375 32.5664 57.6523 32.4609 57.6992 32.4961C57.7344 32.543 57.3828 33.4336 56.9023 34.4766L56.0469 36.3867L56.0352 37.4414C56.0352 38.6016 56.2109 39.082 56.9258 39.8906C57.7344 40.8164 59.4336 41.2383 60.7109 40.8398C61.5547 40.5703 61.9648 40.207 64.2969 37.6172C65.3398 36.457 66.2187 35.5078 66.2422 35.5078C66.2656 35.5078 69.1836 38.0625 72.7109 41.1914C76.4141 44.4727 79.2266 47.0625 79.3789 47.3203C79.8359 48.0703 79.6719 48.8789 78.9805 49.4062C78.4766 49.793 77.6094 49.9102 77.1641 49.6758C76.9883 49.582 75.4297 48.2578 73.6836 46.7227C70.5664 43.9922 70.4961 43.9453 69.9922 43.9453C69.3477 43.9453 68.9844 44.332 68.9844 44.9883C68.9844 45.4922 69.1016 45.6211 72.0898 48.2227C73.1914 49.1836 74.1758 50.0977 74.2812 50.2617C74.4102 50.4492 74.4922 50.7891 74.4922 51.1172C74.4922 51.5742 74.4219 51.75 74.1406 52.0781C73.9414 52.3008 73.5898 52.5469 73.3672 52.6172C72.5703 52.8867 72.3594 52.7461 69.9219 50.3203C68.668 49.0781 67.4844 48 67.2969 47.9297C66.6172 47.6719 65.9375 48.1641 65.9375 48.9023C65.9375 49.3477 66.0195 49.4648 68.2227 51.6797C70.2383 53.7188 70.5078 54.0352 70.5078 54.375C70.5078 54.8789 69.957 55.4297 69.4414 55.4297C69.125 55.4297 68.8906 55.2539 67.8828 54.2695C66.5352 52.957 66.3008 52.8047 65.7617 52.8984C65.2812 52.9922 65.0117 53.2969 64.918 53.8125C64.8594 54.1992 64.918 54.293 65.75 55.1953C66.5469 56.0625 66.6406 56.2148 66.6406 56.625C66.6406 57.2812 66.1367 57.7734 65.4922 57.7734C65.082 57.7734 64.8477 57.6445 63.6406 56.6953C62.8672 56.1094 62.2344 55.6172 62.2227 55.6055C62.1992 55.5938 62.375 55.1719 62.5977 54.6562C63.1133 53.4844 63.1602 52.5234 62.7266 51.6094C62.2695 50.625 61.1562 49.9219 60.0664 49.9219C59.6445 49.9219 59.6094 49.8867 59.4805 49.4648C59.2695 48.7734 58.5781 47.9414 57.8633 47.543C57.3711 47.2617 57.0547 47.1797 56.375 47.1328C55.5547 47.0859 55.4961 47.0625 55.4258 46.7695C55.1914 45.75 54.4063 44.8359 53.4102 44.3672C52.6367 44.0156 51.1953 44.0273 50.4688 44.4023C50.1758 44.5547 49.8477 44.7539 49.7422 44.8477C49.5664 45 49.5078 44.9883 49.1563 44.7305C48.1719 44.0039 47.1758 43.793 46.1094 44.1094C45.2539 44.3555 44.3867 45.1289 44.0352 45.9375C43.8125 46.4531 43.7422 46.5234 43.5195 46.4531C43.2852 46.3828 42.3828 45.9609 42.2891 45.8789C42.2656 45.8555 43.8359 42.6797 45.7695 38.8125L49.2852 31.7812L50.375 32.1914C50.9727 32.4258 51.9453 32.707 52.5195 32.8242ZM47.5508 46.2422C47.75 46.3359 47.9844 46.5938 48.0781 46.8164C48.2305 47.1797 48.2188 47.2734 48.0078 47.8008C47.6328 48.7617 46.8828 50.2031 46.6484 50.4023C45.9336 51.0234 44.8438 50.543 44.8438 49.6172C44.8438 49.4531 45.1484 48.668 45.5352 47.8711C46.0508 46.7812 46.3086 46.3828 46.5547 46.2422C46.9883 46.0195 47.1172 46.0078 47.5508 46.2422ZM52.6602 46.4062C53.7031 47.0391 53.6563 47.6484 52.332 50.332C51.4414 52.125 51.3008 52.3359 50.9023 52.5352C50.3281 52.8281 49.7188 52.7227 49.2852 52.2539C48.6641 51.5859 48.6992 51.3398 49.7656 49.0195C50.832 46.7227 50.8438 46.6992 51.3477 46.3828C51.8047 46.1133 52.1914 46.1133 52.6602 46.4062ZM56.7969 49.3945C57.2188 49.6055 57.5 50.1211 57.5 50.6484C57.5 51.0938 56.2227 53.9297 55.8359 54.3398C55.543 54.6445 55.0039 54.832 54.5938 54.75C54.1602 54.668 53.5508 54.0117 53.457 53.5312C53.3867 53.1562 53.4688 52.8867 54.1016 51.5391C54.9219 49.7461 55.3672 49.2188 56.0352 49.2188C56.2695 49.2188 56.6094 49.3008 56.7969 49.3945ZM60.418 52.207C61.0859 52.5469 61.0625 52.9453 60.2656 54.6914C59.4922 56.3555 59.293 56.6016 58.7539 56.6016C58.332 56.6016 58.0508 56.3789 57.875 55.8984C57.7461 55.5586 57.875 55.1836 58.7188 53.4258C59.3633 52.0664 59.7031 51.832 60.418 52.207Z" fill="url(#paint0_linear_1345_400)"/>
<path d="M63.7461 10.125C61.8359 10.7461 60.6641 12.7148 61.0273 14.6953C61.2617 16.0195 62.0352 17.0508 63.207 17.6367C63.8164 17.9414 64.0039 17.9766 65 17.9766C65.9961 17.9766 66.1836 17.9414 66.793 17.6367C67.9648 17.0508 68.7383 16.0195 68.9727 14.6953C69.2891 12.9492 68.375 11.1328 66.7813 10.3477C66.0078 9.97266 64.5547 9.85547 63.7461 10.125ZM65.7383 12.2344C66.7813 12.668 67.2031 13.9453 66.6523 14.9648C66.4648 15.3281 65.8086 15.8086 65.375 15.8906C64.4492 16.0781 63.3945 15.4102 63.1367 14.4727C62.7266 12.9844 64.3086 11.625 65.7383 12.2344Z" fill="url(#paint1_linear_1345_400)"/>
</g>
<defs>
<linearGradient id="paint0_linear_1345_400" x1="41.6091" y1="59.8585" x2="86.7313" y2="56.5226" gradientUnits="userSpaceOnUse">
<stop stop-color="#01AAE5"/>
<stop offset="1" stop-color="#FEB60A"/>
</linearGradient>
<linearGradient id="paint1_linear_1345_400" x1="61.8509" y1="17.9577" x2="67.9217" y2="17.5047" gradientUnits="userSpaceOnUse">
<stop stop-color="#01AAE5"/>
<stop offset="1" stop-color="#FEB60A"/>
</linearGradient>
<clipPath id="clip0_1345_400">
<rect width="60" height="60" fill="white" transform="translate(35)"/>
</clipPath>
</defs>
</svg>
