<svg width="130" height="60" viewBox="0 0 130 60" fill="none" xmlns="http://www.w3.org/2000/svg">
<path d="M58.3308 2.13438C56.3457 2.70156 55.1211 4.41602 55.2886 6.43984C55.4047 7.96094 56.3972 9.35313 57.7636 9.92031L58.3437 10.1523V12.1891C58.3437 14.1742 58.3566 14.2258 58.666 14.5352C58.8593 14.7414 59.1301 14.8574 59.375 14.8574C59.6199 14.8574 59.8906 14.7414 60.084 14.5352C60.3933 14.2258 60.4062 14.1742 60.4062 12.1891V10.1523L60.9863 9.92031C61.8113 9.57227 62.6621 8.77305 63.0746 7.92227C63.384 7.29063 63.4355 7.0457 63.4226 6.0918C63.4226 4.88008 63.1906 4.23555 62.4687 3.35898C61.6308 2.34063 59.6586 1.76055 58.3308 2.13438ZM60.4062 4.45469C61.734 5.34414 61.6437 7.20039 60.2258 7.88359C59.5426 8.21875 59.2074 8.21875 58.55 7.89648C57.5058 7.39375 57.1062 6.28516 57.5961 5.31836C58.1633 4.19688 59.4523 3.79727 60.4062 4.45469Z" fill="url(#paint0_linear_1345_414)"/>
<path d="M70.0355 2.10862C68.3984 2.49534 67.1222 3.93909 66.916 5.64065C66.684 7.41956 67.8957 9.43049 69.507 9.95901L69.9453 10.1137V12.1633C69.9453 14.1742 69.9582 14.2258 70.2675 14.5352C70.6543 14.9348 71.2086 14.9477 71.6726 14.5867L72.0078 14.3289V12.2406V10.1524L72.6136 9.90745C75.5269 8.70862 75.9781 4.54495 73.4 2.76604C72.3945 2.08284 71.1828 1.83792 70.0355 2.10862ZM72.0078 4.44182C72.9875 5.11213 73.2582 6.02737 72.7554 6.99417C72.214 8.0512 70.8347 8.45081 69.9582 7.79338C68.7336 6.89104 68.7336 5.1637 69.9711 4.41604C70.564 4.0551 71.4535 4.06799 72.0078 4.44182Z" fill="url(#paint1_linear_1345_414)"/>
<path d="M56.0234 17.4872C54.2703 17.977 52.9941 19.1887 52.427 20.8903C52.1691 21.6637 52.1562 21.9344 52.1562 30.3262C52.1562 38.718 52.1691 38.9887 52.427 39.7622C53.0328 41.554 54.425 42.8172 56.2812 43.204C56.7969 43.32 59.3621 43.3457 65.8203 43.32L74.6504 43.2813L75.3594 42.9848C76.9062 42.3532 77.9633 41.2059 78.4531 39.6204C78.698 38.8469 78.7109 38.4086 78.7109 30.3262C78.7109 22.2438 78.698 21.8055 78.4531 21.0321C77.9633 19.4465 76.9062 18.2993 75.3594 17.6676L74.6504 17.3711L65.627 17.3454C58.6789 17.3325 56.4746 17.3582 56.0234 17.4872ZM74.3152 19.5754C74.7793 19.7043 75.1789 19.9493 75.6172 20.3747C76.6742 21.4059 76.6484 21.1739 76.6484 30.3262C76.6484 39.4528 76.6742 39.2079 75.6172 40.252C74.573 41.309 74.8437 41.2832 65.4336 41.2832C56.2684 41.2832 56.3328 41.2832 55.366 40.4196C55.0824 40.1618 54.7215 39.7106 54.5668 39.427C54.2832 38.8985 54.2832 38.8856 54.2832 30.3262C54.2832 21.7797 54.2832 21.754 54.5668 21.2383C54.9793 20.4778 55.6625 19.8848 56.4359 19.6141C57.0676 19.395 57.6992 19.3821 65.382 19.3692C72.4848 19.3692 73.7352 19.395 74.3152 19.5754Z" fill="url(#paint2_linear_1345_414)"/>
<path d="M61.6437 24.4223C61.3086 24.7574 60.7156 25.9563 58.9882 29.8621C57.1191 34.1031 56.7839 34.9539 56.8613 35.3148C56.9515 35.8305 57.3511 36.127 57.9699 36.127C58.5629 36.127 58.782 35.882 59.375 34.5285L59.8004 33.5488H62.791H65.7816L66.207 34.5414C66.7226 35.7918 67.0191 36.127 67.5863 36.127C68.1793 36.127 68.4629 35.9594 68.6562 35.4953C68.8625 34.9926 68.9656 35.2633 66.3875 29.4754C63.964 24.0355 63.9511 24.0098 62.7781 24.0098C62.1593 24.0098 62.0304 24.0613 61.6437 24.4223ZM63.8738 29.1531C64.3894 30.352 64.7761 31.3961 64.7375 31.4734C64.6086 31.6668 60.9734 31.6668 60.8574 31.4734C60.7414 31.3059 62.6105 26.9746 62.791 26.9746C62.8683 26.9746 63.3582 27.9543 63.8738 29.1531Z" fill="url(#paint3_linear_1345_414)"/>
<path d="M70.9637 24.2545L70.6543 24.4994L70.6156 29.7717C70.6027 32.6592 70.6156 35.16 70.6543 35.3275C70.925 36.4104 72.575 36.4104 72.8457 35.3275C72.8844 35.16 72.8973 32.6592 72.8844 29.7717L72.8457 24.4994L72.5363 24.2545C72.3558 24.1127 72.0336 24.0096 71.75 24.0096C71.4664 24.0096 71.1441 24.1127 70.9637 24.2545Z" fill="url(#paint4_linear_1345_414)"/>
<path d="M88.1597 20.5158C87.0253 20.9025 86.0328 21.8564 85.646 22.9264L85.4914 23.3646H83.4546C81.4566 23.3646 81.405 23.3775 81.0957 23.6869C80.6703 24.0994 80.6703 24.6924 81.0957 25.1049C81.405 25.4142 81.4566 25.4271 83.4417 25.4271H85.4785L85.7105 26.0072C86.0585 26.8322 86.8578 27.683 87.7085 28.0955C88.3402 28.4049 88.5851 28.4564 89.539 28.4435C90.3898 28.4435 90.7636 28.3791 91.2148 28.1599C92.1687 27.6959 92.723 27.1545 93.1742 26.2392C93.5351 25.4916 93.5996 25.2467 93.5996 24.383C93.5996 23.5064 93.548 23.3002 93.1484 22.5139C92.1945 20.6576 90.1449 19.8326 88.1597 20.5158ZM90.3125 22.617C92.0527 23.5064 91.8078 25.7881 89.9128 26.3295C88.598 26.7162 87.18 25.2338 87.5796 23.8931C87.8246 23.081 88.6882 22.3978 89.539 22.3463C89.655 22.3334 90.0031 22.4623 90.3125 22.617Z" fill="url(#paint5_linear_1345_414)"/>
<path d="M39.5363 20.8C38.6855 21.1352 37.7703 22.0246 37.332 22.9141C36.8808 23.8551 36.8937 25.3504 37.3449 26.3301C38.0668 27.8383 39.4074 28.702 41.0703 28.7148C41.9211 28.7148 42.166 28.6504 42.9136 28.2895C43.8675 27.8125 44.5636 27.1035 44.8859 26.2398L45.105 25.6855H47.1547C49.1527 25.6855 49.2043 25.6727 49.5136 25.3633C49.9133 24.9766 49.9261 24.4223 49.5652 23.9582L49.3074 23.623H47.2191H45.1308L44.8859 23.0172C44.5508 22.218 43.7515 21.3672 42.9394 20.9418C42.0242 20.4777 40.516 20.4133 39.5363 20.8ZM41.9726 22.8754C43.0297 23.4168 43.4293 24.7961 42.7718 25.6727C42.3465 26.2527 41.7277 26.5879 41.0832 26.5879C39.2656 26.5879 38.4535 24.4094 39.807 23.1461C40.4515 22.5402 41.1347 22.45 41.9726 22.8754Z" fill="url(#paint6_linear_1345_414)"/>
<path d="M88.4047 32.0664C87.1543 32.4144 86.0328 33.4328 85.6719 34.5285L85.5172 34.9668H83.4676C81.4566 34.9668 81.4051 34.9796 81.0957 35.289C80.6961 35.6757 80.6832 36.23 81.0441 36.6941L81.3019 37.0293H83.3902H85.4785L85.7234 37.6351C86.7031 40.0199 89.8484 40.8836 91.9625 39.3496C93.0711 38.5504 93.7672 36.9648 93.6125 35.6242C93.3031 33.0589 90.8539 31.3832 88.4047 32.0664ZM90.5445 34.3222C92.1172 35.289 91.5629 37.7898 89.7195 38.0089C88.5593 38.1636 87.3734 36.9777 87.5281 35.8175C87.6957 34.4254 89.3586 33.6004 90.5445 34.3222Z" fill="url(#paint7_linear_1345_414)"/>
<path d="M40.1035 32.2466C38.8789 32.5689 37.9895 33.2908 37.4352 34.4123C37.0742 35.1599 37.0098 35.4048 37.0098 36.2685C37.0098 37.1451 37.0613 37.3513 37.4609 38.1377C39.0336 41.2185 43.584 41.0509 44.8988 37.867L45.1309 37.2869H47.1676C49.1527 37.2869 49.2043 37.274 49.5137 36.9646C49.9391 36.5521 49.9391 35.9591 49.5137 35.5466C49.2043 35.2373 49.1527 35.2244 47.1676 35.2244H45.1309L44.8988 34.6443C44.3187 33.2392 42.9137 32.2595 41.3539 32.1822C40.877 32.1564 40.3227 32.1822 40.1035 32.2466ZM42.2047 34.6185C42.6559 34.9279 43.1328 35.7658 43.1328 36.2556C43.1328 36.7584 42.6301 37.6478 42.1918 37.9185C41.5086 38.331 40.9543 38.3697 40.2969 38.0345C38.7242 37.2353 38.7242 35.2759 40.2969 34.4767C40.9672 34.1287 41.5344 34.1802 42.2047 34.6185Z" fill="url(#paint8_linear_1345_414)"/>
<path d="M58.9367 46.0655L58.6015 46.3233V48.4116V50.4999L57.9957 50.7448C55.6109 51.7245 54.7472 54.8698 56.2812 56.9838C57.0804 58.0924 58.666 58.7885 60.0066 58.6338C62.5461 58.3374 64.1961 55.9784 63.5773 53.542C63.2293 52.2014 62.2496 51.067 61.1023 50.6932L60.664 50.5385V48.4889C60.664 46.478 60.6512 46.4264 60.3418 46.117C59.9551 45.7174 59.4008 45.7045 58.9367 46.0655ZM60.6512 52.8588C62.2883 54.0577 61.5922 56.494 59.6199 56.494C58.6273 56.494 57.7379 55.7206 57.6219 54.7409C57.4156 53.1682 59.4137 51.9307 60.6512 52.8588Z" fill="url(#paint9_linear_1345_414)"/>
<path d="M70.5254 46.1172C70.216 46.4266 70.2031 46.4781 70.2031 48.4633V50.5L69.623 50.732C68.798 51.0801 67.9473 51.8793 67.5348 52.7301C67.2254 53.3617 67.1738 53.6066 67.1867 54.5605C67.1867 55.4113 67.2512 55.7852 67.4703 56.2363C67.9344 57.1902 68.4758 57.7445 69.391 58.1957C70.1387 58.5566 70.3836 58.6211 71.2473 58.6211C72.1238 58.6211 72.3301 58.5695 73.1164 58.1699C76.1973 56.5973 76.0297 52.0469 72.8457 50.732L72.2656 50.5V48.4633C72.2656 46.4781 72.2527 46.4266 71.9434 46.1172C71.75 45.9109 71.4793 45.7949 71.2344 45.7949C70.9894 45.7949 70.7187 45.9109 70.5254 46.1172ZM72.0851 52.7688C73.1164 53.2586 73.5031 54.3543 73.0133 55.334C72.2527 56.8293 70.3449 56.9066 69.507 55.4758C68.9527 54.509 69.3523 53.2715 70.3965 52.7559C71.0539 52.4336 71.4019 52.4336 72.0851 52.7688Z" fill="url(#paint10_linear_1345_414)"/>
<defs>
<linearGradient id="paint0_linear_1345_414" x1="56.1714" y1="14.8271" x2="62.3211" y2="14.5385" gradientUnits="userSpaceOnUse">
<stop stop-color="#01AAE5"/>
<stop offset="1" stop-color="#FEB60A"/>
</linearGradient>
<linearGradient id="paint1_linear_1345_414" x1="67.7914" y1="14.8164" x2="73.9814" y2="14.5241" gradientUnits="userSpaceOnUse">
<stop stop-color="#01AAE5"/>
<stop offset="1" stop-color="#FEB60A"/>
</linearGradient>
<linearGradient id="paint2_linear_1345_414" x1="55.0818" y1="43.2678" x2="75.0467" y2="41.7596" gradientUnits="userSpaceOnUse">
<stop stop-color="#01AAE5"/>
<stop offset="1" stop-color="#FEB60A"/>
</linearGradient>
<linearGradient id="paint3_linear_1345_414" x1="58.1622" y1="36.0984" x2="67.1131" y2="35.4485" gradientUnits="userSpaceOnUse">
<stop stop-color="#01AAE5"/>
<stop offset="1" stop-color="#FEB60A"/>
</linearGradient>
<linearGradient id="paint4_linear_1345_414" x1="70.8618" y1="36.111" x2="72.5842" y2="36.0871" gradientUnits="userSpaceOnUse">
<stop stop-color="#01AAE5"/>
<stop offset="1" stop-color="#FEB60A"/>
</linearGradient>
<linearGradient id="paint5_linear_1345_414" x1="82.1893" y1="28.426" x2="91.7563" y2="27.3156" gradientUnits="userSpaceOnUse">
<stop stop-color="#01AAE5"/>
<stop offset="1" stop-color="#FEB60A"/>
</linearGradient>
<linearGradient id="paint6_linear_1345_414" x1="38.4129" y1="28.6956" x2="47.9815" y2="27.5848" gradientUnits="userSpaceOnUse">
<stop stop-color="#01AAE5"/>
<stop offset="1" stop-color="#FEB60A"/>
</linearGradient>
<linearGradient id="paint7_linear_1345_414" x1="82.1998" y1="40.0978" x2="91.7874" y2="38.9877" gradientUnits="userSpaceOnUse">
<stop stop-color="#01AAE5"/>
<stop offset="1" stop-color="#FEB60A"/>
</linearGradient>
<linearGradient id="paint8_linear_1345_414" x1="38.4225" y1="40.3352" x2="47.9899" y2="39.2267" gradientUnits="userSpaceOnUse">
<stop stop-color="#01AAE5"/>
<stop offset="1" stop-color="#FEB60A"/>
</linearGradient>
<linearGradient id="paint9_linear_1345_414" x1="56.4163" y1="58.625" x2="62.5984" y2="58.3335" gradientUnits="userSpaceOnUse">
<stop stop-color="#01AAE5"/>
<stop offset="1" stop-color="#FEB60A"/>
</linearGradient>
<linearGradient id="paint10_linear_1345_414" x1="68.0826" y1="58.5908" x2="74.2303" y2="58.3021" gradientUnits="userSpaceOnUse">
<stop stop-color="#01AAE5"/>
<stop offset="1" stop-color="#FEB60A"/>
</linearGradient>
</defs>
</svg>
