<svg width="130" height="60" viewBox="0 0 130 60" fill="none" xmlns="http://www.w3.org/2000/svg">
<path d="M69.4666 1.14898C67.8225 1.72726 66.6206 3.08793 66.2577 4.77743C66.1784 5.18563 66.133 7.4534 66.133 11.7168V18.0666H65.6001C63.3436 18.0779 61.1099 19.8015 60.3275 22.1373C60.0894 22.863 60.078 23.0784 60.0327 28.5211L59.9987 34.1678H59.0462H58.1051L58.0597 32.6598C58.0144 30.9703 57.8443 30.426 57.1526 29.723C56.3135 28.8952 56.3589 28.8952 51.6759 28.8612C47.9681 28.8386 47.4238 28.8499 46.9816 29.02C46.3013 29.2808 45.6323 29.9157 45.3148 30.5961C45.0767 31.095 45.0427 31.3331 45.0427 32.6598V34.1678H42.6048C40.4277 34.1678 40.0876 34.1905 39.4639 34.4059C37.8538 34.9389 36.7426 36.0614 36.1983 37.6715C35.9829 38.3405 35.9716 38.59 35.9716 46.5839C35.9716 54.6118 35.9829 54.8273 36.2097 55.5076C36.6859 56.9477 37.5477 57.8888 38.9877 58.5691L39.7701 58.9433L51.3244 58.9773C62.6746 59 62.9014 59 63.5818 58.7732C63.9559 58.6485 64.5342 58.365 64.8631 58.1382L65.464 57.7414L65.9062 58.1382C66.6886 58.8413 66.9721 58.9433 68.2307 58.9433C69.58 58.9433 70.0109 58.7619 70.816 57.8661C71.4623 57.1518 71.6891 56.4941 71.6891 55.3489V54.4644H77.075H82.461V55.3716C82.461 56.5168 82.7445 57.3105 83.3908 57.9682C84.0938 58.6825 84.8308 59 85.8173 59C86.8378 59 87.5295 58.7619 88.1871 58.1836C89.0035 57.4579 89.2984 56.7776 89.3551 55.4509C89.4004 54.3737 89.4117 54.3511 89.7066 54.283C90.2962 54.1356 91.3734 53.58 91.9403 53.1265C92.5526 52.6502 93.3804 51.4823 93.7545 50.6092C93.9586 50.1216 93.97 49.5774 94.004 36.4923C94.0267 23.1918 94.0267 22.8743 93.8112 22.1486C93.1196 19.8695 90.7951 18.0779 88.5613 18.0666H88.0171V11.456C88.0171 5.19696 88.0057 4.8001 87.8016 4.19914C87.3821 2.97454 86.4183 1.92003 85.1937 1.31906L84.5587 1.00157L77.3018 0.978897C70.6005 0.956219 69.9996 0.967558 69.4666 1.14898ZM84.2185 3.51881C85.1597 4.02906 85.6359 4.81144 85.6359 5.8773V6.50094H77.075H68.5142V6.01336C68.5142 4.67538 69.3646 3.5755 70.5892 3.32605C70.85 3.28069 73.9228 3.23534 77.4152 3.24668C83.6856 3.26935 83.765 3.26935 84.2185 3.51881ZM85.6359 13.4744V18.0666H77.075H68.5142V13.4744V8.8821H77.075H85.6359V13.4744ZM89.8086 20.8333C90.5456 21.2415 91.0219 21.7631 91.4074 22.6022L91.7022 23.2258L91.7362 35.6986C91.7702 48.5569 91.7476 49.2939 91.3167 50.133C91.0105 50.7339 90.3642 51.3576 89.6839 51.7204L89.0943 52.0266L78.1296 52.0606L67.1535 52.0833V45.5294C67.1535 41.5381 67.1082 38.7261 67.0401 38.3519C66.6546 36.3336 65.0218 34.6667 63.0488 34.2585L62.3912 34.1225V29.054C62.3912 26.0945 62.4365 23.7361 62.5046 23.3845C62.7654 22.0239 63.5818 21.0714 64.8744 20.6065C65.2032 20.4818 67.6524 20.4591 77.2451 20.4818L89.2076 20.5045L89.8086 20.8333ZM55.4291 31.4805C55.6785 31.7753 55.7012 31.9001 55.7012 32.9886V34.1678H51.4945H47.2878L47.3331 32.9319C47.3785 31.6052 47.5032 31.2878 48.0361 31.1857C48.1609 31.1517 49.8277 31.1403 51.7099 31.1517L55.157 31.163L55.4291 31.4805ZM45.0427 46.5839V56.7322H43.9088H42.7749V46.5839V36.4356H43.9088H45.0427V46.5839ZM55.7012 46.5839V56.7322H51.5058H47.3104V46.5839V36.4356H51.5058H55.7012V46.5839ZM60.2368 46.5839V56.7322H59.1596H58.0824V46.5839V36.4356H59.1596H60.2368V46.5839ZM40.4844 51.5617L40.4504 56.6075L39.9969 56.4034C39.3959 56.1426 38.829 55.553 38.5341 54.918C38.296 54.4191 38.296 54.283 38.296 46.5839C38.296 38.8848 38.296 38.7487 38.5341 38.2498C38.829 37.6149 39.3959 37.0252 39.9969 36.7644L40.4504 36.5603L40.4844 41.5381C40.4958 44.2708 40.4958 48.7837 40.4844 51.5617ZM63.2869 36.8892C63.5364 37.0139 63.8879 37.2974 64.0807 37.5355C64.7723 38.3746 64.7723 38.3405 64.7723 46.5839C64.7723 54.8273 64.7723 54.7933 64.0807 55.6323C63.7632 56.0292 63.0148 56.5054 62.7313 56.5054C62.652 56.5054 62.618 53.3759 62.618 46.5839C62.618 39.7919 62.652 36.6624 62.7313 36.6624C62.7994 36.6624 63.0488 36.7644 63.2869 36.8892ZM69.3079 55.2128C69.3079 55.8818 69.2739 55.9839 68.9791 56.29C68.7296 56.5281 68.5369 56.6188 68.2307 56.6188C67.9246 56.6188 67.7318 56.5281 67.4823 56.29C67.1875 55.9839 67.1535 55.8818 67.1535 55.2128V54.4644H68.2307H69.3079V55.2128ZM86.9966 55.2128C86.9966 55.8818 86.9625 55.9839 86.6677 56.29C86.1915 56.7662 85.5452 56.7549 85.137 56.2673C84.8875 55.9725 84.8422 55.8138 84.8422 55.1901V54.4644H85.9194H86.9966V55.2128Z" fill="url(#paint0_linear_1346_446)"/>
<path d="M67.2668 26.7975V28.1582H76.9616H86.6563V26.7975V25.4369H76.9616H67.2668V26.7975Z" fill="url(#paint1_linear_1346_446)"/>
<path d="M72.993 33.454C71.3375 34.1344 70.2943 35.8465 70.4871 37.57C70.6345 38.84 70.9747 39.3049 73.9795 42.2984C76.508 44.8156 76.7802 45.0537 77.1317 45.0537C77.4832 45.0537 77.7553 44.8156 80.2839 42.2984C83.5722 39.0214 83.7649 38.7379 83.7649 37.1165C83.7649 36.3114 83.7082 36.0393 83.4588 35.5064C83.0959 34.724 82.3702 33.9643 81.6105 33.5901C81.123 33.352 80.8848 33.318 79.853 33.318C78.5944 33.318 78.0388 33.4994 77.3925 34.089L77.1317 34.3158L76.8822 34.089C76.7348 33.9643 76.3946 33.7375 76.1112 33.5901C75.4308 33.2386 73.6847 33.1592 72.993 33.454Z" fill="url(#paint2_linear_1346_446)"/>
<path d="M48.2856 7.07989C44.7365 7.5788 42.8883 11.8649 44.9406 14.8357C45.4168 15.5274 50.61 20.6525 50.9729 20.7886C51.4378 20.9587 52.2655 20.9247 52.6851 20.7319C52.8892 20.6299 54.3065 19.2919 55.8486 17.7498C58.3318 15.2439 58.6833 14.8584 59.0122 14.1554C59.375 13.3956 59.3863 13.3049 59.3863 12.001C59.3863 10.6857 59.375 10.6176 59.0008 9.84657C57.8102 7.40871 54.7828 6.32018 52.3676 7.46541L51.7666 7.74888L51.3244 7.53344C50.4286 7.10256 49.3288 6.93248 48.2856 7.07989ZM49.7596 9.50641C50.0658 9.59712 50.542 9.85791 50.8141 10.0734C51.4718 10.5949 52.0614 10.6176 52.6397 10.1414C53.4561 9.48373 54.1705 9.26829 54.9869 9.44971C56.6537 9.8239 57.5494 11.6721 56.7897 13.1689C56.6083 13.5204 55.6899 14.5182 54.1478 16.0603L51.778 18.4074L49.2721 15.8902C46.9136 13.509 46.7548 13.3276 46.5847 12.7267C46.1652 11.3093 46.9816 9.88059 48.4216 9.49507C49.1133 9.31365 49.102 9.31365 49.7596 9.50641Z" fill="url(#paint3_linear_1346_446)"/>
<defs>
<linearGradient id="paint0_linear_1346_446" x1="42.366" y1="58.8631" x2="86.0149" y2="55.6355" gradientUnits="userSpaceOnUse">
<stop stop-color="#01AAE5"/>
<stop offset="1" stop-color="#FEB60A"/>
</linearGradient>
<linearGradient id="paint1_linear_1346_446" x1="69.403" y1="28.1518" x2="80.8797" y2="22.1065" gradientUnits="userSpaceOnUse">
<stop stop-color="#01AAE5"/>
<stop offset="1" stop-color="#FEB60A"/>
</linearGradient>
<linearGradient id="paint2_linear_1346_446" x1="71.9296" y1="45.0259" x2="81.9171" y2="44.1923" gradientUnits="userSpaceOnUse">
<stop stop-color="#01AAE5"/>
<stop offset="1" stop-color="#FEB60A"/>
</linearGradient>
<linearGradient id="paint3_linear_1346_446" x1="45.7711" y1="20.8657" x2="57.2644" y2="19.9296" gradientUnits="userSpaceOnUse">
<stop stop-color="#01AAE5"/>
<stop offset="1" stop-color="#FEB60A"/>
</linearGradient>
</defs>
</svg>
