<svg width="259" height="63" viewBox="0 0 259 63" fill="none" xmlns="http://www.w3.org/2000/svg">
<path d="M163.951 44.4875L158.416 26.6203C158.896 26.9428 160.373 27.8485 162.42 27.7307C164.027 27.6382 165.176 26.9596 165.678 26.6203C166.466 29.5084 167.254 32.3966 168.042 35.2819L173.513 17.3867H179.749L185.475 35.2819L190.127 17.3867H196.775L189.207 44.4846H182.458L176.477 25.566L170.7 44.4846H163.951V44.4875Z" fill="#89D0CD"/>
<path d="M210.832 45.1015C208.379 45.1015 206.119 44.5996 204.058 43.5929C201.994 42.5891 200.351 41.0553 199.123 38.9915C197.894 36.9306 197.283 34.3313 197.283 31.1936V30.1701C197.283 27.1698 197.872 24.6827 199.047 22.7059C200.225 20.729 201.8 19.2457 203.777 18.2587C205.754 17.2717 207.936 16.7754 210.322 16.7754C214.581 16.7754 217.82 17.8998 220.035 20.1486C222.25 22.3974 223.358 25.6529 223.358 29.915V32.7779H204.184C204.251 34.3818 204.602 35.6856 205.233 36.6895C205.863 37.6961 206.674 38.4279 207.661 38.8878C208.648 39.3477 209.705 39.5776 210.832 39.5776C212.571 39.5776 213.883 39.3224 214.769 38.8121C215.655 38.3018 216.286 37.5503 216.662 36.5633H222.847C222.301 39.3925 220.955 41.5236 218.81 42.9536C216.662 44.3865 214.004 45.1015 210.832 45.1015ZM210.577 22.2993C209.52 22.2993 208.499 22.4703 207.509 22.8096C206.52 23.1517 205.737 23.7546 205.157 24.6238C204.576 25.493 204.254 26.6427 204.187 28.0755H216.816C216.782 26.5417 216.482 25.3585 215.921 24.5229C215.358 23.6873 214.618 23.1096 213.698 22.7844C212.778 22.4619 211.738 22.2993 210.58 22.2993H210.577Z" fill="#89D0CD"/>
<path d="M236.07 44.7961C233.99 44.7961 232.293 44.5157 230.984 43.952C229.671 43.3884 228.71 42.4351 228.096 41.0892C227.481 39.7432 227.176 37.8617 227.176 35.4391V8.69727H233.875V34.6203C233.875 36.3588 234.121 37.5337 234.615 38.1478C235.108 38.7618 236.09 39.0675 237.553 39.0675C237.929 39.0675 238.252 39.0591 238.526 39.0422C238.798 39.0254 239.07 39.0002 239.345 38.9665V44.5914C239.174 44.6587 238.885 44.7119 238.476 44.7456C238.067 44.7792 237.64 44.7961 237.197 44.7961H236.073H236.07Z" fill="#89D0CD"/>
<path d="M251.597 44.7961C249.517 44.7961 247.82 44.5157 246.511 43.952C245.199 43.3884 244.237 42.4351 243.623 41.0892C243.009 39.7432 242.703 37.8617 242.703 35.4391V8.69727H249.402V34.6203C249.402 36.3588 249.649 37.5337 250.142 38.1478C250.636 38.7618 251.617 39.0675 253.081 39.0675C253.456 39.0675 253.779 39.0591 254.054 39.0422C254.326 39.0254 254.598 39.0002 254.873 38.9665V44.5914C254.701 44.6587 254.413 44.7119 254.003 44.7456C253.594 44.7792 253.168 44.7961 252.725 44.7961H251.6H251.597Z" fill="#89D0CD"/>
<path d="M15.4847 14.6777H10.5328L9.11115 19.9437H3.84522V20.998H8.82794L4.18731 38.1949C4.04711 38.7221 3.92373 39.2493 3.81718 39.7764C3.71063 40.3036 3.66016 40.7242 3.66016 41.041C3.66016 41.6551 3.82559 42.2439 4.15927 42.8047C4.49295 43.3655 5.0201 43.8226 5.74073 44.1731C6.46136 44.5236 7.4007 44.7002 8.55876 44.7002C9.99721 44.7002 11.2899 44.3497 12.4311 43.6459C13.5723 42.9449 14.6042 41.9131 15.5267 40.5503C16.4492 39.1904 17.296 37.536 18.0671 35.5872L17.0661 35.2704C16.5053 36.6219 15.9221 37.8024 15.3136 38.8118C14.7079 39.8213 14.0855 40.6541 13.4433 41.313C12.8012 41.9719 12.1535 42.4626 11.4946 42.7879C10.8356 43.1132 10.1739 43.2758 9.50651 43.2758C8.52231 43.2758 8.0316 42.959 8.0316 42.3281C8.0316 42.0813 8.05684 41.8458 8.11012 41.6158C8.16339 41.3887 8.21667 41.1784 8.26714 40.9849L13.749 20.998H18.8018V19.9437H14.0378L15.4819 14.6777H15.4847Z" fill="#193B5A"/>
<path d="M44.2299 40.1025C43.571 41.1988 42.9092 41.998 42.2419 42.4999C41.5745 42.999 40.8735 43.2514 40.1361 43.2514C39.5388 43.2514 39.2416 42.9345 39.2416 42.3036C39.2416 42.1634 39.25 42.0092 39.2668 41.8438C39.2836 41.6783 39.3117 41.5157 39.3453 41.3559L45.1132 19.9473H39.951L38.0274 27.5125C37.5171 29.3491 36.847 31.1409 36.003 32.8765C35.072 34.7917 34.0598 36.5021 32.9606 38.0107C31.8642 39.5192 30.7875 40.7222 29.736 41.6194C28.6817 42.5139 27.7788 42.9626 27.0245 42.9626C26.2001 42.9626 25.6562 42.685 25.3926 42.1326C25.129 41.5802 25.0729 40.7979 25.2215 39.7884C25.3702 38.779 25.6281 37.5901 25.9983 36.2217L30.3164 19.9473H21.4165V20.9735H24.8654L20.8108 36.7489C20.4239 38.207 20.2893 39.5361 20.4015 40.739C20.5164 41.9419 20.9679 42.9037 21.7558 43.6215C22.5465 44.3421 23.7663 44.701 25.4178 44.701C26.5927 44.701 27.7508 44.3337 28.8948 43.5963C30.036 42.8588 31.1324 41.8634 32.1867 40.6072C33.241 39.351 34.2112 37.9462 35.0973 36.3928C35.5655 35.574 36.0001 34.7412 36.4067 33.9L34.9795 39.5136C34.9094 39.794 34.8505 40.1025 34.8084 40.4362C34.7636 40.7698 34.7411 41.0502 34.7411 41.2802C34.7411 42.1578 35.0916 42.9485 35.7955 43.6495C36.4965 44.3505 37.576 44.7038 39.0341 44.7038C40.2791 44.7038 41.381 44.4038 42.34 43.8094C43.2962 43.2121 44.1738 42.2784 44.973 41.0054C45.7721 39.7323 46.5572 38.0864 47.3283 36.0675L46.3553 35.7254C45.6011 37.5508 44.8945 39.0145 44.2355 40.1109L44.2299 40.1025Z" fill="#193B5A"/>
<path d="M67.7156 25.1318C68.2512 24.5009 68.5204 23.727 68.5204 22.8157C68.5204 21.8512 68.1811 21.0464 67.5053 20.4071C66.8296 19.765 65.9211 19.4453 64.7798 19.4453C63.7255 19.4453 62.7301 19.7958 61.7907 20.4996C60.8514 21.2006 59.9822 22.1456 59.183 23.3317C58.3839 24.5178 57.6604 25.8384 57.0099 27.2937C56.9062 27.5265 56.808 27.762 56.7099 27.9947L58.6447 19.9444H49.6662V20.9707H53.7208L47.9277 44.171H52.8263L54.9798 35.2094C55.2406 34.2729 55.5406 33.2887 55.8827 32.254C56.3566 30.824 56.9062 29.4136 57.5287 28.0284C58.1511 26.6404 58.8409 25.373 59.5952 24.2233C60.3495 23.0737 61.1627 22.1568 62.0319 21.4726C62.9011 20.7884 63.8265 20.4463 64.8107 20.4463C64.8443 20.4463 64.8724 20.452 64.906 20.452C64.2947 20.5585 63.79 20.8081 63.389 21.209C62.8451 21.753 62.5731 22.4372 62.5731 23.2644C62.5731 24.0916 62.8591 24.7645 63.4283 25.2917C63.9975 25.8188 64.7041 26.0824 65.5481 26.0824C66.4622 26.0824 67.1857 25.7655 67.7212 25.1346L67.7156 25.1318Z" fill="#193B5A"/>
<path d="M90.837 41.4335C89.8808 42.6112 88.8321 43.1972 87.6909 43.1972C87.3404 43.1972 87.0937 43.1019 86.9535 42.9084C86.8133 42.7149 86.7432 42.4878 86.7432 42.2242C86.7432 42.084 86.76 41.927 86.7964 41.7503C86.8301 41.5765 86.8665 41.4083 86.9002 41.2512L91.1146 27.3462C91.5352 25.9245 91.6642 24.6122 91.4959 23.4093C91.3277 22.2064 90.8314 21.2474 90.007 20.5268C89.1826 19.8062 88.0162 19.4473 86.5048 19.4473C85.3804 19.4473 84.27 19.8174 83.1736 20.552C82.0773 21.2895 81.0174 22.2849 79.9995 23.5411C78.9817 24.7973 78.0423 26.1965 77.1815 27.7415C76.7441 28.5294 76.3319 29.3286 75.9477 30.1389L78.6284 19.9464H69.8069V20.9726H73.3092L67.1992 44.173H72.2548L74.0971 37.1686C74.6411 35.1329 75.3617 33.1561 76.2562 31.2437C77.1506 29.3314 78.1208 27.6181 79.1667 26.1096C80.2098 24.601 81.2389 23.4009 82.2483 22.5149C83.2578 21.6288 84.141 21.1857 84.8953 21.1857C85.7197 21.1857 86.2693 21.4633 86.5413 22.0157C86.8133 22.5681 86.8749 23.3448 86.7263 24.3459C86.5777 25.3469 86.3001 26.5218 85.8963 27.8733L82.3941 39.1174C82.2876 39.3641 82.2007 39.6782 82.1306 40.0651C82.0605 40.4521 82.024 40.839 82.024 41.2232C82.024 42.3812 82.3801 43.2505 83.0895 43.8309C83.7989 44.4113 84.8757 44.7002 86.3141 44.7002C87.632 44.7002 88.7761 44.4057 89.7519 43.8169C90.7248 43.2281 91.6221 42.3027 92.4381 41.0381C93.2541 39.7735 94.0476 38.1135 94.8215 36.061L93.8485 35.7189C92.7942 38.3519 91.7904 40.2586 90.8342 41.4335H90.837Z" fill="#193B5A"/>
<path d="M109.415 35.7193C108.661 37.5447 107.954 39.0112 107.295 40.116C106.636 41.2207 105.983 42.0255 105.332 42.5246C104.682 43.0237 103.998 43.2761 103.277 43.2761C102.91 43.2761 102.655 43.1723 102.514 42.9592C102.374 42.7489 102.304 42.5022 102.304 42.2218C102.304 42.0984 102.313 41.9638 102.329 41.8124C102.346 41.6638 102.374 41.518 102.408 41.3778L103.064 39.0336C103.092 39.0084 103.12 38.9832 103.145 38.9579C104.424 34.4294 105.703 29.9038 106.981 25.3753C107.046 25.151 107.107 24.8425 107.178 24.4808C107.239 24.164 107.27 23.8387 107.27 23.505C107.27 22.4872 106.934 21.6656 106.255 21.0431C105.579 20.4206 104.514 20.1094 103.056 20.1094C101.721 20.1094 100.577 20.4094 99.6179 21.0039C98.6618 21.6011 97.7841 22.5348 96.985 23.8079C96.1858 25.0809 95.3923 26.7268 94.6016 28.7457L95.6026 29.0878C96.3569 27.2624 97.0635 25.7959 97.7224 24.6911C98.3814 23.5863 99.0347 22.7816 99.6852 22.2825C100.336 21.7834 101.02 21.531 101.741 21.531C102.108 21.531 102.363 21.6348 102.503 21.8479C102.643 22.0582 102.714 22.3049 102.714 22.5853C102.714 22.6919 102.705 22.8096 102.694 22.9358C101.141 28.4345 99.5871 33.9331 98.0337 39.4318C97.9692 39.6561 97.9075 39.9646 97.8374 40.3263C97.7757 40.6431 97.7449 40.9684 97.7449 41.3021C97.7449 42.3199 98.0813 43.1415 98.7571 43.764C99.4329 44.3865 100.498 44.6977 101.956 44.6977C103.291 44.6977 104.435 44.3977 105.394 43.8032C106.35 43.206 107.228 42.2723 108.027 40.9992C108.826 39.7262 109.62 38.0803 110.411 36.0614L109.41 35.7193H109.415Z" fill="#193B5A"/>
<path d="M106.558 10.9798C107.094 11.3051 107.686 11.4677 108.336 11.4677C108.987 11.4677 109.578 11.3051 110.114 10.9798C110.65 10.6545 111.079 10.2199 111.404 9.67593C111.729 9.13195 111.892 8.54311 111.892 7.91221C111.892 7.28131 111.729 6.67003 111.404 6.13447C111.079 5.5989 110.65 5.17269 110.114 4.85864C109.578 4.54179 108.987 4.38477 108.336 4.38477C107.686 4.38477 107.094 4.54179 106.558 4.85864C106.023 5.1755 105.602 5.6017 105.294 6.13447C104.985 6.67003 104.834 7.26168 104.834 7.91221C104.834 8.56274 104.988 9.13195 105.294 9.67593C105.599 10.2199 106.023 10.6545 106.558 10.9798Z" fill="#193B5A"/>
<path d="M163.57 20.5773C162.928 19.98 162.118 19.6828 161.134 19.6828C159.765 19.6828 158.509 20.1651 157.368 21.1325C156.953 21.483 156.552 21.9008 156.165 22.3831C155.531 21.5475 154.735 20.8717 153.759 20.3698C152.565 19.7557 151.221 19.4473 149.73 19.4473C147.868 19.4473 146.135 19.8567 144.528 20.6726C142.922 21.4886 141.632 22.5849 140.659 23.9645C139.683 25.3441 139.198 26.8751 139.198 28.5603C139.198 30.052 139.54 31.3335 140.224 32.4046C140.583 32.9654 141.015 33.4561 141.514 33.8823C140.886 33.958 140.28 34.0702 139.697 34.2216C138.556 34.5216 137.552 34.9422 136.683 35.4862C135.813 36.0302 135.132 36.6751 134.641 37.421C134.151 38.1668 133.904 38.98 133.904 39.8576C133.904 40.3652 133.982 40.8418 134.137 41.2877C134.1 41.3353 134.061 41.3914 134.022 41.4363C133.066 42.614 132.017 43.2 130.876 43.2C130.525 43.2 130.278 43.1047 130.138 42.9112C129.998 42.7177 129.928 42.4906 129.928 42.227C129.928 42.0868 129.945 41.9298 129.981 41.7531C130.015 41.5793 130.051 41.4111 130.088 41.254L134.302 27.349C134.723 25.9273 134.852 24.6151 134.683 23.4121C134.515 22.2092 134.019 21.2502 133.195 20.5296C132.37 19.809 131.204 19.4501 129.692 19.4501C128.568 19.4501 127.458 19.8202 126.361 20.5548C125.265 21.2923 124.205 22.2877 123.187 23.5439C122.169 24.8001 121.23 26.1993 120.369 27.7443C119.932 28.5322 119.519 29.3314 119.135 30.1417L121.816 19.9492H112.994V20.9754H116.497L110.387 44.1758H115.442L117.285 37.1714C117.829 35.1357 118.549 33.1589 119.444 31.2465C120.338 29.3342 121.308 27.6209 122.354 26.1124C123.397 24.6038 124.426 23.4037 125.436 22.5177C126.445 21.6316 127.329 21.1886 128.083 21.1886C128.907 21.1886 129.457 21.4662 129.729 22.0185C130.001 22.5709 130.062 23.3476 129.914 24.3487C129.765 25.3497 129.488 26.5246 129.084 27.8761L125.582 39.1202C125.475 39.3669 125.388 39.681 125.318 40.0679C125.248 40.4549 125.212 40.8418 125.212 41.226C125.212 42.384 125.568 43.2533 126.277 43.8337C126.986 44.4141 128.063 44.703 129.502 44.703C130.82 44.703 131.964 44.4085 132.939 43.8197C133.548 43.4524 134.125 42.9533 134.672 42.3224C134.731 42.4065 134.793 42.4878 134.86 42.5691C135.499 43.343 136.405 43.9431 137.572 44.3721C137.661 44.4057 137.759 44.4282 137.852 44.459C137.549 44.5403 137.238 44.6329 136.913 44.7534C135.92 45.1208 134.958 45.6367 134.03 46.2928C133.099 46.9518 132.336 47.7145 131.739 48.5837C131.142 49.4529 130.845 50.3951 130.845 51.4157C130.845 52.5906 131.187 53.6702 131.871 54.6544C132.555 55.6386 133.671 56.4181 135.216 56.9985C136.761 57.579 138.805 57.8678 141.351 57.8678C143.213 57.8678 145.081 57.6294 146.959 57.1555C148.838 56.6817 150.56 55.9667 152.122 55.0105C153.683 54.0543 154.94 52.8542 155.887 51.4157C156.835 49.9745 157.309 48.3005 157.309 46.3854C157.309 44.1898 156.633 42.6757 155.282 41.8429C153.93 41.0101 152.237 40.5923 150.201 40.5923C149.71 40.5923 149.032 40.5979 148.174 40.6063C147.313 40.6147 146.441 40.6231 145.555 40.6315C144.669 40.64 143.917 40.6456 143.303 40.6456C142.495 40.6456 141.696 40.567 140.906 40.4072C140.115 40.2502 139.459 39.9642 138.932 39.552C138.404 39.1398 138.141 38.5566 138.141 37.7995C138.141 37.0424 138.592 36.2489 139.498 35.5226C140.213 34.9478 141.163 34.6029 142.341 34.4824C142.566 34.6226 142.793 34.7599 143.039 34.8777C144.234 35.4581 145.585 35.747 147.094 35.747C148.956 35.747 150.683 35.3572 152.281 34.5749C153.88 33.7926 155.164 32.7326 156.14 31.3895C157.116 30.0464 157.601 28.5407 157.601 26.8723C157.601 25.4675 157.292 24.2309 156.684 23.1598C157.27 22.3999 157.898 21.8054 158.56 21.382C159.235 20.953 159.942 20.7371 160.679 20.7371C160.946 20.7371 161.425 20.796 161.425 20.8381C161.425 20.8661 161.223 20.8829 161.05 20.8941C160.506 21.0175 160.051 21.2839 159.692 21.6961C159.333 22.1083 159.151 22.613 159.151 23.2102C159.151 24.0178 159.423 24.6515 159.967 25.1058C160.511 25.5628 161.134 25.7899 161.837 25.7899C162.662 25.7899 163.315 25.5039 163.8 24.9347C164.283 24.3655 164.524 23.6841 164.524 22.8934C164.524 21.9456 164.204 21.1717 163.562 20.5745L163.57 20.5773ZM139.108 44.7759C139.902 44.9273 140.76 45.0142 141.702 45.0142H151.866C152.938 45.0142 153.801 45.2301 154.46 45.6591C155.119 46.0881 155.447 46.8144 155.447 47.8322C155.447 49.0968 155.077 50.2689 154.34 51.3485C153.602 52.428 152.579 53.3701 151.272 54.1805C149.965 54.9881 148.454 55.6105 146.743 56.0508C145.03 56.491 143.21 56.7097 141.278 56.7097C139.189 56.7097 137.622 56.2274 136.579 55.2628C135.533 54.2983 135.012 52.9888 135.012 51.34C135.012 50.182 135.25 49.1052 135.721 48.1154C136.195 47.1228 136.876 46.2816 137.762 45.5862C138.172 45.2666 138.62 45.003 139.105 44.7815L139.108 44.7759ZM152.865 26.791C152.618 27.7555 152.281 28.7033 151.85 29.6342C151.418 30.5652 150.919 31.4176 150.349 32.1887C149.777 32.9626 149.169 33.5767 148.518 34.0309C147.868 34.488 147.209 34.7151 146.542 34.7151C145.507 34.7151 144.753 34.3646 144.276 33.6608C143.802 32.9598 143.564 32.0905 143.564 31.0531C143.564 30.209 143.687 29.3118 143.931 28.3528C144.178 27.3966 144.514 26.4517 144.946 25.5207C145.375 24.5898 145.877 23.743 146.446 22.9803C147.015 22.2176 147.627 21.6064 148.277 21.1493C148.928 20.6922 149.584 20.4651 150.254 20.4651C151.289 20.4651 152.043 20.8128 152.52 21.5054C152.996 22.198 153.232 23.0644 153.232 24.0991C153.232 24.9235 153.109 25.8208 152.862 26.7854L152.865 26.791Z" fill="#193B5A"/>
</svg>
