<svg width="50" height="51" viewBox="0 0 50 51" fill="none" xmlns="http://www.w3.org/2000/svg">
<g clip-path="url(#clip0_99_7682)">
<path d="M7.10938 1.95154C5.69336 2.41052 4.48242 3.65076 4.0625 5.07654C3.92578 5.55505 3.90625 7.67419 3.90625 25.9945C3.90625 45.7211 3.91602 46.3949 4.0918 46.9711C4.54102 48.4066 5.77148 49.6273 7.2168 50.0472C7.68555 50.184 8.92578 50.2035 17.9688 50.2035C27.0117 50.2035 28.252 50.184 28.7207 50.0472C30.166 49.6273 31.3965 48.4066 31.8457 46.9711C32.0215 46.4047 32.0312 45.8578 32.0312 33.0551V19.7347H32.4219H32.8125V20.7113C32.8125 21.8734 32.9297 22.0785 33.6133 22.0785C33.9941 22.0785 34.0723 22.0297 35.2051 20.9066L36.3867 19.7347H40.3613C44.7461 19.7347 44.7461 19.7347 45.4004 19.1195C46.1133 18.4457 46.0938 18.641 46.0938 12.7035C46.0938 6.76599 46.1133 6.9613 45.4004 6.28748C44.7266 5.65271 44.9707 5.67224 38.2031 5.67224H32.0605L31.8457 5.02771C31.3574 3.54333 30.293 2.45935 28.8184 1.9613C28.2422 1.76599 28.0371 1.76599 17.9492 1.77576C8.25195 1.77576 7.63672 1.78552 7.10938 1.95154ZM28.5254 3.63123C29.3457 4.01208 29.9902 4.71521 30.2148 5.44763C30.2832 5.66248 30.2637 5.67224 29.668 5.67224C29.2773 5.67224 28.9062 5.7406 28.6621 5.85779C27.9395 6.19958 27.3438 7.02966 27.3438 7.72302V8.01599H16.4062H5.46875V7.35193C5.46875 6.46326 5.63477 5.53552 5.85938 5.07654C6.30859 4.2074 7.13867 3.60193 8.11523 3.43591C8.41797 3.38708 12.8516 3.35779 18.3105 3.35779L27.9785 3.37732L28.5254 3.63123ZM43.9844 7.37146C44.209 7.45935 44.3457 7.60583 44.4238 7.82068C44.5801 8.2699 44.5801 17.1371 44.4238 17.5863C44.2188 18.1625 44.1113 18.1722 39.5996 18.1722H35.5371L34.9512 18.7289L34.375 19.2758V18.9242C34.375 18.6898 34.3066 18.4945 34.1797 18.3676C33.9941 18.182 33.8574 18.1722 31.8945 18.1722C29.5312 18.1722 29.248 18.1136 29.043 17.6254C28.8672 17.1957 28.8379 8.32849 29.0137 7.82068C29.2285 7.22498 29.0332 7.24451 36.6992 7.23474C42.4316 7.23474 43.7207 7.25427 43.9844 7.37146ZM27.3438 13.7777C27.3438 18.4164 27.3438 18.3871 27.959 19.0414C28.4277 19.5394 28.9355 19.7347 29.7656 19.7347H30.4688V29.5004V39.266H29.3066H28.1348L28.1055 36.7074L28.0762 34.139L27.793 33.5531C27.4219 32.8109 26.6699 32.0492 25.9766 31.7269C25.6836 31.5902 24.4629 31.1508 23.2715 30.7601L21.0938 30.0375V29.4808C21.0938 29.1683 21.1328 28.9144 21.1719 28.9144C21.2207 28.9144 21.5234 28.641 21.8652 28.2992C22.3145 27.85 22.5781 27.4691 22.8809 26.8441L23.291 25.9945L24.0723 25.9847C24.9805 25.975 25.459 25.7992 25.9473 25.2914C26.377 24.8324 26.5625 24.3441 26.5625 23.641C26.5625 22.9769 26.4258 22.5668 26.0449 22.1176C25.791 21.8148 25.7812 21.766 25.7812 20.5941C25.7812 18.6215 25.2441 17.0199 24.1016 15.5941C22.5879 13.7191 20.4395 12.7035 17.9688 12.7035C15.498 12.7035 13.3496 13.7191 11.8359 15.5941C10.6934 17.0199 10.1562 18.6215 10.1562 20.5941C10.1562 21.766 10.1465 21.8148 9.89258 22.1176C9.51172 22.5668 9.375 22.9769 9.375 23.6605C9.375 24.3832 9.59961 24.9203 10.0684 25.3695C10.5566 25.8285 11.0156 25.9847 11.8848 25.9847L12.6465 25.9945L13.0566 26.8441C13.3594 27.4691 13.623 27.85 14.0723 28.2992C14.4141 28.641 14.7168 28.9144 14.7656 28.9144C14.8047 28.9144 14.8438 29.1683 14.8438 29.4808V30.0375L12.6758 30.7601C11.4746 31.1508 10.2539 31.5902 9.96094 31.7269C9.26758 32.0492 8.51562 32.8109 8.14453 33.5531L7.86133 34.139L7.83203 36.6976L7.80273 39.266H6.63086H5.46875V24.4222V9.57849H16.4062H27.3438V13.7777ZM18.8965 14.4125C19.668 14.4906 20.5469 14.8324 21.3086 15.3304C22.9395 16.3949 23.916 18.0062 24.1211 19.9594C24.2676 21.3558 24.2773 21.2972 23.8281 21.2972H23.4375V20.7113C23.4375 19.9008 23.3008 19.7836 22.2852 19.7054C21.0742 19.6273 20.5078 19.1879 20.3613 18.2211C20.2734 17.6351 20.0293 17.391 19.5312 17.391C19.0332 17.391 18.7891 17.6351 18.7012 18.2211C18.6133 18.7679 18.3203 19.2172 17.8711 19.4808C17.5586 19.6664 17.3242 19.6859 15.1562 19.7347C12.4121 19.7933 12.5 19.7543 12.5 20.7308V21.2972H12.1094C11.6602 21.2972 11.6699 21.3558 11.8164 19.9594C12.0703 17.5277 13.584 15.5648 15.8594 14.7054C16.5039 14.4613 17.666 14.266 18.1641 14.3246C18.3008 14.3441 18.6328 14.3832 18.8965 14.4125ZM19.9023 20.6722C20.332 21.0043 21.0938 21.2972 21.5332 21.2972H21.875V22.7328C21.875 24.4711 21.7578 25.3695 21.4355 26.0531C21.123 26.7367 20.2637 27.5863 19.5605 27.9183C19.0527 28.1527 18.877 28.182 17.9688 28.182C17.0605 28.182 16.8848 28.1527 16.377 27.9183C15.6738 27.5863 14.8145 26.7367 14.502 26.0531C14.1797 25.3695 14.0625 24.4711 14.0625 22.7328V21.2972H15.957C18.0273 21.2972 18.3301 21.2386 19.0723 20.7211C19.2969 20.5551 19.502 20.4281 19.5215 20.4183C19.541 20.4183 19.7168 20.5355 19.9023 20.6722ZM12.5 23.641V24.4222H12.1582C11.6309 24.4222 11.1523 24.1879 11.0742 23.8949C10.918 23.2699 11.3281 22.8695 12.1387 22.8597H12.5V23.641ZM24.4629 22.9965C24.8242 23.1527 24.9707 23.4652 24.8633 23.8949C24.7852 24.1879 24.3066 24.4222 23.7793 24.4222H23.4375V23.641V22.8597H23.7793C23.9746 22.8597 24.2773 22.9183 24.4629 22.9965ZM17.9688 29.891C18.4277 29.891 18.9648 29.8519 19.1699 29.8031C19.5215 29.7152 19.5312 29.725 19.5312 29.9789C19.5312 30.1742 19.3359 30.4281 18.75 31.014L17.9688 31.7953L17.1875 31.014C16.6016 30.4281 16.4062 30.1742 16.4062 29.9789C16.4062 29.725 16.416 29.7152 16.7773 29.8031C16.9727 29.8519 17.5098 29.891 17.9688 29.891ZM16.4551 32.723C17.5098 33.7582 17.5684 33.7972 17.9688 33.7972C18.3691 33.7972 18.4277 33.7582 19.4824 32.723C20.5078 31.7074 20.5859 31.6488 20.8301 31.7367C21.0938 31.8344 21.0938 31.8441 21.0938 32.8597C21.0938 33.8168 21.084 33.8851 20.8887 33.9437C20.5469 34.0511 19.9023 34.6957 19.7168 35.1156C19.4727 35.6332 19.4727 36.6488 19.7168 37.1664C20.0781 37.9672 20.957 38.5238 21.875 38.5238C22.793 38.5238 23.6719 37.9672 24.0332 37.1664C24.2773 36.6488 24.2773 35.6332 24.0332 35.1156C23.8477 34.6957 23.2031 34.0511 22.8613 33.9437C22.6758 33.8851 22.6562 33.807 22.6562 33.1136V32.3422L23.9844 32.7914C25.4883 33.2894 25.957 33.6117 26.3086 34.3832C26.4844 34.7738 26.5137 35.0472 26.543 37.0394L26.582 39.266H17.9688H9.35547L9.39453 37.0394C9.42383 35.0472 9.45312 34.7738 9.62891 34.3832C9.98047 33.6117 10.4492 33.2894 11.9531 32.7914L13.2812 32.3422V33.1039C13.2812 33.807 13.2617 33.8754 13.0469 33.973C12.6367 34.1586 12.0801 34.7152 11.9043 35.1156C11.7676 35.4183 11.7188 35.7504 11.7188 36.6V37.7035H12.5H13.2812V36.9711C13.2812 35.7699 13.5938 35.3207 14.3164 35.4965C14.668 35.5844 14.8438 36.0824 14.8438 36.9711V37.7035H15.6348H16.4258L16.3867 36.4926C16.3574 35.3207 16.3477 35.2621 16.0645 34.8519C15.8984 34.6176 15.5566 34.2953 15.3125 34.139L14.8535 33.8461V32.8402C14.8438 31.8929 14.8535 31.8344 15.0684 31.7465C15.1855 31.6976 15.3027 31.6586 15.3223 31.6586C15.3516 31.6488 15.8594 32.1273 16.4551 32.723ZM22.3633 35.6527C22.4707 35.7601 22.5586 35.975 22.5586 36.141C22.5586 36.307 22.4707 36.5219 22.3633 36.6293C22.2559 36.7367 22.041 36.8246 21.875 36.8246C21.709 36.8246 21.4941 36.7367 21.3867 36.6293C21.2793 36.5219 21.1914 36.307 21.1914 36.141C21.1914 35.975 21.2793 35.7601 21.3867 35.6527C21.4941 35.5453 21.709 35.4574 21.875 35.4574C22.041 35.4574 22.2559 35.5453 22.3633 35.6527ZM30.4395 43.4359C30.4199 45.0375 30.3516 46.1898 30.2832 46.4144C30 47.3031 29.1016 48.1918 28.1934 48.4652C27.5977 48.6508 8.33984 48.6508 7.74414 48.4652C6.82617 48.1918 5.9375 47.3226 5.6543 46.4144C5.58594 46.1898 5.51758 45.0375 5.49805 43.4359L5.44922 40.8285H17.9688H30.4883L30.4395 43.4359Z" fill="#0049CB"/>
<path d="M15.625 5.67224V6.45349H17.9688H20.3125V5.67224V4.89099H17.9688H15.625V5.67224Z" fill="#00C6FF"/>
<path d="M30.4688 9.57849V10.3597H36.7188H42.9688V9.57849V8.79724H36.7188H30.4688V9.57849Z" fill="#00C6FF"/>
<path d="M30.4688 12.7035V13.4847H36.7188H42.9688V12.7035V11.9222H36.7188H30.4688V12.7035Z" fill="#00C6FF"/>
<path d="M30.4688 15.8285V16.6097H35.1562H39.8438V15.8285V15.0472H35.1562H30.4688V15.8285Z" fill="#00C6FF"/>
<path d="M41.4062 15.8285V16.6097H42.1875H42.9688V15.8285V15.0472H42.1875H41.4062V15.8285Z" fill="#00C6FF"/>
<path d="M15.3809 42.5765C14.5312 42.9672 14.0625 43.7484 14.0625 44.7543C14.0723 45.7504 14.5898 46.5707 15.4492 46.9222C15.9766 47.1469 19.9609 47.1469 20.4883 46.9222C21.3477 46.5707 21.8652 45.7504 21.875 44.7543C21.875 44.0414 21.6895 43.5433 21.2598 43.0844C20.6445 42.4398 20.4199 42.391 17.9688 42.391C16.0352 42.391 15.7227 42.4203 15.3809 42.5765ZM19.7754 44.0902C20.1367 44.2465 20.2832 44.559 20.1758 44.9886C20.0684 45.4086 19.6289 45.516 17.9688 45.516C16.3086 45.516 15.8691 45.4086 15.7617 44.9886C15.6641 44.5687 15.8008 44.2465 16.1426 44.1C16.5918 43.9047 19.3066 43.9047 19.7754 44.0902Z" fill="#00C6FF"/>
</g>
<defs>
<clipPath id="clip0_99_7682">
<rect width="50" height="50" fill="white" transform="translate(0 0.984741)"/>
</clipPath>
</defs>
</svg>
