<svg width="50" height="51" viewBox="0 0 50 51" fill="none" xmlns="http://www.w3.org/2000/svg">
<g clip-path="url(#clip0_99_7769)">
<path d="M42.4805 31.3558L43.3594 28.6215L46.6797 27.7426V30.2816V35.848L45.2148 38.1918L40.7227 37.7035L43.3594 35.1644L42.4805 31.3558Z" fill="#00C6FF"/>
<path d="M20.0586 1.91248C18.4863 2.25427 17.0605 3.39685 16.3184 4.89099C15.7324 6.10193 15.6055 6.83435 15.6445 8.8949C15.6738 10.516 15.6934 10.6429 15.957 11.2679C16.1133 11.639 16.4648 12.264 16.748 12.6547L17.2559 13.3578L16.6797 13.4164C15.8691 13.4847 14.9609 13.9535 14.4336 14.559C14.1992 14.8226 13.0273 16.6488 11.8164 18.6117C10.6152 20.5746 9.59961 22.1761 9.57031 22.1761C9.54102 22.1761 9.39453 21.9808 9.24805 21.7465C8.45703 20.4867 7.54883 19.7054 6.67969 19.5492C5.66406 19.3539 4.98047 19.7543 4.98047 20.5453C4.98047 20.9164 6.07422 27.3324 6.20117 27.7523C6.24023 27.85 6.39648 28.0355 6.55273 28.1722C6.8457 28.4164 6.875 28.4261 8.42774 28.4066C10.6348 28.3969 11.709 28.6605 13.3008 29.6078L13.9648 29.9984V31.8929V33.7972H10.5957H7.23633L6.82617 33.0941C5.97656 31.6195 5.00977 30.6918 4.10156 30.4769C3.22266 30.2621 2.51953 30.5258 2.33398 31.1508C2.24609 31.4535 2.30469 31.9418 2.72461 34.3832C2.99805 35.9652 3.25195 37.3812 3.28125 37.5277L3.33984 37.8011H2.09961C0.761719 37.8011 0.449219 37.889 0.15625 38.3285C0.0195313 38.5433 0 38.9828 0 41.9222C0 44.8031 0.0195313 45.3109 0.15625 45.4965C0.429688 45.8969 0.800781 46.0043 1.88477 46.0043H2.90039L2.95898 47.0394C3.05664 48.5629 3.47656 49.3344 4.53125 49.891L5.0293 50.1547H25H44.9707L45.498 49.8617C46.582 49.266 46.9727 48.4945 46.9727 46.9613V46.0043H48.0469C49.2285 46.0043 49.5606 45.9066 49.8438 45.4769C49.9805 45.2621 50 44.8324 50 41.9027C50 37.5668 50.1367 37.8011 47.5488 37.8011H45.9766L46.3379 37.4008C46.8262 36.8636 47.3242 35.7894 47.4707 34.9593C47.5684 34.4125 47.5684 34.0121 47.4609 32.889C47.3926 32.1273 47.3633 31.1703 47.4023 30.7699C47.5879 28.514 47.5879 28.4652 47.4121 28.0941C47.3145 27.889 47.0606 27.6058 46.8457 27.4691C46.4941 27.2347 46.3574 27.2054 45.6641 27.2152C44.7754 27.225 43.8672 27.4886 43.2129 27.9281C42.832 28.182 42.8027 28.1918 42.334 28.0551C42.0606 27.9867 41.4258 27.9183 40.918 27.9086C39.2969 27.889 37.9004 28.4945 36.7871 29.7054L36.1914 30.3402L35.2637 29.8715C34.2773 29.3734 32.9785 28.9144 32.5293 28.9144C32.1289 28.9144 31.8359 29.2367 31.8359 29.6859C31.8359 30.1742 32.0117 30.3207 32.9492 30.6234C33.6816 30.8676 34.9316 31.434 35.2832 31.6879C35.4395 31.8148 35.4395 31.8636 35.3027 32.4398C34.9414 33.973 35.3516 35.9457 36.2793 37.1664C36.4453 37.3812 36.6113 37.6156 36.6602 37.6742C36.7188 37.7719 36.0059 37.8011 33.2617 37.8011H29.7852V36.6781V35.5551H30.9375C31.9629 35.5551 32.1191 35.5355 32.2656 35.3695C32.4902 35.1156 32.4902 34.5297 32.2656 34.2758C32.1094 34.1 31.9336 34.0902 27.7148 34.0902H23.3398V32.723V31.3656L24.0527 31.0238C25.332 30.4183 26.5918 30.1254 28.4082 30.0179C29.6973 29.9496 29.8828 29.8519 29.8828 29.2172C29.8828 28.9144 29.8242 28.7875 29.6191 28.6215C29.3652 28.4164 29.2773 28.4066 28.2031 28.4652C27.5684 28.5043 26.9824 28.5531 26.9043 28.5824C26.7773 28.6312 26.7578 28.3969 26.7578 26.7367V24.8324L27.4219 24.1879C28.1934 23.4457 28.7305 22.5961 29.0234 21.639C29.2188 21.0238 29.2383 20.7406 29.248 18.6605C29.248 16.473 29.2383 16.3363 29.0234 15.7992C28.5254 14.5687 27.1875 13.5531 25.8984 13.4261L25.293 13.3578L25.625 12.9476C26.0742 12.4008 26.6113 11.4047 26.7969 10.7601C27.041 9.93005 27.0117 7.21521 26.7578 6.19958C26.4453 4.96912 26.0449 4.25623 25.2051 3.42615C23.7793 2.0199 21.9824 1.49255 20.0586 1.91248ZM22.2168 3.46521C23.7207 3.8656 24.9316 5.15466 25.2734 6.71716C25.3613 7.11755 25.3613 7.13708 25.1563 7.08826C25.0488 7.05896 23.7402 6.79529 22.2559 6.50232C19.6875 5.99451 19.541 5.97497 19.0625 6.10193C18.7891 6.17029 18.3984 6.3363 18.1934 6.47302C17.9883 6.59997 17.6953 6.79529 17.5391 6.89294L17.2559 7.07849L17.3242 6.69763C17.4316 6.15076 17.8906 5.20349 18.3008 4.73474C19.248 3.63122 20.8691 3.10388 22.2168 3.46521ZM25.3711 9.5199C25.332 10.6039 24.9414 11.3949 23.9844 12.3617C22.1777 14.1879 20.4297 14.1879 18.6035 12.3617C17.6465 11.4047 17.2461 10.5941 17.207 9.52966L17.168 8.73865L17.5488 8.62146C17.7539 8.56286 18.1836 8.34802 18.5059 8.15271C18.8281 7.9574 19.1895 7.74255 19.3066 7.67419C19.4922 7.57654 20.0098 7.65466 22.4707 8.14294L25.4102 8.72888L25.3711 9.5199ZM18.1152 15.5258C18.252 16.6976 19.0039 17.8011 20 18.2894C20.6348 18.6019 21.9141 18.6117 22.5781 18.2992C23.5547 17.85 24.2578 16.8539 24.4531 15.6234L24.5508 14.9496H25.1367C25.4492 14.9496 25.8789 14.9984 26.084 15.0668C26.6211 15.223 27.2363 15.7797 27.5 16.3558C27.7148 16.8148 27.7344 16.9808 27.7246 18.3187C27.7246 20.2816 27.627 21.0726 27.2852 21.766C26.9043 22.557 25.8301 23.5922 24.9023 24.0609L24.1797 24.432L23.7695 23.6215L23.3594 22.8109L23.8184 22.4008C24.0723 22.1761 24.5117 21.6293 24.7852 21.1703C25.3906 20.1937 25.4492 19.7738 25.0391 19.4515C24.502 19.0316 24.1113 19.2269 23.4863 20.2426C23.2129 20.682 22.8809 21.1117 22.7539 21.2191C22.6172 21.3168 21.3086 21.9222 19.834 22.5668C18.291 23.2308 17.041 23.8363 16.8945 23.9828L16.6211 24.2465L15.7617 23.9047C15.2832 23.7191 14.834 23.5531 14.7754 23.5336C14.6973 23.5043 14.9316 23.0258 15.4297 22.225C15.8594 21.5219 16.2109 20.8773 16.2109 20.7894C16.2109 20.2426 15.6738 19.8324 15.166 19.9984C14.9512 20.0668 14.6875 20.4183 13.9941 21.5414C13.4961 22.3422 13.0566 23.0258 13.0078 23.0746C12.959 23.1234 12.5195 23.1136 11.9727 23.0355L11.0352 22.9086L13.1348 19.4906C14.2969 17.6058 15.3711 15.9164 15.5176 15.7308C15.9473 15.1937 16.5137 14.9496 17.3438 14.9496H18.0469L18.1152 15.5258ZM20.6738 15.2621C21.25 15.3695 21.9922 15.3011 22.7344 15.0863C22.9102 15.0375 22.9492 15.057 22.9492 15.2523C22.9492 15.6429 22.5 16.473 22.168 16.7074C21.2012 17.4008 19.9219 16.7269 19.668 15.3988C19.5996 15.0277 19.6094 15.0179 19.834 15.0765C19.9609 15.1156 20.3418 15.1937 20.6738 15.2621ZM7.46094 21.9808C7.69531 22.2738 8.07617 22.8597 8.31055 23.2894C8.54492 23.7094 8.84766 24.1293 8.98438 24.2172C9.12109 24.3051 9.53125 24.3929 9.98047 24.432C10.4004 24.4613 10.7617 24.5101 10.8008 24.5394C10.8301 24.5687 10.7129 25.0961 10.5469 25.7113L10.2344 26.8344H8.93555H7.62695L7.57813 26.5804C7.5 26.2386 6.64063 21.3168 6.64063 21.2484C6.64063 21.1117 7.08984 21.5023 7.46094 21.9808ZM22.2949 24.1879C22.5 24.598 22.6367 24.9691 22.5879 25.0179C22.5488 25.057 21.6309 25.4476 20.5469 25.8773C18.75 26.6097 18.5645 26.6586 18.2813 26.5609C17.6758 26.3558 17.5098 25.5062 17.998 25.1449C18.2227 24.9789 21.6602 23.4652 21.8262 23.4554C21.8848 23.4457 22.0996 23.7777 22.2949 24.1879ZM13.4473 24.8519C14.2578 25.0277 14.9219 25.2426 15.5762 25.5551C16.0352 25.7699 16.0742 25.809 16.1914 26.2972C16.4453 27.3715 17.334 28.1234 18.4277 28.1722C18.9746 28.2015 19.0137 28.2211 19.7168 28.8754C20.1172 29.2465 20.7422 29.9105 21.1035 30.35L21.7773 31.1508V32.6156C21.7773 34.0804 21.7773 34.0902 21.5625 34.0902C21.4355 34.0902 21.1621 34.1781 20.9473 34.2758C19.7363 34.8226 19.1699 36.0433 19.4629 37.4301L19.541 37.8011H14.4531H9.375V36.5804V35.3597H12.5781C17.0508 35.3597 18.0371 35.1937 18.4668 34.3832C19.4336 32.5961 16.0645 28.7484 12.3535 27.4008C12.0898 27.3031 11.8457 27.2054 11.8262 27.1859C11.8066 27.1761 11.9336 26.6097 12.1191 25.9359C12.4902 24.559 12.3926 24.6371 13.4473 24.8519ZM25.1953 27.2933V28.8949L24.541 29.1195C24.1699 29.2367 23.6328 29.4613 23.3203 29.6078L22.7734 29.8812L22.5 29.5199C22.3535 29.3246 21.875 28.7972 21.4551 28.3578C20.6934 27.5765 20.6836 27.557 20.9082 27.4496C21.1328 27.3519 25.1172 25.7113 25.1758 25.7015C25.1856 25.6918 25.1953 26.4144 25.1953 27.2933ZM45.8984 29.4515C45.8496 30.2523 45.8496 32.0785 45.9082 33.7484C45.9473 34.8715 45.9375 34.9398 45.6641 35.5258C45.1953 36.5511 44.2773 37.2152 42.9883 37.4984C42.7051 37.557 42.4512 37.6058 42.4219 37.6058C42.3828 37.6058 42.5879 37.3617 42.8711 37.059C43.5742 36.2777 43.8672 35.6625 43.916 34.8226C43.9551 34.2172 43.9258 34.0316 43.5938 33.1625C43.2715 32.3129 43.2227 32.0687 43.2227 31.307C43.2129 30.3597 43.3789 29.8812 43.8672 29.4418C44.3066 29.0316 45.166 28.7191 45.7031 28.7484C45.9473 28.7679 45.9473 28.7777 45.8984 29.4515ZM41.8066 29.5492C41.8359 29.5785 41.8066 29.8226 41.7383 30.1058C41.4746 31.0922 41.6504 32.6351 42.1484 33.8168C42.2754 34.1293 42.3828 34.4906 42.3828 34.6273C42.3828 35.3304 41.5625 36.3168 40.2637 37.1761L39.4629 37.7133L38.9746 37.4691C37.7246 36.8343 36.7188 35.1547 36.7188 33.6996C36.7188 31.8246 38.3008 29.891 40.1563 29.5004C40.5371 29.4222 41.6504 29.4613 41.8066 29.5492ZM16.7969 32.9379C16.9727 33.2504 17.0898 33.5336 17.0605 33.5629C17.0117 33.6117 15.957 33.7972 15.7031 33.7972C15.5469 33.7972 15.5273 33.6703 15.5273 32.5472L15.5371 31.307L16.0156 31.8246C16.2695 32.1176 16.6211 32.6156 16.7969 32.9379ZM4.60938 32.723C4.90234 33.0355 5.3125 33.6117 5.51758 34.0023C5.73242 34.3832 6.02539 34.8031 6.18164 34.9301C6.48438 35.184 7.01172 35.3597 7.5 35.3597H7.8125V36.5804V37.8011H6.36719H4.91211L4.70703 36.5511C4.58984 35.8676 4.36523 34.598 4.21875 33.7191C4.0625 32.85 3.96484 32.1371 4.01367 32.1371C4.05273 32.1371 4.32617 32.4008 4.60938 32.723ZM28.2227 36.6781V37.8109L24.9121 37.7816L21.6016 37.7523L21.3574 37.5277C20.6543 36.8636 20.8887 35.8676 21.7969 35.6527C21.9727 35.6136 23.4961 35.5746 25.1758 35.5648L28.2227 35.5551V36.6781ZM48.5352 41.9027V44.4418L37.4414 44.4613L26.3477 44.4906L26.1621 44.725C25.918 45.0277 25.9277 45.4965 26.1914 45.7797L26.3965 46.0043H35.9082H45.4102V46.8539C45.4102 47.5472 45.3711 47.7816 45.2148 48.0355C44.8145 48.6898 46.2988 48.641 24.9316 48.641C5.84961 48.641 5.50781 48.641 5.20508 48.4457C4.74609 48.1722 4.56055 47.7328 4.51172 46.8051L4.46289 46.0043H14.1504H23.8379L24.0918 45.7504C24.2969 45.5453 24.3262 45.4379 24.2871 45.1449C24.1699 44.432 25.1563 44.4906 12.6953 44.4613L1.46484 44.4418V41.9027V39.3636H25H48.5352V41.9027Z" fill="#0049CB"/>
<rect x="2.14844" y="40.0472" width="45.8008" height="3.61328" fill="#00C6FF"/>
<rect x="5.46875" y="46.5902" width="39.1602" height="1.46484" fill="#00C6FF"/>
</g>
<defs>
<clipPath id="clip0_99_7769">
<rect width="50" height="50" fill="white" transform="translate(0 0.984741)"/>
</clipPath>
</defs>
</svg>
