<svg width="50" height="51" viewBox="0 0 50 51" fill="none" xmlns="http://www.w3.org/2000/svg">
<g clip-path="url(#clip0_99_7788)">
<path d="M24.5607 1.12146C21.5139 1.63904 18.799 2.83044 16.4553 4.68591C15.6643 5.31091 14.3166 6.72693 13.6232 7.6449C12.0998 9.65662 11.2697 11.4437 10.5568 14.2269L10.4494 14.6176L9.69747 14.6371C7.27559 14.7054 5.06856 15.6136 3.1545 17.3422C1.96309 18.4066 0.74239 20.4379 0.283405 22.1273C-0.0193288 23.2504 -0.0876882 25.4281 0.146687 26.6293C0.771687 29.8226 2.77364 32.4008 5.71309 33.807C6.77755 34.3148 7.99825 34.6761 8.65255 34.6761C9.20919 34.6761 9.56075 34.3734 9.63887 33.8363C9.73653 33.1234 9.39473 32.7816 8.34005 32.5668C5.51778 31.9711 3.23262 29.8422 2.32442 26.9613C2.12911 26.3168 2.09981 26.0433 2.09981 24.6664C2.10958 23.182 2.12911 23.0648 2.40255 22.264C3.31075 19.6957 5.14669 17.8695 7.66622 17.0297C8.34981 16.8051 8.65255 16.766 10.0588 16.7367C12.2072 16.6781 12.1779 16.6976 12.51 15.0472C13.0959 12.1078 14.4533 9.56873 16.6018 7.42029C18.7502 5.26208 21.2307 3.92419 24.3166 3.26013C25.508 3.00623 28.799 3.00623 29.9807 3.2699C32.9689 3.91443 35.4104 5.23279 37.51 7.32263C39.1604 8.97302 39.9025 10.0472 40.8205 12.1664L41.3772 13.4359L42.2561 13.8851C42.7443 14.139 43.3791 14.4906 43.6623 14.6859C45.4982 15.9066 46.9143 17.8695 47.6174 20.1742C47.8713 20.9945 47.8908 21.1703 47.8908 22.8109C47.8908 24.8226 47.7639 25.4574 47.0803 26.9222C45.801 29.6371 43.5744 31.5707 40.7619 32.3812C39.7658 32.6644 39.4826 32.8304 39.3557 33.1722C39.1799 33.6215 39.2482 33.9047 39.59 34.2465C40.0002 34.6566 40.2834 34.6664 41.465 34.3246C43.2326 33.8168 45.1857 32.6547 46.5139 31.3265C48.0666 29.7738 49.1018 27.9672 49.6682 25.7894C49.9807 24.6371 50.0881 22.3519 49.9123 21.1019C49.3654 17.3715 47.1389 14.2074 43.7209 12.3031L42.9592 11.8734L42.5295 10.9066C41.6994 9.04138 40.7326 7.63513 39.2678 6.12146C36.8264 3.62146 34.0529 2.07849 30.6154 1.30701C29.7072 1.10193 29.2189 1.06287 27.4416 1.03357C25.9768 1.00427 25.1076 1.03357 24.5607 1.12146Z" fill="#0049CB"/>
<path d="M15.7224 17.3812C14.1599 17.8695 12.949 19.1195 12.49 20.7113C12.2849 21.4144 12.2459 22.5472 12.4119 23.2504C12.5779 23.9535 13.0857 24.891 13.6228 25.4574L14.1209 25.9847L13.6228 26.5121C13.0857 27.0785 12.5779 28.016 12.4119 28.7191C12.3533 28.9633 12.3045 29.4906 12.3045 29.891C12.3045 30.2914 12.3533 30.8187 12.4119 31.0629C12.5779 31.766 13.0857 32.7035 13.6228 33.2699L14.1209 33.7972L13.6228 34.3246C13.0857 34.891 12.5779 35.8285 12.4119 36.5316C12.1482 37.6644 12.3728 39.1683 12.949 40.184C13.3006 40.8187 14.1013 41.6 14.7556 41.9711C15.8103 42.5668 16.0056 42.5863 20.2049 42.5863H24.0232V43.8949V45.2035L23.5056 45.4965C22.5681 46.0238 22.0799 46.9027 22.0701 48.0551C22.0701 49.764 23.281 50.9847 24.9998 50.9847C26.7185 50.9847 27.9295 49.764 27.9295 48.0551C27.9197 46.9027 27.4314 46.0238 26.4939 45.4965L25.9763 45.2035V43.8949V42.5863H29.824C34.1892 42.5863 34.3943 42.557 35.5271 41.8051C38.0662 40.1058 38.4861 36.6097 36.4256 34.3441L35.9178 33.7972L36.4256 33.2504C38.1736 31.3265 38.1736 28.4554 36.4256 26.5316L35.9178 25.9847L36.4256 25.4379C37.8318 23.8851 38.1345 21.6976 37.1775 19.7836C36.6697 18.7582 35.4588 17.7523 34.3064 17.391C33.6912 17.2054 33.4178 17.1957 24.9607 17.2054C16.9724 17.2152 16.2107 17.225 15.7224 17.3812ZM33.1443 19.2465C34.4822 19.4613 35.4002 20.3304 35.6248 21.5804C35.742 22.2543 35.576 23.0941 35.2146 23.641C34.9314 24.0707 34.2674 24.598 33.7595 24.7836C33.5252 24.8617 31.2107 24.9008 24.9998 24.9008L16.5525 24.9105L16.0545 24.6761C15.0291 24.1976 14.4529 23.348 14.3748 22.2152C14.3357 21.6195 14.365 21.434 14.5701 20.9847C14.9998 20.057 15.8299 19.4125 16.7869 19.2465C17.451 19.139 32.4607 19.1293 33.1443 19.2465ZM33.1443 27.059C34.4822 27.2738 35.4002 28.1429 35.6248 29.3929C35.742 30.0668 35.576 30.9066 35.2146 31.4535C34.9314 31.8832 34.2674 32.4105 33.7595 32.5961C33.5252 32.6742 31.2107 32.7133 24.9998 32.7133L16.5525 32.723L16.0545 32.4886C15.0291 32.0101 14.4529 31.1605 14.3748 30.0277C14.3357 29.4711 14.3748 29.2465 14.5408 28.8754C14.9705 27.889 15.781 27.225 16.7771 27.059C17.451 26.9515 32.451 26.9418 33.1443 27.059ZM33.6912 34.9594C35.5174 35.6332 36.2205 37.6547 35.1853 39.2953C34.9314 39.6957 34.2576 40.223 33.7595 40.4086C33.5252 40.4867 31.2107 40.5258 24.9998 40.5258L16.5525 40.5355L16.0545 40.3011C15.0291 39.8226 14.4529 38.973 14.3748 37.8402C14.3357 37.2836 14.3748 37.059 14.5408 36.6879C14.9705 35.7015 15.781 35.0472 16.7771 34.8715C17.031 34.8324 20.8592 34.8031 25.2928 34.8129C31.6599 34.8226 33.4178 34.8617 33.6912 34.9594ZM25.6248 47.4301C25.8103 47.6156 25.8787 47.7914 25.8787 48.0551C25.8787 48.8461 24.9412 49.2367 24.3748 48.6801C23.8181 48.1136 24.2088 47.1761 24.9998 47.1761C25.2635 47.1761 25.4392 47.2445 25.6248 47.4301Z" fill="#0049CB"/>
<path d="M17.4314 20.9945C17.1092 21.1312 16.8845 21.4535 16.826 21.8734C16.7771 22.225 16.8064 22.3031 17.1189 22.6156L17.4607 22.9574H21.5232C24.9607 22.9574 25.6443 22.9379 25.8787 22.8109C26.2302 22.6254 26.367 22.391 26.367 21.932C26.367 21.4828 26.1424 21.141 25.7615 21.014C25.4002 20.8871 17.7342 20.8773 17.4314 20.9945Z" fill="#00C6FF"/>
<path d="M28.3592 21.0922C27.5878 21.5609 27.8026 22.7523 28.6815 22.9183C29.3358 23.0453 29.8827 22.5961 29.8827 21.932C29.8827 21.4828 29.6581 21.141 29.2772 21.014C28.8573 20.8675 28.7108 20.8773 28.3592 21.0922Z" fill="#00C6FF"/>
<path d="M31.8357 21.0336C31.5037 21.1996 31.2303 21.7562 31.3084 22.1273C31.4353 22.7621 32.1189 23.1039 32.7244 22.8597C33.4666 22.5472 33.4959 21.4047 32.7635 21.0531C32.3728 20.8773 32.158 20.8675 31.8357 21.0336Z" fill="#00C6FF"/>
<path d="M17.4314 28.807C17.1092 28.9437 16.8845 29.266 16.826 29.6859C16.7771 30.0375 16.8064 30.1156 17.1189 30.4281L17.4607 30.7699H21.5232C24.9607 30.7699 25.6443 30.7504 25.8787 30.6234C26.2302 30.4379 26.367 30.2035 26.367 29.7445C26.367 29.2953 26.1424 28.9535 25.7615 28.8265C25.4002 28.6996 17.7342 28.6898 17.4314 28.807Z" fill="#00C6FF"/>
<path d="M28.3592 28.9047C27.5878 29.3734 27.8026 30.5648 28.6815 30.7308C29.3358 30.8578 29.8827 30.4086 29.8827 29.7445C29.8827 29.2953 29.6581 28.9535 29.2772 28.8265C28.8573 28.68 28.7108 28.6898 28.3592 28.9047Z" fill="#00C6FF"/>
<path d="M31.8357 28.8461C31.5037 29.0121 31.2303 29.5687 31.3084 29.9398C31.4353 30.5746 32.1189 30.9164 32.7244 30.6722C33.4666 30.3597 33.4959 29.2172 32.7635 28.8656C32.3728 28.6898 32.158 28.68 31.8357 28.8461Z" fill="#00C6FF"/>
<path d="M17.4317 36.6195C16.797 36.8832 16.631 37.7719 17.1192 38.2601L17.3829 38.5336L21.4552 38.5629C25.7325 38.5922 25.9376 38.5726 26.2208 38.1527C26.4161 37.889 26.4063 37.264 26.211 36.9711C26.1329 36.8441 25.9278 36.6976 25.7618 36.639C25.4005 36.5121 17.7345 36.5023 17.4317 36.6195Z" fill="#00C6FF"/>
<path d="M28.3592 36.7172C27.5878 37.1859 27.8026 38.3773 28.6815 38.5433C29.3358 38.6703 29.8827 38.2211 29.8827 37.557C29.8827 37.1078 29.6581 36.766 29.2772 36.639C28.8573 36.4925 28.7108 36.5023 28.3592 36.7172Z" fill="#00C6FF"/>
<path d="M31.8357 36.6586C31.5037 36.8246 31.2303 37.3812 31.3084 37.7523C31.4353 38.3871 32.1189 38.7289 32.7244 38.4847C33.4666 38.1722 33.4959 37.0297 32.7635 36.6781C32.3728 36.5023 32.158 36.4925 31.8357 36.6586Z" fill="#00C6FF"/>
<path d="M0.253906 47.3324C-0.107422 47.7035 -0.107422 48.4066 0.253906 48.7777L0.517578 49.0316H9.66797H18.8184L19.082 48.7777C19.4434 48.4066 19.4434 47.7035 19.082 47.3324L18.8184 47.0785H9.66797H0.517578L0.253906 47.3324Z" fill="#0049CB"/>
<path d="M30.8203 47.3324C30.6152 47.5375 30.5664 47.684 30.5664 48.0551C30.5664 48.4261 30.6152 48.5726 30.8203 48.7777L31.084 49.0316H40.2832H49.4824L49.7461 48.7777C49.9512 48.5726 50 48.4261 50 48.0551C50 47.684 49.9512 47.5375 49.7461 47.3324L49.4824 47.0785H40.2832H31.084L30.8203 47.3324Z" fill="#0049CB"/>
</g>
<defs>
<clipPath id="clip0_99_7788">
<rect width="50" height="50" fill="white" transform="translate(0 0.984741)"/>
</clipPath>
</defs>
</svg>
