<svg width="46" height="50" viewBox="0 0 46 50" fill="none" xmlns="http://www.w3.org/2000/svg">
<path d="M38.1857 1.43004C36.6721 2.06481 36.2619 2.36754 36.0861 3.02184C35.9787 3.41246 36.0275 3.87145 36.2424 4.41832C36.3303 4.6527 34.7873 5.35582 34.1721 5.35582C33.9182 5.35582 32.6389 5.03356 31.0275 4.56481L28.3225 3.78356L27.2482 3.82262C26.3596 3.86168 25.9982 3.93004 25.1486 4.21324C23.6447 4.71129 14.2111 8.36364 13.8498 8.58824C13.3322 8.91051 12.6779 9.72106 12.4533 10.3168C12.1896 11.0101 12.1701 11.9867 12.3947 12.5336C12.9221 13.7836 14.3576 14.3402 16.2521 14.0179C16.7502 13.9398 18.5373 13.4613 20.2365 12.9632L23.3029 12.0648L23.5959 12.4261C24.0744 12.9925 24.5822 13.2172 26.9357 13.8422C28.6643 14.3011 29.299 14.516 29.7385 14.7797C31.6428 15.932 33.1564 16.1664 34.9143 15.5804C35.3147 15.4437 36.6135 14.8773 37.7854 14.3109L39.9338 13.2953L40.1193 13.6761C40.3635 14.1547 40.9299 14.5453 41.4865 14.6039C41.8381 14.6429 42.1311 14.5648 43.1662 14.1449C43.8596 13.8714 44.592 13.5589 44.7873 13.4515C45.3244 13.1879 45.5881 12.7484 45.6369 12.0843C45.676 11.5472 45.6174 11.3812 43.6154 6.56676C42.4729 3.83239 41.4475 1.4984 41.3303 1.37145C40.676 0.668322 40.0022 0.687854 38.1857 1.43004ZM40.2561 2.44567C40.4709 2.72887 44.2111 11.8988 44.1623 12.0257C44.133 12.0941 43.5568 12.3871 42.8635 12.6703C41.8576 13.0804 41.5939 13.1488 41.5061 13.0511C41.3107 12.8363 37.5314 3.62731 37.5705 3.45153C37.59 3.3441 38.01 3.11949 38.7229 2.81676C39.9338 2.30895 40.1096 2.26012 40.2561 2.44567ZM30.8322 6.04918C33.4592 6.8109 33.5959 6.8402 34.3576 6.80114C35.0412 6.76207 35.2854 6.70348 36.0178 6.35192L36.8772 5.95153L37.0725 6.41051C37.7365 7.93395 39.3088 11.7816 39.3088 11.8597C39.3088 11.9769 35.2365 13.9105 34.3283 14.2132C33.0295 14.6527 31.9748 14.4379 30.3928 13.432C29.9631 13.1488 29.3869 12.9632 27.4729 12.4457C25.2268 11.85 25.0803 11.7914 24.7873 11.4691C24.5139 11.1664 24.465 11.0492 24.465 10.6195C24.465 10.1703 24.5041 10.0824 24.8459 9.74059C25.1682 9.41832 25.2854 9.35973 25.6467 9.35973C25.8713 9.35973 27.3752 9.71129 28.967 10.141C30.5686 10.5707 31.9846 10.9222 32.1213 10.9222C32.717 10.9222 33.01 10.0531 32.5314 9.68199C32.3947 9.57457 31.0373 9.15465 29.2893 8.69567C25.8225 7.7777 25.3439 7.7191 24.4846 8.14879C23.6447 8.55895 23.01 9.47692 23.0002 10.2582C23.0002 10.4632 22.9807 10.6293 22.9709 10.6293C22.9514 10.6293 21.5158 11.0492 19.7775 11.557C18.0393 12.0648 16.34 12.5336 15.9885 12.5922C14.9729 12.7679 14.0646 12.5531 13.8107 12.0746C13.5275 11.5375 13.8596 10.4437 14.4455 9.99449C14.758 9.76012 24.9826 5.77574 26.1252 5.45348C27.3264 5.11168 27.7854 5.17028 30.8322 6.04918Z" fill="#0049CB"/>
<path d="M21.3886 14.7308C18.537 15.4535 16.2226 17.7679 15.4706 20.639C15.2265 21.5765 15.1776 23.4515 15.373 24.35C15.6464 25.6097 16.4081 27.182 17.1015 27.9242L17.3456 28.1781L16.3105 29.9652C15.7441 30.9515 15.2851 31.8695 15.2851 31.9867C15.2851 32.2699 15.6952 32.6996 15.9491 32.6996C16.0566 32.6996 16.6816 32.5922 17.3358 32.4554C17.9999 32.3187 18.5468 32.2211 18.5566 32.2308C18.5663 32.2504 18.7616 32.8168 18.9862 33.5004C19.2108 34.1742 19.4648 34.7894 19.5526 34.8578C19.7382 35.014 20.2948 35.0238 20.4804 34.8773C20.5487 34.809 21.1151 33.8812 21.7304 32.807L22.8534 30.8539L23.4003 30.8441H23.9472L25.0995 32.8363C26.2128 34.7601 26.4276 35.0433 26.8573 35.0433C27.1894 35.0433 27.4823 34.5844 27.8339 33.4808C28.039 32.8656 28.2343 32.3285 28.2636 32.2797C28.3026 32.2406 28.8495 32.3187 29.4745 32.4554C30.8515 32.7484 31.0468 32.7582 31.3007 32.5043C31.6718 32.1332 31.5644 31.7914 30.5194 29.9847C29.9823 29.0472 29.5429 28.266 29.5429 28.2465C29.5429 28.2269 29.8066 27.8265 30.1288 27.3676C33.3026 22.7875 31.1347 16.5472 25.7831 14.8285C24.7773 14.5062 22.4921 14.4574 21.3886 14.7308ZM25.1483 16.2054C26.3495 16.5277 27.1405 16.9965 28.1269 17.9926C28.7909 18.6664 29.1034 19.0668 29.3769 19.6136C30.7538 22.3773 30.1874 25.4926 27.9316 27.6019C26.6718 28.7836 25.1679 29.3793 23.4296 29.3793C20.0019 29.3793 17.1601 26.85 16.7401 23.4027C16.5448 21.85 16.9257 20.3461 17.8339 18.9789C19.4648 16.5472 22.3261 15.4633 25.1483 16.2054ZM19.1034 29.6527C19.6991 30.014 20.9198 30.5511 21.1347 30.5511C21.3007 30.5511 21.2714 30.6488 20.7148 31.5961L20.1972 32.5043L19.9726 31.7719C19.6112 30.6097 19.4257 30.5121 18.1464 30.7855C17.8046 30.8539 17.5312 30.9027 17.5312 30.8734C17.5312 30.8148 18.4198 29.2816 18.4589 29.2816C18.4784 29.2816 18.7714 29.4476 19.1034 29.6527ZM28.5956 29.6429C28.7226 29.848 28.9374 30.2191 29.0839 30.4633L29.3378 30.9125L28.7323 30.7855C27.8925 30.6 27.453 30.6097 27.2773 30.8148C27.1503 30.9613 27.0038 31.3226 26.6523 32.309C26.623 32.3969 26.3983 32.0941 26.0761 31.5375C25.7831 31.0394 25.539 30.6097 25.539 30.5902C25.539 30.5707 25.6073 30.5511 25.6952 30.5511C25.9589 30.5511 27.2284 29.9847 27.7362 29.6332C28.0097 29.4476 28.2538 29.3011 28.2929 29.2914C28.3319 29.2816 28.4687 29.4476 28.5956 29.6429Z" fill="#00C6FF"/>
<path d="M22.1506 17.6019C20.7931 17.934 19.465 18.9594 18.8303 20.1605C17.7365 22.2113 18.0978 24.7601 19.6896 26.3422C20.4221 27.0648 21.1252 27.475 22.0627 27.7191C23.381 28.0511 24.5041 27.9437 25.7346 27.3578C27.4338 26.5472 28.6642 24.5941 28.6642 22.6898C28.6642 22.0453 28.3908 20.9711 28.0588 20.2972C27.6584 19.4769 26.6721 18.4711 25.8517 18.0609C24.7385 17.4945 23.3127 17.3187 22.1506 17.6019ZM24.9631 19.2914C26.0275 19.7894 26.7599 20.6781 27.0627 21.8597C27.3849 23.1195 27.0334 24.2914 26.0373 25.2875C25.3342 25.9906 24.6506 26.3226 23.7228 26.4203C22.2678 26.5765 20.6467 25.6293 19.9924 24.2328C19.758 23.7347 19.7287 23.5492 19.7287 22.6898C19.7287 21.7816 19.7482 21.6644 20.051 21.059C20.5392 20.0726 21.4865 19.3011 22.5607 19.0179C22.7267 18.9691 23.1857 18.9496 23.5959 18.9691C24.1721 18.9886 24.465 19.057 24.9631 19.2914Z" fill="#00C6FF"/>
<path d="M23.6349 21.8597L22.3557 23.1293L21.9162 22.641C21.5158 22.2015 21.4279 22.1527 21.0666 22.1527C20.7639 22.1527 20.6271 22.2015 20.5197 22.3675C20.2072 22.807 20.3146 23.0707 21.1447 23.9984C21.9357 24.8773 22.2287 25.0531 22.6291 24.8968C22.756 24.848 23.5568 24.0961 24.4162 23.2367C25.8517 21.7816 25.9689 21.6449 25.9689 21.3128C25.9689 20.8832 25.6662 20.5902 25.217 20.5902C24.9631 20.5902 24.7189 20.7855 23.6349 21.8597Z" fill="#00C6FF"/>
<path d="M11.4864 34.2621C11.0958 34.3695 10.0216 34.809 9.09386 35.2484C6.04699 36.6937 6.00792 36.7035 6.00792 36.5668C6.00792 36.2933 5.43175 35.6586 5.04113 35.4925C4.42589 35.2484 4.14269 35.2972 2.8048 35.8343C0.656361 36.7035 0.431751 36.8793 0.363392 37.8851C0.324329 38.4222 0.382923 38.5883 2.38488 43.4027C3.52745 46.1371 4.55284 48.4711 4.67003 48.598C5.31456 49.2914 5.97863 49.2816 7.73644 48.559C9.26964 47.934 9.45519 47.8265 9.70909 47.4066C9.98253 46.9476 10.0314 46.4789 9.86534 45.9222C9.78722 45.6586 9.71886 45.434 9.71886 45.4144C9.71886 45.3949 10.0997 45.2093 10.5587 45.0043C11.1349 44.7308 11.5353 44.6136 11.838 44.6136C12.0919 44.6136 13.4005 44.9359 15.0118 45.4047L17.7462 46.1957L18.7911 46.1468C19.4747 46.1175 20.0607 46.0297 20.5099 45.8832C21.6427 45.5218 31.8185 41.5863 32.1505 41.3812C32.6681 41.059 33.3224 40.2484 33.547 39.6527C33.8107 38.9691 33.8302 37.9828 33.5958 37.4261C33.381 36.8988 32.8341 36.3617 32.2384 36.1078C31.8282 35.9222 31.5646 35.8832 30.715 35.8929C29.5528 35.8929 29.6114 35.8734 25.5587 37.0648L22.6974 37.9047L22.4044 37.5531C21.9259 36.9769 21.4181 36.7523 19.0548 36.1273C17.4435 35.6976 16.6915 35.4535 16.3595 35.2386C15.6954 34.809 14.5235 34.3011 13.9376 34.1742C13.1857 34.0179 12.3165 34.0472 11.4864 34.2621ZM14.4259 35.8929C14.7775 36.059 15.3048 36.3519 15.6075 36.5375C16.0372 36.8207 16.6134 37.0062 18.5275 37.5238C20.7735 38.1195 20.92 38.1781 21.2228 38.5004C21.4864 38.8031 21.5353 38.9203 21.5353 39.35C21.5353 39.7992 21.4962 39.8871 21.1544 40.2289C20.8321 40.5511 20.715 40.6097 20.3536 40.6097C20.129 40.6097 18.6251 40.2582 17.0333 39.8285C15.4318 39.3988 14.0157 39.0472 13.879 39.0472C13.3126 39.0472 13.0001 39.8871 13.4298 40.2679C13.547 40.3754 14.8165 40.766 16.6329 41.2543C19.9435 42.1527 20.6173 42.2406 21.3985 41.889C22.2677 41.4984 23.0001 40.5023 23.0001 39.7211C23.0001 39.4574 23.0489 39.3402 23.1759 39.3011C25.8712 38.4906 29.5333 37.4554 30.0118 37.3773C31.0275 37.2015 31.9357 37.4164 32.1896 37.8949C32.4728 38.432 32.1407 39.5258 31.5548 39.975C31.2228 40.2289 20.9982 44.1937 19.8653 44.516C18.6251 44.8578 18.2345 44.809 15.2071 43.9203C12.5997 43.1586 12.4728 43.139 11.672 43.1683C10.9396 43.2074 10.7345 43.2562 9.98253 43.6175L9.12316 44.0179L8.94738 43.6078C8.19542 41.8695 6.69152 38.1879 6.69152 38.1195C6.69152 37.9925 10.7931 36.0394 11.6525 35.7465C12.59 35.434 13.5568 35.4828 14.4259 35.8929ZM4.61144 37.1039C5.12902 38.1976 8.44933 46.3519 8.4298 46.4984C8.39074 46.7425 6.05675 47.7191 5.84191 47.5824C5.66613 47.475 1.78917 38.1879 1.82824 37.9828C1.85753 37.8265 4.21105 36.7816 4.39659 36.8402C4.45519 36.85 4.54308 36.9672 4.61144 37.1039Z" fill="#0049CB"/>
</svg>
