<svg width="50" height="51" viewBox="0 0 50 51" fill="none" xmlns="http://www.w3.org/2000/svg">
<g clip-path="url(#clip0_99_7747)">
<path d="M19.0332 1.16049C18.0176 1.57064 17.3926 2.17611 16.9141 3.21127C16.5625 3.95346 16.5527 5.24252 16.875 6.05307L17.0801 6.59017L16.6309 7.07846C16.377 7.35189 15.791 7.97689 15.3223 8.47494L14.4824 9.37338L13.9062 9.139C12.8125 8.68978 11.4941 8.72885 10.3613 9.24642L9.83398 9.4808L9.53125 9.23666C9.36523 9.10971 8.73047 8.52377 8.125 7.9476L7.02148 6.89291L7.1875 6.45346C7.44141 5.78939 7.42188 4.50033 7.13867 3.79721C6.83594 3.01596 6.10352 2.24447 5.29297 1.84408C4.6875 1.54135 4.57031 1.52182 3.66211 1.52182C2.8125 1.52182 2.61719 1.55111 2.12891 1.78549C1.35742 2.14682 0.742188 2.74252 0.361328 3.514C0.0683594 4.10971 0.0488281 4.21713 0.0488281 5.18393C0.0488281 6.15072 0.0683594 6.24838 0.371094 6.86361C0.966797 8.07455 2.06055 8.77767 3.51562 8.86557C4.10156 8.90463 4.36523 8.87533 4.83398 8.70932C5.15625 8.59213 5.46875 8.48471 5.52734 8.47494C5.58594 8.46517 6.25977 9.04135 7.01172 9.75424L8.38867 11.0433L8.20312 11.4632C8.0957 11.6976 7.95898 12.2054 7.90039 12.5863C7.75391 13.4652 7.90039 14.4124 8.29102 15.1839L8.55469 15.7015L7.2168 17.1078C5.89844 18.4945 5.88867 18.5042 5.60547 18.3871C5.07812 18.1624 4.22852 18.0843 3.59375 18.182C2.38281 18.3773 1.31836 19.1878 0.800781 20.3011C0.566406 20.7894 0.537109 20.9847 0.537109 21.8343C0.537109 22.7425 0.556641 22.8597 0.859375 23.4652C2.24609 26.2972 6.25977 26.2386 7.59766 23.3675C7.83203 22.8792 7.86133 22.6937 7.86133 21.8343C7.86133 21.0433 7.8125 20.7699 7.63672 20.3792L7.42188 19.9105L8.75 18.514L10.0684 17.1273L10.6445 17.3617C12.2754 18.016 14.1113 17.6253 15.3906 16.3656C16.7578 15.0081 17.0801 12.9476 16.2109 11.2288L16.0059 10.8382L16.3184 10.4769C16.4941 10.2816 17.0898 9.63705 17.6367 9.05111L18.6426 7.98666L19.0332 8.15267C20.7617 8.83627 22.8613 7.99642 23.7012 6.27767C23.9551 5.76986 23.9746 5.62338 23.9746 4.64682C23.9746 3.63119 23.9551 3.5433 23.6621 2.98666C23.291 2.264 22.6855 1.6683 21.9727 1.31674C21.5137 1.08236 21.2988 1.03354 20.459 1.014C19.6875 0.984707 19.3848 1.02377 19.0332 1.16049ZM21.2012 3.2601C21.709 3.60189 21.9727 4.06088 21.9727 4.61752C21.9727 5.16439 21.8164 5.50619 21.416 5.88705C20.6055 6.64877 19.3066 6.37533 18.8379 5.34018C18.6035 4.8226 18.6035 4.46127 18.8574 3.94369C19.2676 3.10385 20.4492 2.75229 21.2012 3.2601ZM4.35547 3.68002C5.68359 4.31479 5.61523 6.18002 4.24805 6.70736C3.71094 6.90267 3.24219 6.84408 2.73438 6.51205C2.28516 6.21908 2.05078 5.74057 2.05078 5.11557C2.05078 3.97299 3.31055 3.18197 4.35547 3.68002ZM13.252 11.1117C14.3359 11.6195 14.8926 12.9085 14.5117 14.0023C13.9258 15.6234 11.8848 16.141 10.6738 14.9593C10.1367 14.4417 9.92188 13.9437 9.92188 13.2406C9.93164 12.5863 10.1074 12.1468 10.5859 11.6488C11.3086 10.8773 12.334 10.6722 13.252 11.1117ZM5.09766 20.4769C5.87891 20.9749 6.08398 22.0785 5.52734 22.8109C4.82422 23.7288 3.57422 23.7288 2.87109 22.8011C2.62695 22.4886 2.58789 22.3421 2.58789 21.8343C2.58789 21.3265 2.62695 21.18 2.86133 20.8773C3.4375 20.1156 4.29688 19.9691 5.09766 20.4769Z" fill="#00C6FF"/>
<path d="M36.9041 1.12144C36.3084 1.33628 35.8982 1.63902 35.1463 2.42027C32.1677 5.5355 30.0291 9.45152 29.531 12.6644L29.4724 13.055L28.6228 13.221C26.7576 13.5726 24.4822 14.5394 22.5388 15.8089C21.6599 16.3949 21.4842 16.5511 21.406 16.8343C21.2693 17.3128 21.367 17.6449 21.699 17.9281C22.1775 18.3285 22.5681 18.2601 23.5349 17.6253C24.5701 16.9515 26.6599 15.9261 27.6853 15.5843C28.4763 15.3304 29.8826 15.0472 30.3904 15.0472C30.9861 15.0472 31.4451 14.6078 31.4451 14.0316C31.4451 13.9144 31.5134 13.3968 31.6013 12.889C32.0994 10.0277 34.0037 6.61949 36.6697 3.84605C37.4119 3.07456 37.4705 3.0355 37.8709 3.0355C38.3982 3.0355 38.8181 3.26988 39.0134 3.68003C39.3259 4.33433 39.2674 4.46128 37.8416 6.06285C36.6502 7.4105 35.8592 8.53355 35.1658 9.87144C33.9158 12.2835 33.5349 14.3441 34.072 15.7406C34.199 16.0824 34.7263 16.6878 35.0486 16.8539C35.5662 17.1175 36.4939 17.2152 37.3924 17.098C39.697 16.7953 42.4021 15.3793 44.9217 13.1429C46.533 11.7074 46.6404 11.6585 47.324 11.9808C47.7439 12.1761 47.949 12.557 47.949 13.1136C47.949 13.514 47.9099 13.5726 47.0506 14.4027C44.1013 17.225 40.3709 19.1976 37.4021 19.4906C37.0506 19.5199 36.6404 19.598 36.4939 19.6566C36.1814 19.7738 35.9373 20.1839 35.9373 20.5941C35.9373 21.6683 35.4002 23.5531 34.6287 25.1546C33.5642 27.391 32.2556 29.1781 30.2244 31.2093C28.1931 33.2406 26.406 34.5492 24.1697 35.6136C22.5681 36.3851 20.6834 36.9222 19.6092 36.9222C19.0134 36.9222 18.5545 37.3617 18.5545 37.9378C18.5545 38.4066 18.2517 39.93 18.0076 40.682C17.2459 43.0453 15.4685 45.8871 13.4177 48.0355C12.5877 48.8949 12.5291 48.9339 12.1287 48.9339C11.572 48.9339 11.1912 48.7289 10.9959 48.3089C10.6736 47.6351 10.742 47.4984 12.0896 45.9945C14.3455 43.4652 15.8103 40.7113 16.1131 38.3773C16.2302 37.4886 16.1326 36.5511 15.8689 36.0433C14.9998 34.3832 12.2263 34.4222 8.88649 36.1507C7.5486 36.8441 6.42556 37.6351 5.0779 38.8265C3.47634 40.2523 3.34939 40.3109 2.69509 39.9984C2.28493 39.8031 2.05056 39.3832 2.05056 38.8558C2.05056 38.4554 2.08962 38.3968 2.8611 37.6546C5.87868 34.7543 9.60915 32.7816 12.5974 32.4789C12.949 32.4496 13.3592 32.3714 13.5056 32.3128C13.8181 32.1957 14.0623 31.7855 14.0623 31.3753C14.0623 30.8773 14.3357 29.471 14.5994 28.6703C14.9217 27.6742 15.947 25.5746 16.6013 24.5882C16.8748 24.1683 17.1384 23.7093 17.1775 23.5628C17.2947 23.1429 17.1189 22.6839 16.7674 22.4691C16.0642 22.0296 15.6638 22.2543 14.8142 23.5433C13.5545 25.4574 12.5877 27.7523 12.2361 29.6078L12.0701 30.4476L11.3865 30.5746C8.31032 31.1019 4.39431 33.2894 1.40603 36.1605C0.361104 37.1664 0.0681353 37.7035 0.0193071 38.7386C-0.0588179 40.1937 0.507588 41.2191 1.72829 41.8246C2.32399 42.1175 2.47048 42.1468 3.22243 42.1468C3.86696 42.1371 4.15993 42.0882 4.54079 41.9222L5.01931 41.6976L7.15798 43.8363L9.28689 45.9652L9.07204 46.4535C8.90603 46.8148 8.84743 47.1273 8.84743 47.7621C8.83767 48.514 8.86696 48.6605 9.15993 49.2562C9.7654 50.4769 10.7908 51.0433 12.2459 50.9652C13.281 50.9164 13.8181 50.6234 14.824 49.5785C17.822 46.4535 19.9705 42.5375 20.4685 39.305L20.5271 38.9144L21.3767 38.7484C24.7752 38.1136 28.8084 35.7015 31.9822 32.4203C35.0388 29.2562 37.158 25.5843 37.7634 22.3714L37.9295 21.5218L38.7888 21.3558C41.9138 20.7601 45.615 18.6605 48.5935 15.8089C49.6384 14.8031 49.9314 14.266 49.9802 13.2308C50.0584 11.7757 49.492 10.7503 48.2713 10.1449C47.6756 9.85191 47.5291 9.82261 46.7771 9.83238C46.1424 9.83238 45.8299 9.89097 45.4685 10.057L44.9802 10.2718L42.8513 8.14292L40.7127 6.00425L40.9373 5.52574C41.1228 5.12535 41.1619 4.87144 41.1619 4.15855C41.1619 3.348 41.1326 3.23081 40.8201 2.66441C40.2244 1.55113 39.2576 0.984721 37.9588 0.984721C37.5779 0.994487 37.0994 1.05308 36.9041 1.12144ZM43.3982 11.7367C43.3299 11.8539 41.406 13.2894 41.3279 13.2894C41.2888 13.2894 40.449 12.4789 39.4627 11.4925L37.6658 9.69566L37.8416 9.41246C37.9392 9.26597 38.3006 8.76792 38.6521 8.31871L39.2869 7.50816L41.367 9.58824C42.5095 10.7308 43.4275 11.6976 43.3982 11.7367ZM39.2967 14.3734C39.2185 14.5101 38.1443 14.8617 37.4021 15.0082C36.4744 15.1937 36.0642 15.1253 35.9275 14.7835C35.7615 14.3343 36.1131 12.596 36.5232 11.8246C36.6404 11.6097 36.699 11.6585 37.9978 12.9574C38.74 13.6898 39.3259 14.3343 39.2967 14.3734ZM14.0037 37.0199C14.2576 37.2738 14.0037 38.9535 13.574 39.93L13.3689 40.3793L12.0115 39.0218C11.2693 38.2796 10.6736 37.6351 10.7029 37.596C10.781 37.4593 11.8455 37.098 12.5486 36.9613C13.2713 36.8246 13.8279 36.8441 14.0037 37.0199ZM10.5369 40.4769L12.3338 42.2738L12.158 42.557C12.0603 42.7035 11.699 43.2015 11.3474 43.6507L10.7127 44.4613L8.63259 42.3812C7.49001 41.2386 6.57204 40.2718 6.60134 40.2328C6.6697 40.1156 8.59353 38.68 8.67165 38.68C8.71071 38.68 9.55056 39.4906 10.5369 40.4769Z" fill="#0049CB"/>
<path d="M29.785 17.4984C25.6737 18.1234 20.2147 22.557 17.7831 27.2543C16.2596 30.2035 16.0155 32.7035 17.1483 33.8363C17.6561 34.3441 18.203 34.5199 19.2381 34.5199C22.0116 34.5004 25.4393 32.684 28.5643 29.5492C31.0546 27.0687 32.7538 24.3246 33.3592 21.8344C33.6034 20.8383 33.5936 19.4125 33.3299 18.8558C32.8026 17.6937 31.5917 17.225 29.785 17.4984ZM31.3475 19.6371C31.5721 19.8617 31.5819 20.0277 31.4452 20.8871C31.3475 21.4633 30.869 22.9379 30.6639 23.2504C30.5858 23.3676 30.2831 23.1039 29.1014 21.932C28.3006 21.1312 27.6366 20.4379 27.6366 20.4086C27.6366 20.3207 29.0526 19.7738 29.5897 19.6469C30.6639 19.3929 31.1034 19.3929 31.3475 19.6371ZM29.3944 25.389C29.2479 25.6625 27.9784 27.1957 27.8807 27.225C27.8221 27.2445 26.8651 26.3363 25.7421 25.2133C23.8866 23.3578 23.7108 23.1527 23.8378 22.9965C23.9159 22.9086 24.3651 22.5277 24.8436 22.1566L25.7225 21.4828L27.5975 23.3578C29.0526 24.8129 29.4628 25.2719 29.3944 25.389ZM24.2577 26.7562C26.0936 28.5922 26.2889 28.8168 26.1717 28.973C26.0448 29.1195 24.5897 30.2719 24.3553 30.4086C24.2967 30.4379 23.4081 29.6176 22.3729 28.5824L20.4979 26.7074L21.0546 25.975C21.6503 25.2035 22.0702 24.7152 22.1581 24.7152C22.1971 24.7152 23.1346 25.6332 24.2577 26.7562ZM20.9471 30.0863C22.119 31.2679 22.3827 31.5707 22.2655 31.6488C21.953 31.8539 20.4784 32.3324 19.9022 32.4301C19.0331 32.5668 18.8768 32.557 18.6424 32.3226C18.4569 32.1371 18.4374 32.0492 18.496 31.5121C18.535 31.1898 18.6131 30.7406 18.662 30.5258C18.8085 29.9886 19.3456 28.6215 19.4237 28.6215C19.453 28.6215 20.1463 29.2855 20.9471 30.0863Z" fill="#0049CB"/>
<path d="M18.6035 19.0414C18.2227 19.1976 18.0176 19.5394 18.0176 19.9984C18.0176 20.3695 18.0664 20.4769 18.3398 20.7211C19.2383 21.5316 20.4395 20.5355 19.873 19.4515C19.668 19.0512 19.0625 18.8558 18.6035 19.0414Z" fill="#0049CB"/>
<path d="M40.2441 27.4008C38.7304 27.8304 37.412 29.1488 37.0116 30.6527C36.8554 31.2582 36.8847 32.5863 37.0702 33.2113C37.1581 33.5043 38.0468 35.2425 39.0429 37.0687C40.6054 39.9203 40.9569 40.4769 41.455 40.9847C43.2519 42.8011 46.0937 42.8304 47.9589 41.0531C49.3651 39.7152 49.7655 37.5668 48.9355 35.7992C48.4569 34.7738 45.498 29.4711 45.1366 28.9925C44.6972 28.4066 43.8964 27.8109 43.1835 27.5375C42.4511 27.264 40.996 27.1957 40.2441 27.4008ZM42.5292 29.5394C42.8026 29.6664 43.1542 29.9203 43.33 30.0961C43.6034 30.389 44.8241 32.4398 44.8241 32.6156C44.8241 32.6449 43.828 33.2308 42.6073 33.9047L40.3808 35.1351L40.0585 34.5883C39.2187 33.1429 38.9452 32.4886 38.955 31.8734C38.955 31.1508 39.121 30.7308 39.6191 30.184C40.3808 29.3246 41.5429 29.0707 42.5292 29.5394ZM46.5234 35.6332C47.4218 37.264 47.5194 37.8793 47.0116 38.8851C46.5526 39.8031 45.4198 40.4379 44.4726 40.3011C43.9159 40.2328 43.1542 39.8422 42.8515 39.4711C42.5097 39.0707 41.3769 37.0199 41.455 36.9418C41.5038 36.8929 45.8202 34.4906 45.8691 34.4808C45.8788 34.4808 46.1718 34.9984 46.5234 35.6332Z" fill="#00C6FF"/>
<path d="M33.3007 37.889C32.3534 38.1429 26.2987 40.6136 25.7323 40.9749C24.2675 41.9027 23.4374 43.7972 23.7206 45.5355C24.1307 48.0745 26.4257 49.7738 28.955 49.4124C29.746 49.305 36.4159 46.6585 37.1679 46.1507C38.0858 45.5453 38.7987 44.4515 39.0526 43.2894C39.4823 41.2777 38.4374 39.1097 36.621 38.2308C35.4979 37.6839 34.453 37.5765 33.3007 37.889ZM35.6151 40.0374C36.5526 40.5062 37.0507 41.3167 37.0604 42.3421C37.0604 42.9183 37.0116 43.1038 36.7675 43.5531C36.3378 44.3245 35.9667 44.5589 33.8182 45.4085L33.3202 45.6038L32.3729 43.2503C31.8554 41.9613 31.4647 40.8675 31.5136 40.8187C31.5917 40.7406 33.5839 39.9202 33.9354 39.8226C34.3065 39.7152 35.2245 39.8324 35.6151 40.0374ZM30.4296 43.9535C30.9374 45.2132 31.3378 46.2874 31.3182 46.3363C31.3085 46.3753 30.7421 46.639 30.078 46.9124C28.6425 47.4788 28.0956 47.5374 27.2753 47.1761C26.3182 46.766 25.7616 45.9066 25.7518 44.8324C25.7421 44.305 25.7909 44.1097 26.0253 43.6702C26.1913 43.3773 26.455 43.0257 26.6307 42.889C26.9335 42.6449 29.2675 41.6097 29.4335 41.6488C29.4725 41.6585 29.9315 42.6937 30.4296 43.9535Z" fill="#00C6FF"/>
</g>
<defs>
<clipPath id="clip0_99_7747">
<rect width="50" height="50" fill="white" transform="translate(0 0.984741)"/>
</clipPath>
</defs>
</svg>
