<svg width="50" height="51" viewBox="0 0 50 51" fill="none" xmlns="http://www.w3.org/2000/svg">
<path d="M10.6937 2.73277C10.4788 2.83043 10.1663 3.0648 9.99055 3.24058C9.32649 3.94371 9.37531 2.84996 9.37531 18.2699V32.2347H10.1566H10.9378V18.6117C10.9378 3.62144 10.9085 4.44176 11.5238 4.21715C11.7386 4.14879 12.7738 4.10973 14.512 4.10973H17.1878V4.81285C17.1878 5.64293 17.3831 6.15074 17.8812 6.61949C18.555 7.25426 18.3206 7.23473 25.0003 7.23473C31.68 7.23473 31.4456 7.25426 32.1195 6.61949C32.6175 6.15074 32.8128 5.64293 32.8128 4.81285V4.10973H35.4984C38.5257 4.10973 38.7601 4.14879 38.9554 4.69566C39.0335 4.93004 39.0628 7.74254 39.0628 14.7543V24.4906L38.7015 24.5492C38.4964 24.5882 38.1741 24.7152 37.9886 24.8421L37.6468 25.0765L37.3538 24.8519C36.4749 24.1781 35.0589 24.139 34.3655 24.7738C34.2288 24.9007 34.1507 24.8812 33.7015 24.5785C32.9007 24.0316 31.8851 23.9925 31.1038 24.4613L30.723 24.6957L29.8831 22.7914C29.4144 21.7367 28.9066 20.7113 28.7308 20.516C28.2425 19.93 27.6761 19.7054 26.8167 19.7543C25.8695 19.7933 25.2933 20.1351 24.8734 20.8968C24.6195 21.3461 24.5706 21.5316 24.5706 22.0687C24.5804 22.6937 24.6488 22.8695 26.514 27.0589C27.5687 29.4515 28.5062 31.5511 28.5745 31.7171L28.7113 32.0394L28.0863 31.7074C27.2073 31.2386 26.5042 31.1117 25.6546 31.2484C25.2835 31.307 24.805 31.4535 24.5804 31.5609C23.9456 31.8832 23.1937 32.6644 22.9398 33.2601C22.7054 33.7875 22.6956 33.7972 22.2952 33.7972H21.8753V32.6254V31.4535H21.0941H20.3128V32.6254V33.7972H17.1878H14.0628V32.6254V31.4535H13.2816H12.5003V32.6254V33.7972H11.7972C10.9671 33.7972 10.4593 33.9925 9.99055 34.4906C9.35578 35.1644 9.37531 34.93 9.37531 41.6097C9.37531 48.2894 9.35578 48.055 9.99055 48.7289C10.1663 48.9047 10.4788 49.139 10.6937 49.2367C11.0648 49.4125 11.6019 49.4222 23.1253 49.4222H35.1566V48.641V47.8597H30.0589H24.9515L24.9808 41.9515C24.9905 38.6996 25.0296 36.0433 25.0589 36.0433C25.0882 36.0433 26.2405 36.9125 27.6175 37.9672C30.3616 40.0765 31.2405 40.6625 33.1937 41.6683C35.1956 42.6937 35.0784 42.5277 36.514 46.3461C37.178 48.1136 37.7542 49.6078 37.803 49.6566C37.8421 49.7054 38.2034 49.6175 38.6234 49.4711C39.1898 49.266 39.3558 49.1586 39.3265 49.0414C39.1605 48.4457 36.8655 42.5668 36.68 42.2543C36.2405 41.5121 35.6546 41.0629 33.9847 40.1839C33.096 39.7152 32.1292 39.1879 31.8363 38.9925C31.2405 38.6214 24.8441 33.7386 24.7562 33.6019C24.6683 33.4554 25.3323 33.0257 25.8402 32.9086C26.4749 32.7621 26.7581 32.8695 28.5062 33.9047L29.9027 34.725L30.1761 35.3402L30.4593 35.9554L30.8304 35.7894C31.0355 35.7015 31.3675 35.5648 31.5726 35.4769C31.7679 35.3988 31.9339 35.2914 31.9339 35.2328C31.9339 35.1839 30.6546 32.2543 29.0921 28.7289C27.5296 25.2035 26.2405 22.2054 26.2405 22.0589C26.2308 21.5121 26.9241 21.18 27.3734 21.5121C27.4613 21.5804 28.8187 24.5394 30.3812 28.0843C31.9534 31.6293 33.262 34.5687 33.3011 34.6078C33.389 34.7054 34.8929 34.0218 34.8245 33.9144C34.5316 33.4359 31.6409 26.6879 31.6409 26.473C31.6409 26.1703 32.0218 25.7894 32.3343 25.7894C32.7347 25.7894 33.0179 26.2875 34.5609 29.7836C35.43 31.7464 36.1527 33.3675 36.1722 33.3773C36.2015 33.4066 37.5491 32.85 37.6761 32.7621C37.6956 32.7523 37.1195 31.3949 36.387 29.7445C34.9905 26.6 34.9417 26.4437 35.3812 26.1312C35.6839 25.9164 36.0648 25.9554 36.2991 26.1996C36.4066 26.3265 37.0609 27.6937 37.7445 29.2562C38.428 30.8089 39.0042 32.098 39.014 32.1175C39.0628 32.1664 40.5277 31.5121 40.5277 31.4437C40.5277 31.4144 40.0882 30.389 39.5511 29.1781C39.014 27.9769 38.5745 26.8929 38.5745 26.7855C38.5745 26.5707 39.0921 26.0824 39.3167 26.0824C39.7073 26.0824 40.0394 26.6976 41.5433 30.0961C42.3831 32.0101 43.1253 33.8168 43.1839 34.1097C43.2718 34.5492 43.262 34.9105 43.1351 36.0043C42.93 37.6547 42.9202 38.5043 43.1058 39.1097C43.262 39.6273 47.3441 46.6879 47.4808 46.6879C47.6468 46.6879 48.8284 45.9847 48.8284 45.8871C48.8284 45.8382 47.9691 44.3148 46.9046 42.5082C45.8499 40.7015 44.9124 39.0414 44.8148 38.8265C44.5999 38.3578 44.5902 37.7132 44.7757 36.3363C44.9515 35.0472 44.9515 34.4027 44.7855 33.6019C44.7073 33.2211 43.9945 31.4925 43.0081 29.2562C41.7093 26.3558 41.2796 25.4671 40.9964 25.1644L40.6253 24.7836V14.5199C40.6253 4.72496 40.6155 4.23668 40.4398 3.86558C40.3421 3.65074 40.1077 3.33824 39.932 3.16246C39.2288 2.4984 40.3226 2.54723 24.9808 2.54723C11.6507 2.54723 11.0648 2.55699 10.6937 2.73277ZM31.2503 4.44176C31.2503 5.00816 31.055 5.38902 30.7034 5.53551C30.2738 5.71129 19.8441 5.74058 19.3363 5.5648C18.9749 5.43785 18.7503 5.00816 18.7503 4.45152V4.10973H25.0003H31.2503V4.44176ZM22.8909 35.4964C23.3011 35.6722 23.4378 36.0336 23.4378 36.9808V37.7035H17.1878H10.9378V36.9808C10.9378 36.0531 11.0745 35.6722 11.4652 35.4964C11.9144 35.3011 22.4222 35.3011 22.8909 35.4964ZM23.4378 43.1234C23.4378 47.43 23.4183 47.5472 22.8519 47.7523C22.4027 47.9086 11.973 47.9086 11.5238 47.7523C10.9573 47.5472 10.9378 47.43 10.9378 43.1234V39.266H17.1878H23.4378V43.1234Z" fill="#0049CB"/>
<path d="M13.2812 41.6097V42.391H14.0625H14.8438V41.6097V40.8285H14.0625H13.2812V41.6097Z" fill="#0049CB"/>
<path d="M16.4062 41.6097V42.391H17.1875H17.9688V41.6097V40.8285H17.1875H16.4062V41.6097Z" fill="#0049CB"/>
<path d="M19.5312 41.6097V42.391H20.3125H21.0938V41.6097V40.8285H20.3125H19.5312V41.6097Z" fill="#0049CB"/>
<path d="M13.2812 44.7347V45.516H14.0625H14.8438V44.7347V43.9535H14.0625H13.2812V44.7347Z" fill="#0049CB"/>
<path d="M16.4062 44.7347V45.516H17.1875H17.9688V44.7347V43.9535H17.1875H16.4062V44.7347Z" fill="#0049CB"/>
<path d="M19.5312 44.7347V45.516H20.3125H21.0938V44.7347V43.9535H20.3125H19.5312V44.7347Z" fill="#0049CB"/>
<path d="M23.1445 8.94373C20.5566 9.5199 18.3691 11.2582 17.2461 13.6117C16.582 15.0082 16.4551 15.6136 16.4551 17.4398C16.4648 19.2562 16.5723 19.7836 17.2363 21.1508C18.4961 23.7386 20.9375 25.5355 23.7402 25.9359L24.1895 26.0043L24.248 25.389C24.3652 24.3051 24.4141 24.3832 23.5352 24.1879C21.3867 23.7289 19.4336 22.098 18.5742 20.057C18.2324 19.2465 18.0664 18.3871 18.0664 17.3422C18.0664 15.4476 18.7305 13.8851 20.1074 12.4984C21.5137 11.1019 23.0566 10.4574 25 10.4574C27.0312 10.4574 28.6719 11.1703 30.0879 12.6742C32.2168 14.9301 32.5488 18.4359 30.8887 21.0824C30.7129 21.3656 30.5664 21.6097 30.5664 21.6195C30.5664 21.639 30.8496 21.8636 31.2012 22.1176C31.8262 22.5765 31.8555 22.5863 32.0312 22.4203C32.373 22.1078 33.1934 20.3109 33.4082 19.3929C33.584 18.641 33.6035 18.3187 33.5645 17.098C33.5059 15.4476 33.3496 14.7836 32.666 13.4359C31.6406 11.3949 29.8242 9.87146 27.5391 9.13904C26.8164 8.90466 26.5234 8.8656 25.2441 8.8363C24.209 8.80701 23.5938 8.84607 23.1445 8.94373Z" fill="#00C6FF"/>
<path d="M3.90644 16.3851V22.4105L2.93965 23.3871C2.4123 23.934 1.88496 24.559 1.76777 24.7836L1.56269 25.1937V34.7738C1.56269 46.0043 1.38691 44.7347 2.92988 44.7347H3.90644V46.2972V47.8597H3.12519H2.34394V48.641V49.4222H4.68769H7.03144V48.641V47.8597H6.25019H5.46894V46.2972V44.7347H6.44551C7.98848 44.7347 7.81269 46.0043 7.81269 34.7738V25.1937L7.60762 24.7836C7.49043 24.559 6.96308 23.934 6.43574 23.3871L5.46894 22.4105V16.3851V10.3597H4.68769H3.90644V16.3851ZM5.46894 24.8617L6.20137 25.5941L6.23066 34.3832L6.25019 43.1722H4.68769H3.12519V42.0004V40.8285H3.90644H4.68769V40.0472V39.266H3.90644H3.12519V38.4847V37.7035H3.90644H4.68769V36.9222V36.141H3.90644H3.12519V35.3597V34.5785H3.90644H4.68769V33.7972V33.016H3.90644H3.12519V32.2347V31.4535H3.90644H4.68769V30.6722V29.891H3.90644H3.12519V29.1097V28.3285H3.90644H4.68769V27.5472V26.766H3.89668H3.0959L3.15449 26.1703C3.20332 25.5746 3.22285 25.5551 3.91621 24.8519C4.3166 24.4515 4.6584 24.1293 4.68769 24.1293C4.71699 24.1293 5.06855 24.4613 5.46894 24.8617Z" fill="#00C6FF"/>
<path d="M25.4688 15.7015L22.6562 18.514L21.7773 17.6351L20.8984 16.7562L20.2832 17.3715L19.6777 17.9769L20.957 19.2465C22.207 20.4867 22.2461 20.516 22.6562 20.516H23.0859L26.3184 17.2933L29.541 14.0707L28.9551 13.4847C28.6328 13.1625 28.3496 12.8988 28.3203 12.8988C28.291 12.8988 27.0117 14.1586 25.4688 15.7015Z" fill="#00C6FF"/>
</svg>
