<?xml version="1.0" encoding="utf-8"?>
<!-- Generator: Adobe Illustrator 28.2.0, SVG Export Plug-In . SVG Version: 6.00 Build 0)  -->
<svg version="1.1" id="Layer_1" xmlns="http://www.w3.org/2000/svg" xmlns:xlink="http://www.w3.org/1999/xlink" x="0px" y="0px"
	 viewBox="0 0 1350 326.2" style="enable-background:new 0 0 1350 326.2;" xml:space="preserve">
<style type="text/css">
	.st0{fill:url(#SVGID_1_);}
	.st1{fill:url(#SVGID_00000069388447552957561580000007158547856875877811_);}
	.st2{fill:url(#SVGID_00000054249676185336835150000004963972969248347812_);}
	.st3{fill:url(#SVGID_00000106132088944225964530000006434669230457664159_);}
	.st4{fill:url(#SVGID_00000155127249055988930330000001121776395221687170_);}
	.st5{fill:url(#SVGID_00000043439369952726418100000008060175956231908495_);}
	.st6{fill:url(#SVGID_00000075843994412862764930000007988013852441453475_);}
	.st7{fill:url(#SVGID_00000148636387274208108550000006258658019460273839_);}
	.st8{fill:url(#SVGID_00000008137306201764217140000001570289526065422986_);}
	.st9{fill:#FFFFFF;}
	.st10{fill:url(#SVGID_00000058589213665872991280000006763908387767182262_);}
	.st11{fill:url(#SVGID_00000045584464345152513130000007525572589788885927_);}
	.st12{fill:url(#SVGID_00000057141347072545405150000010707388400073757359_);}
	.st13{fill:url(#SVGID_00000168839709641735173030000013916928230562362505_);}
</style>
<g>
	
		<linearGradient id="SVGID_1_" gradientUnits="userSpaceOnUse" x1="41.1985" y1="324.8124" x2="52.7105" y2="324.8124" gradientTransform="matrix(1 0 0 -1 0 328.9902)">
		<stop  offset="0" style="stop-color:#2DA17C"/>
		<stop  offset="1" style="stop-color:#557ABC"/>
	</linearGradient>
	<path class="st0" d="M52.7,4.2c0-0.1,0-0.2,0-0.3c0,0.2,0,0.4,0,0.6C52.6,4.5,52.7,4.4,52.7,4.2z"/>
	
		<linearGradient id="SVGID_00000145756615322114927160000010548502762719064964_" gradientUnits="userSpaceOnUse" x1="174.6889" y1="183.9717" x2="106.8739" y2="-0.181" gradientTransform="matrix(1 0 0 -1 0 328.9902)">
		<stop  offset="0" style="stop-color:#E12751"/>
		<stop  offset="1" style="stop-color:#F58229"/>
	</linearGradient>
	<path style="fill:url(#SVGID_00000145756615322114927160000010548502762719064964_);" d="M294.4,177.7c-10.4-2.1-16.5,3-18.7,13.1
		c-0.7,3.4-1.4,6.8-2.3,10.1c-5.3,21.6-16.1,40.1-32,55.5c-16,15.5-40.2,13.1-53.5-4.6c-10.9-14.6-9.1-26.6,6.4-43.4
		c20.7-22.4,19.9-55.6-1.7-75.8c-22.2-20.7-56.4-19.2-76.9,3.2c-19.2,21.1-18.2,53.1,4.2,74.7c21.7,21,6.2,48.1-13,54
		c-13.7,4.2-26.5,2.1-37.2-8.6c-18.4-18.3-29.5-40.4-34.1-65.9c-1.8-9.9-8.1-14.2-17.7-12.7c-9.3,1.5-12.7,8.2-12,17.1
		c0.3,3.4,0.7,6.9,1.5,10.3c9.9,40,31.3,71.9,66.6,93.9c63.5,41.2,154.5,27.2,197.9-30.4l0,0l0,0c19-20.3,28.8-44.9,33.7-71.7
		C307.4,187.5,304.4,179.7,294.4,177.7z"/>
	<g>
		
			<linearGradient id="SVGID_00000134967833731430249240000004745183845274774426_" gradientUnits="userSpaceOnUse" x1="196.4212" y1="252.1551" x2="306.943" y2="252.1551" gradientTransform="matrix(1 0 0 -1 0 328.9902)">
			<stop  offset="0" style="stop-color:#E12751"/>
			<stop  offset="1" style="stop-color:#F58229"/>
		</linearGradient>
		<path style="fill:url(#SVGID_00000134967833731430249240000004745183845274774426_);" d="M297.8,137.8c-1.6-0.8-2.9-2.4-3.3-4.3
			c-2.4-12.5-6.5-24.7-12.2-36.1c-5.8-11.6-13.1-22.2-21.8-31.7c-11-12-23.9-21.9-38.5-29.4c-6.9-3.5-14-6.5-21.3-8.9
			c-3.3-1.1-5.1-4.5-4-7.8c1-3.3,4.5-5.1,7.8-4c7.9,2.5,15.8,5.8,23.2,9.6c15.9,8.2,30,19,42,32c9.5,10.3,17.5,21.9,23.8,34.5
			c6.2,12.4,10.7,25.6,13.3,39.3c0.6,3.4-1.6,6.6-4.9,7.3C300.4,138.6,299,138.4,297.8,137.8z"/>
	</g>
	<g>
		
			<linearGradient id="SVGID_00000140700596406185054510000008639419766037252759_" gradientUnits="userSpaceOnUse" x1="9.0764" y1="251.4276" x2="137.443" y2="251.4276" gradientTransform="matrix(1 0 0 -1 0 328.9902)">
			<stop  offset="0" style="stop-color:#E12751"/>
			<stop  offset="1" style="stop-color:#F58229"/>
		</linearGradient>
		<path style="fill:url(#SVGID_00000140700596406185054510000008639419766037252759_);" d="M12.4,143.2c-2.3-1.2-3.7-3.7-3.3-6.4
			c2.5-16.2,7.5-31.8,15.1-46.5c6.3-12.2,14.2-23.4,23.4-33.4c11.8-12.7,25.6-23.3,41.1-31.3c13-6.7,26.9-11.6,41.3-14.3
			c3.4-0.6,6.6,1.6,7.3,4.9c0.6,3.4-1.6,6.6-4.9,7.3c-13.2,2.5-26,7-37.9,13.2c-14.2,7.4-26.9,17-37.7,28.7
			C48.3,74.5,41.1,84.9,35.3,96c-6.9,13.5-11.6,27.8-13.9,42.7c-0.5,3.4-3.7,5.7-7.1,5.2C13.6,143.7,13,143.5,12.4,143.2z"/>
	</g>
	<g>
		
			<linearGradient id="SVGID_00000171721801335059126740000001732871112901318799_" gradientUnits="userSpaceOnUse" x1="72.7986" y1="234.6109" x2="158.7502" y2="234.6109" gradientTransform="matrix(1 0 0 -1 0 328.9902)">
			<stop  offset="0" style="stop-color:#E12751"/>
			<stop  offset="1" style="stop-color:#F58229"/>
		</linearGradient>
		<path style="fill:url(#SVGID_00000171721801335059126740000001732871112901318799_);" d="M76.1,124c-3-1.6-4.2-5.3-2.7-8.4
			c3.5-6.7,7.7-13,12.6-18.7c4.8-5.5,10.2-10.5,16.1-14.8c7.7-5.6,16.1-9.9,25.1-13c8-2.8,16.4-4.5,24.8-5c3.4-0.2,6.4,2.4,6.6,5.8
			s-2.4,6.4-5.8,6.6c-7.4,0.5-14.6,2-21.6,4.4c-7.8,2.7-15.2,6.5-21.8,11.4c-5.1,3.7-9.8,8.1-14,12.9c-4.3,4.9-8,10.4-11,16.3
			C82.9,124.4,79.2,125.6,76.1,124z"/>
	</g>
	<g>
		
			<linearGradient id="SVGID_00000175294153056371088800000003273993391444958370_" gradientUnits="userSpaceOnUse" x1="174.0564" y1="205.2528" x2="254.0718" y2="205.2528" gradientTransform="matrix(1 0 0 -1 0 328.9902)">
			<stop  offset="0" style="stop-color:#E12751"/>
			<stop  offset="1" style="stop-color:#F58229"/>
		</linearGradient>
		<path style="fill:url(#SVGID_00000175294153056371088800000003273993391444958370_);" d="M243.7,180.1c-2.3-1.2-3.7-3.8-3.3-6.6
			c1.1-6.2,1.4-12.5,1-18.8c-0.3-5.9-1.3-11.8-2.9-17.5c-1.4-5.1-3.3-10.1-5.7-14.8c-2.4-4.8-5.2-9.3-8.4-13.5
			c-4.1-5.4-8.8-10.2-14.1-14.4c-9.2-7.4-20.2-12.8-31.7-15.7c-3.3-0.8-5.3-4.2-4.5-7.5s4.2-5.3,7.5-4.5
			c13.2,3.3,25.8,9.6,36.4,18.1c6.1,4.8,11.5,10.4,16.2,16.6c3.7,4.8,6.9,10.1,9.7,15.6c2.7,5.4,4.9,11.1,6.5,17
			c1.8,6.5,2.9,13.3,3.3,20c0.4,7.2,0,14.5-1.2,21.6c-0.6,3.4-3.8,5.7-7.2,5.1C244.9,180.6,244.3,180.4,243.7,180.1z"/>
	</g>
	
		<linearGradient id="SVGID_00000079476082246810293720000009251956759366045098_" gradientUnits="userSpaceOnUse" x1="35.4444" y1="231.3677" x2="218.4264" y2="231.3677" gradientTransform="matrix(1 0 0 -1 0 328.9902)">
		<stop  offset="0" style="stop-color:#E12751"/>
		<stop  offset="1" style="stop-color:#F58229"/>
	</linearGradient>
	<path style="fill:url(#SVGID_00000079476082246810293720000009251956759366045098_);" d="M215,49.9c-10.8-5.6-22.3-9.5-34.2-11.7
		c-10.5-1.9-21.3-2.5-32-1.6c-7.9,0.6-15.9,2.1-23.5,4.2c-6.8,1.9-13.5,4.4-19.9,7.5c-7.1,3.4-13.9,7.5-20.3,12.1
		c-6.5,4.8-12.6,10.3-18,16.3c-2.9,3.2-5.7,6.7-8.3,10.2c-3.7,5-7,10.4-9.9,16c-5.1,9.9-8.9,20.5-11.1,31.3
		c-1.2,5.8-2,11.8-2.3,17.8c0,0.4,0,0.7-0.1,1.1c0.2,3.4,2.9,6,6.3,6c3.3-0.1,6-2.7,6.1-6c0-0.1,0-0.2,0-0.3c0,0,0,0,0-0.1
		c0.3-5.3,1-10.7,2.1-15.9c2-9.8,5.4-19.2,10-28.2c2.6-5,5.6-9.9,8.9-14.4c2.3-3.2,4.8-6.3,7.5-9.2c4.9-5.4,10.3-10.3,16.2-14.7
		c5.7-4.2,11.8-7.9,18.2-10.9c5.8-2.7,11.8-5,17.9-6.7c6.9-1.9,14-3.2,21.2-3.8c9.6-0.8,19.3-0.3,28.8,1.4c10.7,2,21,5.5,30.8,10.5
		c3,1.6,6.8,0.4,8.4-2.7C219.2,55.2,218,51.5,215,49.9z"/>
	
		<linearGradient id="SVGID_00000134228424525486383790000001359410476612265625_" gradientUnits="userSpaceOnUse" x1="239.015" y1="209.2659" x2="281.7473" y2="209.2659" gradientTransform="matrix(1 0 0 -1 0 328.9902)">
		<stop  offset="0" style="stop-color:#E12751"/>
		<stop  offset="1" style="stop-color:#F58229"/>
	</linearGradient>
	<path style="fill:url(#SVGID_00000134228424525486383790000001359410476612265625_);" d="M280.6,143.3c-1.2-8.9-3.4-17.8-6.5-26.2
		c-2.9-7.8-6.5-15.4-10.9-22.4c-3.9-6.4-8.5-12.4-13.5-17.9c-2.3-2.5-6.2-2.7-8.8-0.4c-2.5,2.3-2.7,6.2-0.4,8.8
		c4.5,5,8.6,10.4,12.1,16.1c3.9,6.4,7.2,13.1,9.8,20.2c2.8,7.6,4.8,15.6,5.8,23.6c0.6,4.5,0.9,9.1,1,13.6l0,0
		c0.1,1.7,0.8,3.1,1.9,4.2l0.1,0.1c0.3,0.2,0.5,0.5,0.8,0.6c0.1,0.1,0.2,0.1,0.3,0.2c0.2,0.1,0.5,0.3,0.7,0.4
		c0.2,0.1,0.4,0.1,0.6,0.2c0.2,0.1,0.4,0.1,0.5,0.2c0.4,0.1,0.8,0.1,1.2,0.1c3.3,0,6-2.6,6.2-5.9c0-0.2,0-0.4,0-0.6
		C281.6,153,281.3,148.1,280.6,143.3z"/>
	<g>
		
			<linearGradient id="SVGID_00000090278238829591486990000001748501998435285892_" gradientUnits="userSpaceOnUse" x1="1408.7457" y1="93.9793" x2="1488.7906" y2="93.9793" gradientTransform="matrix(-0.9828 -0.1845 0.1845 -0.9828 1516.4246 473.8936)">
			<stop  offset="0" style="stop-color:#E12751"/>
			<stop  offset="1" style="stop-color:#F58229"/>
		</linearGradient>
		<path style="fill:url(#SVGID_00000090278238829591486990000001748501998435285892_);" d="M70.3,164.2c2.5-0.8,4.4-3.1,4.4-5.8
			c0.1-6.3,0.9-12.5,2.4-18.6c1.4-5.7,3.5-11.3,6.1-16.6c2.3-4.7,5.1-9.3,8.3-13.5c3.2-4.3,6.8-8.2,10.8-11.8
			c5-4.5,10.6-8.4,16.5-11.6c10.4-5.6,22.2-8.9,34-9.6c3.4-0.2,6-3.1,5.8-6.6c-0.2-3.4-3.2-6-6.6-5.8c-13.6,0.8-27.1,4.7-39.1,11
			c-6.9,3.6-13.3,8.1-19,13.3c-4.5,4.1-8.7,8.6-12.4,13.5c-3.6,4.8-6.8,10.1-9.5,15.5c-3,6.1-5.3,12.5-7,19.1
			c-1.7,7-2.7,14.2-2.8,21.4c-0.1,3.4,2.7,6.3,6.1,6.3C69.1,164.4,69.7,164.3,70.3,164.2z"/>
	</g>
	<path class="st9" d="M160.3,202.6v-2.1c11.6-2.3,20.3-12.5,20.3-24.8c0-13.9-11.3-25.3-25.3-25.3c-13.9,0-25.3,11.3-25.3,25.3
		c0,12.3,8.7,22.5,20.3,24.8v2.1c0,1,0.8,1.8,1.8,1.8h0.5v12.2h-6.3l4.8,10.7l-2.4,44.4l7.2,7.6l7.1-8.2l-3.1-44l4.5-10.6h-5.7
		v-12.2C159.6,204.3,160.3,203.5,160.3,202.6z"/>
	<g>
		
			<linearGradient id="SVGID_00000036968834034163819700000012823891924753273261_" gradientUnits="userSpaceOnUse" x1="-214.4585" y1="-290.1287" x2="-213.29" y2="-336.479" gradientTransform="matrix(0.9622 0.2725 0.2725 -0.9622 432.0229 -69.2638)">
			<stop  offset="0" style="stop-color:#E12751"/>
			<stop  offset="1" style="stop-color:#F58229"/>
		</linearGradient>
		<path style="fill:url(#SVGID_00000036968834034163819700000012823891924753273261_);" d="M143.9,164.9c0.3-0.3,0.5-0.6,0.6-1
			c0.1-0.8-0.7-1.3-1.4-1c-0.3,0.1-0.6,0.3-0.8,0.6c-4.9,6-5.9,12.5-3,19.7c0.5,1.1,1,1.5,1.7,1.2s0.8-0.9,0.3-2.1
			C138.7,176,139.6,170.2,143.9,164.9z"/>
		
			<linearGradient id="SVGID_00000155859453271261568010000003331198008981760658_" gradientUnits="userSpaceOnUse" x1="-198.4108" y1="-281.9438" x2="-219.4437" y2="-315.246" gradientTransform="matrix(0.9622 0.2725 0.2725 -0.9622 432.0229 -69.2638)">
			<stop  offset="0" style="stop-color:#E12751"/>
			<stop  offset="1" style="stop-color:#F58229"/>
		</linearGradient>
		<path style="fill:url(#SVGID_00000155859453271261568010000003331198008981760658_);" d="M153.9,157.5c-1.8,0.3-3.6,0.7-5.3,1.5
			c-0.4,0.2-0.7,0.3-0.9,0.7c-0.2,0.4-0.3,0.7,0,1.1c0.2,0.3,0.5,0.5,1,0.5c0.1,0,0.3-0.1,0.5-0.2c1.6-0.8,3.4-1.2,5.2-1.5
			c0.7-0.1,1.2-0.4,1.2-1.2C155.3,157.7,154.7,157.3,153.9,157.5z"/>
	</g>
	<g>
		<path class="st9" d="M435.3,240.3c-17.5,0-32.3-4.3-44.4-13s-20.5-19.3-25.1-32l33.5-10.3c3,7.3,7.8,13.2,14.4,17.8
			c6.6,4.6,14.6,6.8,23.9,6.8c6.9,0,12.5-1.3,16.8-4.1c4.2-2.8,6.4-6.1,6.4-9.9c0-6.1-5.3-10.9-15.9-14.3l-38.2-11.8
			c-10.3-3.2-18.6-8.3-24.8-15.1s-9.2-14.9-9.1-24.2c-0.1-12.3,5.1-22.8,15.5-31.3c10.4-8.6,23.6-12.9,39.4-12.9
			c15.6,0,29.5,3.7,41.5,11.3c12,7.5,20.1,16.8,24.1,27.6l-32.4,9.5c-3-5.3-7.4-9.5-13.3-12.8c-5.9-3.3-12.4-5-19.5-5
			c-5.9,0-10.7,1.1-14.3,3.4s-5.4,5.2-5.4,8.7c0,5.1,3.3,8.6,9.9,10.6l37.3,11.9c12.9,4,23,9.1,30,15.2c7,6.1,10.5,14.9,10.5,26.4
			c0,13.4-5.6,24.6-16.9,33.6c-11.3,9-26,13.4-44.1,13.4L435.3,240.3z"/>
		<path class="st9" d="M682.2,137.9c7.8,8.2,11.7,19.9,11.7,35.1v63.7h-33.8v-56.2c0-15.6-5.7-23.5-17.2-23.5
			c-12.5,0-18.8,8.7-18.9,26.1v53.6h-33.8v-56.2c0-15.6-5.7-23.5-17.2-23.5c-12.5,0-18.8,8.7-18.8,26.1v53.6h-33.9v-108h33.9v10.5
			c7.8-9,17.7-13.5,29.8-13.5c14.3,0,24.7,4.8,31.3,14.4c9-9.6,20.9-14.4,35.6-14.4C664,125.7,674.5,129.7,682.2,137.9z"/>
		<path class="st9" d="M769.5,239.7c-14.7,0-27.1-5.5-37.2-16.3c-10.1-10.9-15.2-24.4-15.2-40.6c0-16.2,5.1-29.8,15.2-40.6
			s22.5-16.3,37.2-16.3c12.8,0,23.2,4.3,31.1,12.9v-9.9h33.9v108h-33.9V227c-8.2,8.6-18.5,12.9-31,12.9h-0.1V239.7z M775.6,209.7
			c7.6,0,13.8-2.5,18.6-7.5s7.3-11.6,7.3-19.5c0-8-2.5-14.4-7.3-19.3c-4.9-5-11.1-7.4-18.5-7.4c-7.3,0-13.3,2.5-18.1,7.4
			c-4.8,5-7.1,11.4-7.1,19.3c0,8.1,2.4,14.6,7.1,19.5C762.4,207.2,768.4,209.6,775.6,209.7L775.6,209.7z"/>
		<path class="st9" d="M899.1,143.1c3.2-5.9,7.8-10.3,13.5-13.2c5.8-2.9,12.5-3.8,20.3-2.9v31.7c-11.6-2-20.1-0.3-25.5,5
			c-5.5,5.3-8.2,14.6-8.2,27.9v45.1h-33.9v-108h33.9v14.6L899.1,143.1z"/>
		<path class="st9" d="M1030.4,233.1c-8.9,3.5-17.7,5.3-26.5,5.3c-12.7,0-22.2-3.6-28.6-10.9c-6.4-7.2-9.6-17.2-9.6-29.9v-39.4
			h-16.8v-29.6h16.8V94.7h33.9v33.9h29.1v29.6h-29.1v39.4c0,7.5,3.7,11.3,11.2,11.3c4.1,0,8-0.9,11.5-2.8L1030.4,233.1z"/>
	</g>
	
		<linearGradient id="SVGID_00000001659659360830393710000004683785757714678169_" gradientUnits="userSpaceOnUse" x1="1175.7288" y1="270.3758" x2="1084.0819" y2="108.646" gradientTransform="matrix(1 0 0 -1 0 328.9902)">
		<stop  offset="0" style="stop-color:#E12751"/>
		<stop  offset="1" style="stop-color:#F58229"/>
	</linearGradient>
	<path style="fill:url(#SVGID_00000001659659360830393710000004683785757714678169_);" d="M1181.2,88.4v148.3H1146v-59.5h-58.4v59.5
		h-35.2V88.4h35.2v57h58.4v-57H1181.2z"/>
	
		<linearGradient id="SVGID_00000134944470934118296840000017248787863909545900_" gradientUnits="userSpaceOnUse" x1="1342.1765" y1="237.2138" x2="1223.5747" y2="106.4823" gradientTransform="matrix(1 0 0 -1 0 328.9902)">
		<stop  offset="0" style="stop-color:#E12751"/>
		<stop  offset="1" style="stop-color:#F58229"/>
	</linearGradient>
	<path style="fill:url(#SVGID_00000134944470934118296840000017248787863909545900_);" d="M1271.9,187.9h-25.4v48.7h-34.8V88.4h74.2
		c15.6,0,28.3,5.1,38.1,15.2c9.7,10.1,14.6,21.7,14.6,34.9c0,9.7-2.7,18.7-8,26.9s-12.7,14.3-22.3,18.2l35.8,53.2h-40.4
		L1271.9,187.9z M1246.3,157.1h36.8c6.1,0,11.2-1.9,15.1-5.5s5.9-8.1,5.9-13.3c0-5.1-1.9-9.4-5.7-13c-3.8-3.6-8.4-5.5-13.8-5.5
		h-38.3V157.1z"/>
</g>
</svg>
